<?xml version="1.0" standalone="no"?>
<!DOCTYPE svg PUBLIC "-//W3C//DTD SVG 1.1//EN" "http://www.w3.org/Graphics/SVG/1.1/DTD/svg11.dtd" >
<svg xmlns="http://www.w3.org/2000/svg">
<metadata>
Created by FontPrep 20130207 at Sun Sep 13 09:57:26 2015
 By Pixeloid Office
Copyright (c) 2014 by Oscar Boskovitz. All rights reserved.
</metadata>
<defs>
<font id="c0e52862cb7f6f9c4f90464e8d2e31a9" horiz-adv-x='1024' >
  <font-face 
    font-family="Pilvax-RegularItalic"
    font-weight="400"
    font-style="italic"
    font-stretch="normal"
    units-per-em="2048"
    panose-1="2 0 5 6 0 0 0 9 0 4"
    ascent="1536"
    descent="-512"
    x-height="1126"
    cap-height="1372"
    bbox="-182 -397 2134 1839"
    underline-thickness="102"
    underline-position="-102"
    slope="-12"
    unicode-range="U+000D-FB06"
  />
<missing-glyph horiz-adv-x="716" 
d="M854 1495l-367 -1720h-624l364 1720h627zM375 705q127 252 385 755h-455q20 -252 66 -755h4zM455 -190q266 1249 352 1650h-4l-424 -825q60 -721 76 -825zM-86 -190l422 825l-74 825h-4l-348 -1650h4zM-43 -190h453q-43 481 -66 753h-4z" />
    <glyph glyph-name="f_f" unicode="ff" horiz-adv-x="1193" 
d="M817 1321q0 -35 -6 -61l-6 -23h-154l13 66q10 61 10 71q0 66 -64 66q-46 0 -70 -26t-36 -89l-39 -199h387l14 76q31 162 119 236t242 73q238 0 237 -176q0 -31 -6 -61l-8 -37h-164l14 76q12 61 13 84q0 84 -84 84q-61 0 -91 -32t-46 -112l-41 -211h274l-8 -39h-273
l-268 -1425h127l-6 -31h-403l6 31h94l252 1425h-387l-271 -1425h127l-6 -31h-403l6 31h94l254 1425h-127l8 39h125l13 66q27 147 106 213q80 66 219 65q92 0 153 -36q60 -37 60 -113z" />
    <glyph glyph-name="fi" unicode="fi" horiz-adv-x="1097" 
d="M936 1319q0 -34 -8 -74h-172l8 43q12 66 12 86q0 106 -106 107q-76 0 -114 -40t-56 -138l-35 -177h528l-151 -766q-56 -276 -56 -294q-1 -39 48 -39q88 0 127 178l40 192h37l-41 -192q-27 -123 -73 -172t-142 -49t-139 26t-43 88q0 31 59 308l144 681h-346l-269 -1425
h127l-6 -31h-403l6 31h94l254 1425h-127l8 39h125l6 35q35 187 130 269t272 81q262 0 262 -192z" />
    <glyph glyph-name="fl" unicode="fl" horiz-adv-x="1142" 
d="M803 -16q-182 0 -182 101q0 50 53 298l186 881q0 35 -12 79q-36 138 -192 138q-66 0 -103 -38t-55 -136l-35 -181h211l-8 -39h-209l-271 -1425h127l-6 -31h-401l6 31h92l254 1425h-125l6 39h125l10 52q36 176 132 255t266 78q199 0 274 -141q43 8 75 42t42 83h27
l-230 -1137q-55 -270 -55 -288q0 -43 47 -43q88 0 129 178l43 192h37l-43 -192q-29 -127 -74 -174t-141 -47z" />
    <glyph glyph-name="f_f_i" unicode="ffi" horiz-adv-x="1681" 
d="M1360 1374q0 106 -107 107q-75 0 -113 -40t-57 -138l-34 -177h528l-152 -766q-55 -276 -55 -294q0 -40 47 -39q88 0 127 178l41 192h37l-41 -192q-27 -123 -73 -172t-142 -49t-139 26t-43 88q0 31 59 308l143 681h-346l-268 -1425h127l-6 -31h-404l7 31h94l254 1425h-385
l-271 -1425h127l-6 -31h-403l6 31h94l254 1425h-127l8 39h125l13 66q27 147 106 213q80 66 219 65q92 0 153 -36q60 -37 60 -113q0 -35 -6 -61l-6 -23h-154l13 66q10 61 10 71q0 66 -64 66q-46 0 -70 -26t-36 -89l-39 -199h385l6 35q35 187 130 269t271 81q262 0 263 -192
q0 -29 -9 -74h-172l9 43q12 66 12 86z" />
    <glyph glyph-name="f_f_l" unicode="ffl" horiz-adv-x="1732" 
d="M1393 -16q-185 0 -183 101q0 50 54 298l186 881q0 35 -12 79q-37 138 -193 138q-67 0 -103 -38t-55 -136l-34 -181h211l-9 -39h-208l-271 -1425h127l-6 -31h-401l6 31h92l254 1425h-389l-271 -1425h127l-6 -31h-403l6 31h94l254 1425h-127l8 39h125l13 66q27 147 106 213
q80 66 219 65q92 0 153 -36q60 -37 60 -113q0 -35 -6 -61l-6 -23h-154l13 66q10 61 10 71q0 66 -64 66q-46 0 -70 -26t-36 -89l-39 -199h389l10 52q35 176 131 255t267 78q199 0 274 -141q43 8 75 42t42 83h26l-229 -1137q-55 -270 -55 -288q0 -43 47 -43q88 0 129 178
l43 192h37l-43 -192q-29 -127 -74 -174t-141 -47z" />
    <glyph glyph-name="s_t" unicode="st" horiz-adv-x="1509" 
d="M543 1112q-141 0 -170 -145l-13 -60q-6 -25 -6 -47q0 -61 66 -121l186 -164q102 -88 103 -210q0 -35 -11 -86l-8 -37q-57 -258 -344 -258q-254 0 -285 196h-4l-41 -196h-36l79 378h183l-17 -77q-31 -139 -30 -164q0 -106 124 -107q143 0 183 160l12 53q8 33 8 68
q-2 68 -67 127l-179 156q-96 86 -96 192q0 27 10 88l7 33q47 252 327 252q225 0 254 -191h4l27 121q47 217 124 328t218 110q199 0 199 -163q0 -57 -22 -128q-22 -70 -25 -94h260l-9 -39h-260l-147 -743q-43 -215 -43 -250t16 -52t71 -17q111 0 159 211l47 215h37l-48 -215
q-33 -150 -91 -201q-59 -51 -175 -51t-161 28q-44 30 -44 88t17 127l182 860h-94l10 39h86q88 0 135 74t47 146q0 135 -149 135q-121 -1 -185 -103t-110 -305l-66 -293h-176l19 86q25 113 24 146q0 100 -112 100z" />
    <glyph glyph-name="f_b" unicode="fb" horiz-adv-x="1593" 
d="M656 1481q-66 0 -103 -38t-55 -136l-35 -181h211l-8 -39h-209l-271 -1425h127l-6 -31h-401l6 31h92l254 1425h-125l6 39h125l10 52q36 176 132 255t278 79t264 -146q47 8 82 43t47 86h27l-295 -1397l29 -16l192 625q89 290 156 363q66 73 162 73q182 0 182 -146
q0 -63 -37 -247l-80 -381q-41 -197 -115 -291t-229 -94q-91 0 -195 47t-148 47t-64 -34q-8 -13 -21 -44h-33l254 1268q0 77 -45 145q-44 68 -161 68zM1356 1010q0 68 -68 67q-66 0 -112 -86t-107 -284l-199 -641q78 -39 136 -39q58 -1 87 21q54 42 101 239l111 456
q51 209 51 267z" />
    <glyph glyph-name="f_h" unicode="fh" horiz-adv-x="1648" 
d="M656 1481q-66 0 -103 -38t-55 -136l-35 -181h211l-8 -39h-209l-271 -1425h127l-6 -31h-401l6 31h92l254 1425h-125l6 39h125l10 52q36 176 132 255t278 79t264 -146q47 8 82 43t47 86h27l-309 -1464h28l213 706q72 240 129 323t166 83q168 0 168 -148q0 -29 -39 -239
l-67 -344q-66 -332 -66 -350t7 -27q7 -8 28 -8q72 0 102 141l45 213h37l-45 -213q-23 -100 -63 -142t-128 -42q-87 0 -129 22t-42 76q0 53 63 342l84 385q35 156 35 203q0 66 -53 65q-56 0 -98 -83t-95 -257l-225 -737h-242l254 1268q0 77 -45 145q-44 68 -161 68z" />
    <glyph glyph-name="f_j" unicode="fj" horiz-adv-x="1101" 
d="M936 1319q0 -34 -8 -74h-172l8 43q12 66 12 86q0 106 -106 107q-76 0 -114 -40t-56 -138l-35 -177h543l-252 -1192q-35 -166 -106 -234t-228 -69h-64l7 31h24q70 0 107 37t53 123l254 1265h-346l-269 -1425h80l-6 -31h-356l6 31h94l254 1425h-127l8 39h125l6 35
q35 187 130 269t272 81q262 0 262 -192z" />
    <glyph glyph-name="f_k" unicode="fk" horiz-adv-x="1583" 
d="M656 1481q-66 0 -103 -38t-55 -136l-35 -181h211l-8 -39h-209l-271 -1425h127l-6 -31h-401l6 31h92l254 1425h-125l6 39h125l10 52q36 176 132 255t278 79t264 -146q47 8 82 43t47 86h27l-309 -1464h28l224 739q61 203 123 288t164 85t148 -35t46 -94q0 -31 -12 -82
q-28 -106 -88 -150t-222 -75l-76 -15l-2 -4h13q258 0 258 -139q0 -49 -33 -195l-20 -94q-35 -162 -35 -194q0 -39 39 -39q74 0 104 141l45 213h37l-45 -213q-23 -100 -66 -142t-130 -42t-130 22t-43 79q0 56 35 200l25 106q35 162 35 174q0 51 -34 78t-91 27h-37l-205 -670
h-242l254 1268q0 77 -45 145q-44 68 -161 68zM1350 1022q0 55 -60 55q-60 -1 -107 -71q-48 -70 -98 -236l-22 -76l102 29q76 20 109 57q32 38 54 130t22 112z" />
    <glyph glyph-name="f_t" unicode="ft" horiz-adv-x="1198" 
d="M793 94q0 -35 16 -52q17 -17 71 -17q113 0 158 211l47 215h37l-47 -215q-33 -150 -91 -201t-174 -51t-162 28q-44 30 -44 88t17 127l182 860h-344l-271 -1425h127l-6 -31h-403l6 31h94q168 950 254 1425h-127l8 39h125l21 109q27 145 105 211q79 66 220 65q90 0 152 -36
q61 -37 61 -113q0 -23 -8 -68l-12 -57h-154l21 106q10 61 10 72q0 66 -64 66q-52 0 -74 -33t-40 -125l-39 -197h323q145 0 207 222h41l-45 -222h260l-8 -39h-260l-147 -743q-43 -215 -43 -250z" />
    <glyph glyph-name="f_iacute" unicode="f&#xed;" horiz-adv-x="1144" 
d="M1241 1372l-354 -149l-13 16l322 231zM788 -16q-96 0 -139 26t-43 88q0 31 60 308l143 681h-350l-271 -1425h127l-6 -31h-403l6 31h94l254 1425h-127l8 39h125l21 109q27 145 106 211q80 66 219 65q92 0 153 -36q60 -37 60 -113q0 -23 -8 -68l-12 -57h-154l17 86
q14 72 14 92q0 66 -64 66q-46 0 -70 -26t-36 -89l-47 -240h534l-151 -766q-55 -276 -55 -294q0 -40 47 -39q88 0 127 178l41 192h36l-40 -192q-27 -123 -73 -172q-47 -49 -143 -49z" />
    <glyph glyph-name="f_f_b" unicode="ffb" horiz-adv-x="2181" 
d="M1594 27q58 -1 86 21q55 43 102 239l110 456q52 209 52 272t-67 63t-113 -87q-46 -86 -107 -284l-199 -641q78 -39 136 -39zM817 1321q0 -35 -6 -61l-6 -23h-154l13 66q10 61 10 71q0 66 -64 66q-46 0 -70 -26t-36 -89l-39 -199h387l10 52q35 176 131 255t279 79
t264 -146q45 8 81 43t48 86h27l-295 -1397l28 -16l193 625q89 288 155 362t162 74q182 0 183 -146q0 -63 -37 -247l-80 -381q-41 -197 -115 -291t-229 -94q-91 0 -195 47t-148 47t-65 -34q-8 -13 -20 -44h-33l254 1268q0 77 -45 145t-162 68q-67 0 -103 -38t-55 -136
l-34 -181h211l-9 -39h-209l-270 -1425h127l-6 -31h-401l6 31h92l254 1425h-387l-271 -1425h127l-6 -31h-403l6 31h94l254 1425h-127l8 39h125l13 66q27 147 106 213q80 66 219 65q92 0 153 -36q60 -37 60 -113z" />
    <glyph glyph-name="f_f_h" unicode="ffh" horiz-adv-x="2236" 
d="M817 1321q0 -35 -6 -61l-6 -23h-154l13 66q10 61 10 71q0 66 -64 66q-46 0 -70 -26t-36 -89l-39 -199h387l10 52q35 176 131 255t279 79t264 -146q45 8 81 43t48 86h27l-310 -1464h29l213 706q72 240 129 323t166 83q168 0 168 -148q0 -29 -39 -239l-68 -344
q-66 -332 -66 -350t8 -27q7 -8 28 -8q72 0 102 141l45 213h37l-45 -213q-23 -100 -64 -142t-127 -42t-130 22q-42 23 -42 76t64 342l84 385q35 156 35 203q0 66 -54 65q-55 0 -97 -83t-95 -257l-225 -737h-242l254 1268q0 77 -45 145t-162 68q-67 0 -103 -38t-55 -136
l-34 -181h211l-9 -39h-209l-270 -1425h127l-6 -31h-401l6 31h92l254 1425h-387l-271 -1425h127l-6 -31h-403l6 31h94l254 1425h-127l8 39h125l13 66q27 147 106 213q80 66 219 65q92 0 153 -36q60 -37 60 -113z" />
    <glyph glyph-name="f_f_j" unicode="ffj" horiz-adv-x="1687" 
d="M1522 1319q0 -44 -9 -74h-172l9 43q12 66 12 86q0 106 -107 107q-75 0 -113 -40t-57 -138l-34 -177h542l-252 -1192q-35 -166 -105 -234t-228 -69h-64l6 31h25q71 0 107 37t53 123l254 1265h-347l-268 -1425h80l-6 -31h-356l6 31h94l254 1425h-387l-271 -1425h127l-6 -31
h-403l6 31h94l254 1425h-127l8 39h125l13 66q27 147 106 213q80 66 219 65q92 0 153 -36q60 -37 60 -113q0 -35 -6 -61l-6 -23h-154l13 66q10 61 10 71q0 66 -64 66q-46 0 -70 -26t-36 -89l-39 -199h387l6 35q35 187 130 269t272 81q262 0 262 -192z" />
    <glyph glyph-name="f_f_k" unicode="ffk" horiz-adv-x="2170" 
d="M1878 1077q-59 0 -108 -70q-48 -71 -97 -237l-22 -76l102 29q76 20 109 57q32 38 54 130t21 112q0 55 -59 55zM817 1321q0 -35 -6 -61l-6 -23h-154l13 66q10 61 10 71q0 66 -64 66q-46 0 -70 -26t-36 -89l-39 -199h387l10 52q35 176 131 255t279 79t264 -146q45 8 81 43
t48 86h27l-310 -1464h29l223 739q62 203 124 288t164 85t148 -35t46 -94q0 -31 -13 -82q-27 -106 -87 -150t-222 -75l-76 -15l-2 -4h13q258 0 258 -139q0 -49 -33 -195l-21 -94q-35 -162 -35 -194q0 -39 39 -39q74 0 105 141l45 213h37l-45 -213q-23 -100 -66 -142t-130 -42
t-130 22t-43 79q0 56 35 200l24 106q35 162 35 174q0 51 -34 78t-91 27h-37l-204 -670h-242l254 1268q0 77 -45 145t-162 68q-67 0 -103 -38t-55 -136l-34 -181h211l-9 -39h-209l-270 -1425h127l-6 -31h-401l6 31h92l254 1425h-387l-271 -1425h127l-6 -31h-403l6 31h94
l254 1425h-127l8 39h125l13 66q27 147 106 213q80 66 219 65q92 0 153 -36q60 -37 60 -113z" />
    <glyph glyph-name="f_f_t" unicode="fft" horiz-adv-x="1785" 
d="M1380 94q0 -35 16 -52t72 -17q113 0 158 211l47 215h37l-47 -215q-33 -150 -91 -201t-175 -51t-161 28t-44 88q0 58 16 127l183 860h-344l-271 -1425h127l-6 -31h-403l6 31h94q168 950 254 1425h-389l-271 -1425h127l-6 -31h-403l6 31h94l254 1425h-127l8 39h125l13 66
q27 147 106 213q80 66 219 65q92 0 153 -36q60 -37 60 -113q0 -35 -6 -61l-6 -23h-154l13 66q10 61 10 71q0 66 -64 66q-46 0 -70 -26t-36 -89l-39 -199h389l20 109q27 145 106 211t220 65q90 0 152 -36q61 -37 61 -113q0 -23 -8 -68l-12 -57h-154l21 106q10 61 10 72
q0 66 -64 66q-52 0 -74 -33t-40 -125l-39 -197h323q145 0 207 222h41l-45 -222h260l-8 -39h-260l-148 -743q-43 -215 -43 -250z" />
    <glyph glyph-name="g_i" unicode="gi" horiz-adv-x="1572" 
d="M1231 -16q-96 0 -139 26t-43 88q0 31 59 308l145 690h-94l8 30h275l-152 -766q-55 -276 -55 -294q0 -40 47 -39q88 0 127 178l41 192h37l-41 -192q-27 -123 -73 -172t-142 -49zM1166 1481q-82 0 -154 -30t-109 -75q-70 -85 -72 -164q0 -92 152 -92l-235 -1175
q-66 -330 -404 -330t-338 268q0 35 12 103l9 47h200l-26 -121q-25 -109 -25 -156q0 -113 139 -112q176 0 224 227l260 1225h-29l-178 -539q-102 -308 -167 -377t-163 -67q-188 0 -188 153q0 37 45 283l43 250q31 178 109 261q79 83 217 83t233 -86l53 155q50 150 144 225
t254 75t230 -40q71 -38 71 -131q0 -44 -13 -96h-170q22 83 23 135q0 53 -32 77q-33 24 -115 24zM559 1096q-78 0 -116 -47t-56 -134l-96 -436q-43 -188 -43 -226t15 -56t61 -19q68 0 114 88t115 291l158 469q-74 70 -152 70z" />
    <glyph glyph-name="i_p" unicode="ip" horiz-adv-x="1658" 
d="M1051 29q73 0 109 45t54 127l127 538q51 217 52 267q0 72 -70 71q-70 0 -119 -101q-33 -68 -62 -161q-30 -94 -31 -98t-3 -10t-4 -13l-197 -626q72 -39 144 -39zM272 -16q-96 0 -139 26t-43 88q0 31 60 308l145 690h-94l8 30h274l-151 -766q-56 -276 -56 -294
q-1 -40 48 -39q88 0 127 178l41 192h36l-41 -192q-27 -123 -73 -172t-142 -49zM1382 1143q184 0 185 -146q0 -31 -54 -313l-71 -371q-35 -176 -113 -253q-78 -76 -227 -76t-256 88l-86 -410h127l-6 -31h-400l6 31h91l288 1434h-94l6 30h72q98 0 147 44t50 122
q0 188 -304 189q-119 0 -168 -45t-67 -156l-6 -35h-170q33 155 133 210q100 56 291 56q336 0 336 -231q0 -45 -23 -154l-217 -1022l25 -20l188 610q59 207 81 248q21 41 41 79q19 38 37 54q58 50 92 59t66 9z" />
    <glyph glyph-name="i_t" unicode="it" horiz-adv-x="1243" 
d="M817 1126q199 0 199 173q0 85 -76 133t-198 49q-122 0 -165 -44q-42 -44 -69 -157l-8 -35h-168q33 155 127 210q94 56 264 56t253 -60t83 -171q0 -28 -23 -154h260l-8 -39h-260l-147 -743q-43 -215 -43 -250t16 -52t70 -17q113 0 159 211l47 215h37l-47 -215
q-33 -150 -91 -201q-59 -51 -175 -51t-161 28q-44 30 -44 88t17 127l182 860h-94l10 39h53zM272 -16q-96 0 -139 26t-43 88q0 31 60 308l145 690h-94l8 30h274l-151 -766q-56 -276 -56 -294q-1 -40 48 -39q88 0 127 178l41 192h36l-41 -192q-27 -123 -73 -172t-142 -49z" />
    <glyph glyph-name="c_h" unicode="ch" horiz-adv-x="1961" 
d="M590 1112q-156 0 -193 -190l-121 -650q-14 -72 -14 -125t35 -88t119 -34q231 0 289 270l22 106h41l-23 -104q-33 -156 -117 -235q-84 -78 -236 -78q-154 0 -238 68t-84 200q0 47 12 104l98 461q70 326 385 326q223 0 264 -182h5l24 112q45 207 74 260q51 92 170 92
q53 0 106 -12t85 -12t52 21q19 22 31 73h41l-309 -1464h29l213 706q72 240 129 323t166 83q168 0 167 -148q0 -29 -38 -239l-68 -344q-66 -332 -66 -350t8 -27q8 -8 27 -8q72 0 103 141l45 213h37l-45 -213q-23 -100 -64 -142t-128 -42t-129 22t-42 76q0 53 64 342l83 385
q35 156 35 203q0 66 -53 65q-55 0 -97 -83t-95 -257l-226 -737h-241l274 1370q-63 18 -106 19q-80 0 -114 -67t-73 -249l-84 -397h-184l27 125q35 156 36 207q0 104 -108 104z" />
    <glyph glyph-name="c_k" unicode="ck" horiz-adv-x="1896" 
d="M590 1112q-156 0 -193 -190l-121 -650q-14 -72 -14 -125t35 -88t119 -34q231 0 289 270l22 106h41l-23 -104q-33 -156 -117 -235q-84 -78 -236 -78q-154 0 -238 68t-84 200q0 47 12 104l98 461q70 326 385 326q223 0 264 -182h5l24 112q45 207 74 260q51 92 170 92
q53 0 106 -12t85 -12t52 21q19 22 31 73h41l-309 -1464h29l223 739q62 203 124 288t164 85t147 -35q46 -35 46 -94q0 -31 -12 -82q-27 -106 -87 -150t-222 -75l-76 -15l-2 -4h12q258 0 258 -139q0 -49 -33 -195l-20 -94q-35 -162 -35 -194q0 -39 39 -39q74 0 104 141l45 213
h37l-45 -213q-24 -100 -66 -142t-129 -42t-130 22t-43 79q0 56 34 200l25 106q35 162 35 174q0 51 -34 78t-91 27h-37l-205 -670h-241l274 1370q-63 18 -106 19q-80 0 -114 -67t-73 -249l-84 -397h-184l27 125q35 156 36 207q0 104 -108 104zM1663 1022q0 55 -59 55
t-108 -70q-48 -71 -97 -237l-23 -76l103 29q77 20 109 57q32 38 54 130t21 112z" />
    <glyph glyph-name="c_t" unicode="ct" horiz-adv-x="1542" 
d="M1380 1348q0 -66 -43 -209l-2 -13h260l-8 -39h-260l-147 -743q-43 -215 -43 -250t16 -52q17 -17 71 -17q113 0 158 211l48 215h36l-47 -215q-33 -150 -91 -201t-174 -51t-162 28q-44 30 -44 88t17 127l182 860h-94l10 39h84q88 0 135 74t47 143t-31 103t-110 35
q-114 1 -178 -103t-107 -305l-84 -397h-184l27 125q35 156 36 207q0 104 -108 104q-156 0 -193 -190l-121 -650q-14 -72 -14 -125t35 -88t119 -34q231 0 289 270l22 106h41l-23 -104q-33 -156 -117 -235q-84 -78 -236 -78q-154 0 -238 68t-84 200q0 47 12 104l98 461
q70 326 385 326q223 0 264 -182h5l24 112q47 215 121 327t211 111q190 0 190 -163z" />
    <glyph glyph-name="s_h" unicode="sh" horiz-adv-x="1918" 
d="M543 1112q-141 0 -170 -145l-13 -60q-6 -25 -6 -47q0 -61 66 -121l186 -164q102 -88 103 -210q0 -35 -11 -86l-8 -37q-57 -258 -344 -258q-254 0 -285 196h-4l-41 -196h-36l79 378h183l-17 -77q-31 -139 -30 -164q0 -106 124 -107q143 0 183 160l12 53q8 33 8 68
q-2 68 -67 127l-179 156q-96 86 -96 192q0 27 10 88l7 33q47 252 327 252q225 0 254 -191h4l27 121q34 155 56 214q21 60 44 82q59 56 150 56q53 0 106 -12t85 -12t52 21q19 22 31 73h41l-309 -1464h29l213 706q72 240 129 323t166 83q168 0 167 -148q0 -29 -38 -239
l-68 -344q-66 -332 -66 -350q-1 -18 7 -27q8 -8 28 -8q72 0 103 141l45 213h37l-45 -213q-23 -100 -64 -142t-128 -42t-129 22t-42 76q0 53 64 342l83 385q35 156 35 203q0 66 -53 65q-55 0 -97 -83t-95 -257l-226 -737h-241l274 1370q-63 18 -106 19q-82 0 -117 -67
t-76 -249l-66 -293h-176l19 86q25 113 24 146q0 100 -112 100z" />
    <glyph glyph-name="s_k" unicode="sk" horiz-adv-x="1851" 
d="M543 1112q-141 0 -170 -145l-13 -60q-6 -25 -6 -47q0 -61 66 -121l186 -164q102 -88 103 -210q0 -35 -11 -86l-8 -37q-57 -258 -344 -258q-254 0 -285 196h-4l-41 -196h-36l79 378h183l-17 -77q-31 -139 -30 -164q0 -106 124 -107q143 0 183 160l12 53q8 33 8 68
q-2 68 -67 127l-179 156q-96 86 -96 192q0 27 10 88l7 33q47 252 327 252q225 0 254 -191h4l27 121q34 155 56 214q21 60 44 82q59 56 150 56q53 0 106 -12t85 -12t52 21q19 22 31 73h41l-309 -1464h29l223 739q61 203 123 288t164 85t148 -35t46 -94q0 -31 -12 -82
q-27 -106 -87 -150t-222 -75l-76 -15l-2 -4h12q258 0 258 -139q0 -49 -33 -195l-20 -94q-35 -162 -35 -194q0 -39 39 -39q74 0 104 141l45 213h37l-45 -213q-23 -100 -65 -142t-130 -42q-87 0 -130 22t-43 79q0 56 34 200l25 106q35 162 35 174q0 51 -34 78t-91 27h-37
l-205 -670h-241l274 1370q-63 18 -106 19q-82 0 -117 -67t-76 -249l-66 -293h-176l19 86q25 113 24 146q0 100 -112 100zM1620 1022q0 55 -59 55t-108 -70q-48 -71 -97 -237l-23 -76l103 29q76 20 108 57q32 38 54 130t22 112z" />
    <glyph glyph-name="s_p" unicode="sp" horiz-adv-x="1906" 
d="M1642 1006q0 72 -69 71q-72 0 -119 -101q-33 -68 -62 -161q-30 -94 -31 -98t-3 -10t-4 -13l-197 -626q72 -39 144 -39q73 0 109 45t54 127l127 538q51 217 51 267zM1632 1143q184 0 185 -146q0 -31 -54 -313l-71 -371q-35 -176 -113 -253q-78 -76 -227 -76t-256 88
l-86 -410h127l-7 -31h-399l6 31h90l289 1434h-94l8 30h100q88 0 136 74q47 74 47 143t-33 103t-119 35q-123 1 -193 -105t-114 -303l-66 -293h-176l19 86q25 113 24 146q0 100 -112 100q-141 0 -170 -145l-13 -60q-6 -25 -6 -47q0 -61 66 -121l186 -164q102 -88 103 -210
q0 -35 -11 -86l-8 -37q-57 -258 -344 -258q-254 0 -285 196h-4l-41 -196h-36l79 378h183l-17 -77q-31 -139 -30 -164q0 -106 124 -107q143 0 183 160l12 53q8 33 8 68q-2 68 -67 127l-179 156q-96 86 -96 192q0 27 10 88l7 33q47 252 327 252q225 0 254 -191h4l27 121
q47 215 127 327t225 111q203 0 203 -163q0 -43 -20 -117t-25 -105l-217 -1022l24 -20l189 610q59 207 81 248q21 41 41 79q19 38 37 54q58 50 92 59t66 9z" />
    <glyph glyph-name="t_t" unicode="tt" horiz-adv-x="1318" 
d="M909 1126q145 0 207 222h41l-45 -222h260l-8 -39h-260l-148 -743q-43 -215 -43 -250q1 -35 17 -52t70 -17q113 0 159 211l47 215h37l-47 -215q-33 -150 -91 -201q-59 -51 -175 -51t-161 28q-44 30 -44 88t16 127l183 860h-453l-147 -743q-43 -215 -43 -250t16 -52
q17 -17 71 -17q113 0 158 211l39 174h37l-39 -174q-33 -150 -91 -201t-174 -51t-162 28q-44 30 -44 88t17 127l182 860h-94l10 39h69q145 0 207 222h41l-45 -222h430z" />
    <glyph glyph-name="T_h" unicode="Th" horiz-adv-x="1847" 
d="M1124 1372q59 0 90 27t46 96h43l-310 -1464h29l213 706q72 240 129 323t166 83q168 0 168 -148q0 -29 -39 -239l-68 -344q-65 -332 -65 -350t7 -27q7 -8 28 -8q72 0 102 141l45 213h37l-45 -213q-23 -100 -64 -142t-128 -42t-129 22t-42 76q0 53 64 342l84 385
q35 156 35 203q0 66 -54 65q-55 0 -97 -83t-95 -257l-225 -737h-242l260 1300h-360l-269 -1269h117l-6 -31h-455l6 31h117l268 1269h-241l-70 -323h-41l84 395h907z" />
    <glyph glyph-name="Tcaron_h" unicode="&#x164;h" horiz-adv-x="1847" 
d="M1124 1372q59 0 90 27t46 96h43l-310 -1464h29l213 706q72 240 129 323t166 83q168 0 168 -148q0 -29 -39 -239l-68 -344q-65 -332 -65 -350t7 -27q7 -8 28 -8q72 0 102 141l45 213h37l-45 -213q-23 -100 -64 -142t-128 -42t-129 22t-42 76q0 53 64 342l84 385
q35 156 35 203q0 66 -54 65q-55 0 -97 -83t-95 -257l-225 -737h-242l260 1300h-360l-269 -1269h117l-6 -31h-455l6 31h117l268 1269h-241l-70 -323h-41l84 395h907zM899 1642q-159 -115 -268 -188h-25l-170 188l21 17q115 -78 172 -115h4l254 115z" />
    <glyph glyph-name="Tcommaaccent_h" unicode="&#x162;h" horiz-adv-x="1847" 
d="M406 -172q0 -100 -74 -156t-187 -57l7 27q90 0 146 44t60 119h-4q-23 -53 -80 -53q-34 0 -56 23t-22 61t32 64t77 26t73 -26t28 -72zM1124 1372q59 0 90 27t46 96h43l-310 -1464h29l213 706q72 242 128 324t167 82q168 0 168 -148q0 -29 -39 -239l-68 -344
q-65 -332 -65 -350t7 -27q7 -8 28 -8q72 0 102 141l45 213h37l-45 -213q-23 -100 -64 -142t-128 -42t-129 22t-42 76q0 53 64 342l84 385q35 156 35 203q0 66 -54 65q-55 0 -97 -83t-95 -257l-225 -737h-242l260 1300h-360l-269 -1269h117l-6 -31h-455l6 31h117l268 1269
h-241l-70 -323h-41l84 395h907z" />
    <glyph glyph-name=".notdef" horiz-adv-x="716" 
d="M854 1495l-367 -1720h-624l364 1720h627zM375 705q127 252 385 755h-455q20 -252 66 -755h4zM455 -190q266 1249 352 1650h-4l-424 -825q60 -721 76 -825zM-86 -190l422 825l-74 825h-4l-348 -1650h4zM-43 -190h453q-43 481 -66 753h-4z" />
    <glyph glyph-name=".null" horiz-adv-x="0" 
 />
    <glyph glyph-name="nonmarkingreturn" horiz-adv-x="681" 
 />
    <glyph glyph-name="NULL" horiz-adv-x="0" 
 />
    <glyph glyph-name="NULL" horiz-adv-x="0" 
 />
    <glyph glyph-name="CR" unicode="&#xd;" horiz-adv-x="655" 
 />
    <glyph glyph-name="space" unicode=" " horiz-adv-x="501" 
 />
    <glyph glyph-name="exclam" unicode="!" horiz-adv-x="655" 
d="M192 201q98 0 97 -96q0 -47 -37 -85t-88 -36q-51 0 -75 24q-23 24 -23 72q0 47 38 84q40 37 88 37zM268 1122q0 266 154 267q68 0 106 -31t37 -84q0 -54 -35 -146q-36 -92 -112 -272t-129 -324l-43 -200h-37l43 200l10 289q6 153 6 301z" />
    <glyph glyph-name="quotedbl" unicode="&#x22;" horiz-adv-x="870" 
d="M793 1323q-1 -39 -21 -85t-78 -141t-96 -171l-16 -74h-31l16 74l4 291q4 197 129 196q93 0 93 -90zM504 1323q0 -39 -20 -85t-78 -141q-57 -95 -97 -171l-16 -74h-31l17 74l4 291q4 197 129 196q92 0 92 -90z" />
    <glyph glyph-name="numbersign" unicode="#" horiz-adv-x="989" 
d="M440 911l-96 -319h229l97 319h-230zM616 592h172l-57 -195h-172l-117 -397h-43l117 397h-229l-117 -397h-43l117 397h-170l57 195h170l96 319h-172l58 195h172l77 266h43l-77 -266h229l78 266h43l-78 -266h172l-57 -195h-172z" />
    <glyph glyph-name="dollar" unicode="$" horiz-adv-x="1001" 
d="M401 1010q0 -82 64 -131l88 407q-106 -33 -133 -168l-10 -49q-9 -45 -9 -59zM612 395q0 82 -67 135l-94 -444q111 35 141 180l12 60q2 12 8 69zM624 1296q-22 0 -34 -2l-92 -438l69 -51l103 487q-24 4 -46 4zM372 76q28 0 40 2l102 477l-70 49l-112 -526q12 -2 40 -2z
M811 477q0 -47 -12 -106l-11 -49q-53 -260 -346 -277l-34 -164h-37l35 164q-41 0 -80 6l-35 -170h-37l37 176q-184 41 -203 215h-4l-47 -227h-37l82 387h192l-24 -121q-20 -98 -21 -110q0 -92 68 -115l115 543l-86 63q-109 80 -109 215q0 70 12 111l15 53q66 242 317 256
l35 164h37l-35 -164q41 0 78 -6l37 170h37l-37 -176q166 -41 184 -205h4l45 217h37l-80 -371h-186l26 117q14 63 19 113q0 72 -57 96l-107 -500l102 -71q111 -80 111 -234z" />
    <glyph glyph-name="percent" unicode="%" horiz-adv-x="1398" 
d="M496 1276q-111 0 -134 -129l-69 -420q-14 -72 -14 -96q0 -80 81 -80q109 0 134 131l77 453q8 37 9 59q0 82 -84 82zM360 528q-102 0 -159 46t-58 135q0 31 19 118l51 236q51 235 275 235t225 -178q-1 -22 -21 -131l-49 -225q-51 -236 -283 -236zM942 1372h47l-512 -1372
h-47zM1122 649q0 82 -84 82q-113 0 -133 -129l-69 -420q-14 -72 -15 -96q0 -80 82 -80q108 0 133 131l78 453q8 37 8 59zM686 164q0 31 19 119l51 235q51 236 275 236t224 -179q0 -22 -20 -131l-49 -225q-51 -236 -283 -235q-102 0 -160 46q-57 46 -57 134z" />
    <glyph glyph-name="ampersand" unicode="&#x26;" horiz-adv-x="1193" 
d="M221 133q0 -47 28 -78t99 -30q162 0 258 172l-209 479q-104 -14 -125 -160l-41 -268q-10 -68 -10 -115zM883 0q-117 0 -167 32t-89 120q-115 -168 -295 -168q-291 0 -291 245q0 51 14 123l17 76q31 143 103 201q73 57 210 73l-33 74q-49 110 -49 182t14 140l11 49
q51 242 356 242q233 0 268 -183h4l39 183h37l-90 -424h-190l39 188q18 104 18 109q-1 96 -99 96t-135 -39t-47 -121l-12 -94q-6 -44 -6 -104t39 -150l196 -449l162 287q57 102 95 134t106 32h25l-50 -229h-77q-49 1 -80 -19t-62 -74l-98 -178l92 -217q26 -63 56 -85t102 -21
h33l-7 -31h-159z" />
    <glyph glyph-name="quotesingle" unicode="'" horiz-adv-x="579" 
d="M504 1323q0 -39 -20 -85t-78 -141q-57 -95 -97 -171l-16 -74h-31l17 74l4 291q4 197 129 196q92 0 92 -90z" />
    <glyph glyph-name="parenleft" unicode="(" horiz-adv-x="727" 
d="M137 317q0 257 95 557q79 242 201 390q65 78 159 130t199 54l-7 -37q-223 -4 -290 -315l-203 -897q-20 -78 -21 -144q0 -176 179 -219l-9 -37q-303 66 -303 518z" />
    <glyph glyph-name="parenright" unicode=")" horiz-adv-x="727" 
d="M590 930q0 -158 -36 -325t-81 -288t-117 -243t-180 -198q-108 -75 -239 -77l6 37q223 6 290 316l203 897q20 78 21 143q0 176 -178 219l8 37q303 -66 303 -518z" />
    <glyph glyph-name="asterisk" unicode="*" horiz-adv-x="1087" 
d="M635 1511q88 1 88 -87q0 -42 -74 -152l-92 -131l-12 -35l37 6l139 59q106 45 147 47t64 -21q22 -22 22 -44t-4 -51q-23 -68 -114 -68q-27 0 -125 21l-129 28h-39l14 -32l88 -111q25 -25 51 -68t27 -80q0 -38 -33 -69t-76 -31q-88 0 -88 170q0 127 4 178l-10 33l-26 -26
l-88 -129q-72 -104 -105 -124t-61 -20t-58 31q-29 31 -17 82q3 12 11 22q8 9 14 19t20 19t22 15t26 13q18 8 24 11t25 11q20 8 23 11l145 61l33 21l-33 16l-143 29q-170 33 -170 112q0 41 31 73t65 32t65 -20q30 -20 43 -36t40 -51l86 -112l28 -23l10 37q-4 33 -4 164
q0 201 109 200z" />
    <glyph glyph-name="plus" unicode="+" horiz-adv-x="643" 
d="M342 602v-233h-43v233h-233v43h233v236h43v-236h236v-43h-236z" />
    <glyph glyph-name="comma" unicode="," horiz-adv-x="516" 
d="M315 82q0 -123 -91 -213t-214 -90l4 31q100 0 165 72t77 173h-4q-20 -59 -86 -59q-41 0 -67 24q-25 24 -25 71q0 46 37 83t89 37t84 -38t31 -91z" />
    <glyph glyph-name="hyphen" unicode="-" horiz-adv-x="657" 
d="M524 707l-18 -84h-383l18 84h383z" />
    <glyph glyph-name="period" unicode="." horiz-adv-x="540" 
d="M199 211q51 1 79 -27t29 -79q0 -51 -39 -87t-90 -34q-51 0 -78 30q-26 30 -26 78q0 47 37 83t88 36z" />
    <glyph glyph-name="slash" unicode="/" horiz-adv-x="348" 
d="M350 1454h47l-432 -1659h-47z" />
    <glyph glyph-name="zero" unicode="0" horiz-adv-x="1024" 
d="M397 -16q-166 0 -256 72t-90 216q0 55 19 140l131 618q76 358 424 358t348 -288q-1 -43 -15 -119l-135 -641q-74 -356 -426 -356zM776 1231q0 127 -131 127q-174 0 -213 -213l-172 -909q-12 -70 -12 -95q0 -127 131 -127q97 0 145 56t68 155l172 912q12 70 12 94z" />
    <glyph glyph-name="one" unicode="1" horiz-adv-x="684" 
d="M311 1188q98 0 154 50q55 50 84 159h49l-289 -1366h121l-6 -31h-440l6 31h123l225 1126h-123l8 31h88z" />
    <glyph glyph-name="two" unicode="2" horiz-adv-x="1034" 
d="M637 1358q-84 0 -126 -46t-60 -138l-66 -318h-205l47 234q59 299 381 299q344 0 344 -275q0 -53 -14 -117l-10 -47q-27 -126 -105 -200t-254 -148l-227 -96q-133 -55 -188 -99t-76 -135l-15 -65h689l53 248h37l-97 -455h-765l49 242q23 106 72 165q50 58 194 156l229 156
q98 66 139 125q40 59 64 170l27 121q10 49 14 108q0 115 -131 115z" />
    <glyph glyph-name="three" unicode="3" horiz-adv-x="1011" 
d="M840 502q0 -45 -13 -101l-14 -63q-41 -184 -149 -269t-295 -85q-324 0 -324 264q0 61 16 129l21 90h215l-35 -164q-29 -139 -29 -170q0 -119 127 -119q102 0 154 56t70 163l43 250q10 76 10 90q0 147 -160 148h-112l6 31h112q188 0 228 213l34 188q11 55 11 101t-28 75
t-95 29q-152 0 -191 -176l-49 -236h-182l35 156q63 287 360 287q336 0 336 -265q0 -65 -12 -110l-8 -31q-29 -125 -102 -178t-214 -64l-2 -4q236 -37 236 -235z" />
    <glyph glyph-name="four" unicode="4" horiz-adv-x="1032" 
d="M895 643l-102 -479h-37l43 196h-142l-71 -329h108l-6 -31h-444l6 31h127l76 329h-449l2 19l602 993h264l-200 -934h143l43 205h37zM98 438h371l203 903h-29z" />
    <glyph glyph-name="five" unicode="5" horiz-adv-x="1003" 
d="M551 877q147 0 227 -65t80 -189q0 -49 -12 -105l-39 -186q-74 -348 -438 -348q-152 0 -234 66t-82 194q0 76 19 145l16 70h213l-33 -154q-35 -150 -32 -174q0 -117 124 -117q98 0 148 54t70 159l65 348q12 66 12 97q0 156 -157 155q-117 0 -203 -81t-100 -148h-39
l163 774h639l-84 -409h-36l43 208h-559l-101 -458h4q131 164 326 164z" />
    <glyph glyph-name="six" unicode="6" horiz-adv-x="1021" 
d="M394 -16q-166 0 -255 72q-90 72 -90 212q0 45 14 117l138 645q76 358 432 359q141 -1 218 -63t77 -183q0 -49 -17 -135l-12 -58h-209l31 140q27 115 27 161q0 106 -115 107q-178 0 -215 -213l-82 -461h4q98 133 258 133q258 0 258 -221q0 -51 -16 -123l-31 -145
q-37 -170 -143 -257t-272 -87zM535 754q-91 0 -149 -60t-73 -145l-59 -332q-8 -49 -8 -72q0 -131 131 -131q176 0 213 205l45 258q23 135 22 156q0 121 -122 121z" />
    <glyph glyph-name="seven" unicode="7" horiz-adv-x="856" 
d="M946 1372l-4 -18l-639 -1323h125l-6 -31h-447l7 31h112l594 903l111 231h-580l-57 -264h-37l102 471h719z" />
    <glyph glyph-name="eight" unicode="8" horiz-adv-x="1030" 
d="M635 1389q153 0 239 -65t87 -198q0 -49 -11 -106l-8 -45q-45 -242 -313 -254v-4q223 -39 223 -236q0 -47 -10 -104l-15 -70q-68 -324 -426 -323q-164 0 -260 66t-96 206q0 55 12 113l13 59q57 279 350 289v4q-201 35 -201 217q0 45 14 111l11 49q59 291 391 291zM653 575
q0 129 -137 130q-186 0 -217 -203l-45 -283q-6 -39 -6 -74q0 -131 137 -131q184 0 217 203l37 236q14 86 14 122zM772 1239q0 119 -125 119q-164 0 -194 -189l-41 -239q-8 -45 -9 -76q0 -119 127 -119q166 1 197 185l33 200q12 66 12 119z" />
    <glyph glyph-name="nine" unicode="9" horiz-adv-x="1019" 
d="M390 -16q-324 0 -322 249q0 47 12 103l22 102h215l-28 -131q-33 -152 -33 -184q0 -109 119 -109q180 0 223 219l90 476h-4q-49 -68 -121 -103t-143 -35q-132 -1 -192 55t-60 165q0 51 16 127l27 124q76 346 414 347q166 0 255 -73t89 -214q-1 -56 -13 -117l-135 -631
q-39 -180 -155 -275t-276 -95zM780 1227q0 131 -133 131q-96 0 -144 -54t-67 -153l-61 -315q-8 -49 -8 -92q1 -43 25 -76t100 -33t139 58q64 58 80 138l61 322q8 53 8 74z" />
    <glyph glyph-name="colon" unicode=":" horiz-adv-x="546" 
d="M387 811q0 -51 -39 -87t-90 -36t-78 31q-26 31 -26 78t36 83t88 36t80 -28q28 -26 29 -77zM133 211q51 1 81 -27t30 -79t-39 -87t-91 -34q-52 0 -78 30t-26 77q0 48 36 84t87 36z" />
    <glyph glyph-name="semicolon" unicode=";" horiz-adv-x="518" 
d="M393 811q0 -49 -37 -86t-87 -37t-79 28q-28 28 -28 78t36 86t86 36t80 -28q29 -28 29 -77zM252 82q0 -123 -91 -213t-214 -90l4 31q100 0 165 72t77 173h-5q-20 -59 -86 -59q-40 0 -66 24t-26 71q0 46 37 83t89 37t84 -38t32 -91z" />
    <glyph glyph-name="less" unicode="&#x3c;" horiz-adv-x="632" 
d="M121 627v-4l446 -140v-45l-514 162v47l514 162v-45z" />
    <glyph glyph-name="equal" unicode="=" horiz-adv-x="645" 
d="M580 727v-43h-514v43h514zM580 563v-43h-514v43h514z" />
    <glyph glyph-name="greater" unicode="&#x3e;" horiz-adv-x="632" 
d="M512 623v4l-446 137v45l514 -162v-47l-514 -162v45z" />
    <glyph glyph-name="question" unicode="?" horiz-adv-x="946" 
d="M252 201q48 0 76 -27t28 -75t-37 -82q-37 -33 -87 -33t-74 28t-23 74q0 47 34 81t83 34zM727 1264q0 94 -104 94q-125 0 -150 -129l-63 -303h-183l41 204q51 258 334 259q131 1 215 -61t84 -183q0 -45 -8 -84l-12 -53q-27 -121 -81 -188t-196 -152l-203 -123
q-68 -41 -84 -125l-20 -101h-37l37 170q25 113 48 149q24 36 140 142l60 56q77 72 103 114t44 133l25 117q10 57 10 64z" />
    <glyph glyph-name="at" unicode="@" horiz-adv-x="1675" 
d="M1567 782q0 -362 -159 -556q-87 -105 -212 -105q-180 0 -199 149h-4q-84 -152 -268 -151q-117 0 -179 60t-63 173q0 45 9 107l40 383q35 328 359 327q153 1 239 -73t87 -222q1 -12 -3 -38t-7 -62q-3 -35 -5 -53l-39 -365q-12 -96 -12 -127q0 -71 80 -71q79 0 149 96
q136 187 136 520q0 266 -152 423t-406 157t-434 -119t-269 -307t-89 -414q0 -311 177 -489t482 -179q254 0 478 109l-7 -39q-217 -104 -475 -104q-324 0 -514 187t-190 520t207 592q100 126 261 202t357 76q291 1 458 -165t167 -442zM793 182q78 0 134 58t60 127l39 501
l8 125q0 145 -137 146q-158 0 -172 -191l-41 -518q-8 -74 -6 -94q0 -154 115 -154z" />
    <glyph glyph-name="A" unicode="A" horiz-adv-x="968" 
d="M350 1341l8 31h525l-9 -31h-112l-57 -1310h90l-7 -31h-421l6 31h106l25 481h-299l-180 -481h106l-6 -31h-254l6 31h90l500 1310h-117zM508 559l39 782h-29l-295 -782h285z" />
    <glyph glyph-name="B" unicode="B" horiz-adv-x="1118" 
d="M715 1372q141 0 220 -58t79 -177q0 -45 -13 -101l-20 -90q-55 -238 -287 -237v-4q112 -7 178 -61t66 -157q0 -31 -8 -79l-21 -97q-66 -311 -385 -311h-563l6 31h103l276 1310h-102l8 31h463zM725 553q0 133 -152 133h-143l-139 -655h190q76 0 116 40t58 122l62 292
q8 35 8 68zM686 1341h-119l-131 -624h158q72 1 110 37t54 116l53 256l12 86q0 129 -137 129z" />
    <glyph glyph-name="C" unicode="C" horiz-adv-x="1019" 
d="M444 -16q-178 0 -276 80t-98 239q0 57 20 148l123 569q78 369 440 369q125 -1 213 -53t105 -167h4l45 220h41l-113 -525h-219l39 174q37 172 37 207q0 113 -125 113q-182 0 -221 -217l-160 -844q-10 -57 -10 -100q0 -168 174 -168q153 0 233 82t117 243l35 158h45
l-35 -160q-41 -184 -139 -276q-97 -92 -275 -92z" />
    <glyph glyph-name="D" unicode="D" horiz-adv-x="1122" 
d="M494 0h-537l6 31h103l276 1310h-102l8 31h428q182 0 286 -80t105 -235q0 -49 -14 -121l-125 -588q-74 -348 -434 -348zM868 1194q0 147 -159 147h-146l-276 -1310h168q176 -1 219 202l182 859q12 55 12 102z" />
    <glyph glyph-name="E" unicode="E" horiz-adv-x="1001" 
d="M870 385l-82 -385h-827l6 31h103l276 1310h-102l8 31h772l-70 -328h-41l56 256h-410l-119 -563h312l41 193h41l-95 -441h-41l41 193h-309l-131 -610h465l65 313h41z" />
    <glyph glyph-name="F" unicode="F" horiz-adv-x="901" 
d="M997 1372l-71 -336h-41l55 267h-393l-119 -566h303l41 191h41l-102 -477h-41l51 231h-305l-137 -651h141l-6 -31h-465l6 31h102l277 1310h-103l9 31h757z" />
    <glyph glyph-name="G" unicode="G" horiz-adv-x="1075" 
d="M432 -16q-373 0 -373 313q0 55 21 145l119 564q82 383 454 383q125 -1 217 -53t109 -167h4l47 220h41l-104 -492h-222l33 156q31 145 31 182q0 123 -131 123q-106 0 -160 -60t-74 -170l-159 -843q-16 -90 -17 -123q0 -147 154 -148q92 0 139 52t70 153l86 399h-160l10 48
h367l-146 -682h-40l47 219h-4q-53 -103 -149 -161t-210 -58z" />
    <glyph glyph-name="H" unicode="H" horiz-adv-x="1165" 
d="M915 31l-8 -31h-415l8 31h92l139 655h-305l-139 -655h92l-8 -31h-414l6 31h103l276 1310h-102l8 31h416l-9 -31h-92l-127 -608h305l127 608h-92l8 31h416l-8 -31h-102l-277 -1310h102z" />
    <glyph glyph-name="I" unicode="I" horiz-adv-x="630" 
d="M373 31l-6 -31h-426l6 31h102l277 1310h-103l8 31h426l-8 -31h-102l-277 -1310h103z" />
    <glyph glyph-name="J" unicode="J" horiz-adv-x="897" 
d="M278 -16q-287 0 -286 221h-4l-45 -221h-41l125 585h206l-75 -348q-14 -61 -15 -98q0 -109 115 -109t143 144l250 1183h-127l8 31h451l-8 -31h-103l-217 -1032q-35 -157 -135 -241t-242 -84z" />
    <glyph glyph-name="K" unicode="K" horiz-adv-x="1110" 
d="M575 121q0 31 31 176l35 160q25 111 25 153q0 125 -154 125h-63l-148 -704h111l-6 -31h-435l6 31h103l276 1310h-102l8 31h438l-6 -31h-116l-121 -575h37l450 575h-121l8 31h295l-8 -31h-114l-455 -575h29q293 0 292 -217q0 -39 -14 -111l-47 -227q-27 -117 -25 -137
q0 -47 52 -47q72 0 98 118l53 248h41l-53 -248q-21 -96 -65 -129t-132 -32q-203 0 -203 137z" />
    <glyph glyph-name="L" unicode="L" horiz-adv-x="909" 
d="M793 426l-91 -426h-753l6 31h102l277 1310h-103l9 31h465l-9 -31h-141l-268 -1269h391l74 354h41z" />
    <glyph glyph-name="M" unicode="M" horiz-adv-x="1368" 
d="M227 1372h494l-8 -31h-113l-84 -1310h29l469 1310h-113l8 31h502l-8 -31h-94l-277 -1310h94l-6 -31h-426l6 31h117l277 1310h-29l-479 -1341h-281l86 1341h-29l-276 -1310h117l-6 -31h-260l6 31h94l276 1310h-94z" />
    <glyph glyph-name="N" unicode="N" horiz-adv-x="1101" 
d="M1157 1341h-92l-285 -1341h-291l-106 1341h-29l-276 -1310h117l-9 -31h-260l8 31h95l276 1310h-94l6 31h387l107 -1341h28l277 1310h-117l6 31h260z" />
    <glyph glyph-name="O" unicode="O" horiz-adv-x="1081" 
d="M672 1358q-182 0 -226 -225l-159 -836q-20 -111 -21 -147q0 -135 142 -136q182 1 225 226l160 831q18 109 20 152q0 135 -141 135zM659 1389q169 0 265 -78t96 -228q0 -66 -14 -125l-127 -596q-80 -379 -457 -378q-170 0 -265 76t-96 229q0 70 13 123l127 596
q80 381 458 381z" />
    <glyph glyph-name="P" unicode="P" horiz-adv-x="1019" 
d="M567 410h-205l-79 -379h141l-6 -31h-465l6 31h102l277 1310h-102l8 31h434q344 0 344 -274q0 -52 -12 -113l-54 -262q-63 -313 -389 -313zM662 1341h-103l-190 -901h161q74 0 113 38t57 122l107 506q6 29 12 90q0 145 -157 145z" />
    <glyph glyph-name="Q" unicode="Q" horiz-adv-x="1079" 
d="M281 -141q0 62 18 143q-238 45 -238 289q0 70 23 168l117 549q82 381 452 381q177 0 271 -76t94 -228q0 -61 -12 -127l-127 -591q-74 -350 -402 -375l-14 -70q-23 -113 -23 -133q0 -80 43 -112t160 -31h25l-13 -31h-18q-178 0 -267 54t-89 190zM813 1221q0 137 -141 137
q-182 0 -226 -225l-161 -850q-18 -88 -19 -133q0 -135 142 -136q182 1 225 226l160 831q20 117 20 150z" />
    <glyph glyph-name="R" unicode="R" horiz-adv-x="1159" 
d="M696 553q0 133 -157 133h-103l-139 -655h115l-6 -31h-439l6 31h103l276 1310h-102l8 31h430q309 0 309 -248q-6 -74 -10 -98l-12 -61q-51 -244 -307 -256v-4q238 -10 237 -201q0 -31 -14 -107l-45 -209q-23 -98 -23 -116q0 -45 41 -45q67 -1 92 110l52 240h41l-52 -240
q-20 -92 -64 -123t-128 -30q-190 0 -191 125q0 37 21 127l37 170q2 12 13 68t11 79zM559 717q150 0 182 160l47 221q16 76 17 110q0 133 -141 133h-91l-131 -624h117z" />
    <glyph glyph-name="S" unicode="S" horiz-adv-x="1050" 
d="M258 137q0 -123 141 -123q100 0 151 49q50 49 71 148l16 74q8 31 8 71q0 90 -76 154l-211 178q-123 102 -122 246q0 41 12 92l14 66q66 297 374 297t325 -240h4l51 240h39l-103 -482h-215l35 160q31 135 31 181t-29 78t-106 32q-170 0 -207 -184l-12 -60q-8 -45 -9 -61
q0 -82 78 -148l213 -184q131 -115 131 -266q0 -45 -14 -117l-8 -39q-66 -315 -398 -315t-346 256h-4l-55 -256h-37l106 497h220l-37 -172q-31 -133 -31 -172z" />
    <glyph glyph-name="T" unicode="T" horiz-adv-x="917" 
d="M997 1372l-86 -395h-41l70 323h-233l-269 -1269h117l-6 -31h-455l6 31h117l268 1269h-241l-70 -323h-41l84 395h780z" />
    <glyph glyph-name="U" unicode="U" horiz-adv-x="1007" 
d="M94 274q0 63 23 164l192 903h-102l6 31h438l-6 -31h-115l-217 -1017q-27 -127 -24 -156q0 -154 166 -154q125 0 188 70t92 205l226 1052h-138l6 31h281l-8 -31h-90l-226 -1052q-36 -164 -112 -235q-76 -70 -236 -70t-252 72t-92 218z" />
    <glyph glyph-name="V" unicode="V" horiz-adv-x="884" 
d="M1038 1372l-6 -31h-90l-496 -1341h-292l106 1341h-90l6 31h426l-6 -31h-107l-112 -1310h29l479 1310h-107l6 31h254z" />
    <glyph glyph-name="W" unicode="W" horiz-adv-x="1386" 
d="M1528 1372l-6 -31h-90l-478 -1341h-280l80 872h-4l-318 -872h-278l131 1341h-90l6 31h391l-6 -31h-84l-137 -1310h28l377 1042l23 268h-80l6 31h418l-9 -31h-118l-125 -1310h28l463 1310h-119l7 31h264z" />
    <glyph glyph-name="X" unicode="X" horiz-adv-x="874" 
d="M967 1341h-90l-310 -684l56 -626h90l-6 -31h-414l6 31h102l-49 674h-4l-305 -674h102l-6 -31h-248l7 31h90l342 741l-56 569h-90l9 31h413l-8 -31h-102l49 -616h4l272 616h-102l8 31h248z" />
    <glyph glyph-name="Y" unicode="Y" horiz-adv-x="833" 
d="M995 1372l-6 -31h-90l-377 -784l-110 -526h102l-6 -31h-426l6 31h102l111 526l-53 784h-90l6 31h422l-6 -31h-107l37 -698h4l330 698h-107l6 31h252z" />
    <glyph glyph-name="Z" unicode="Z" horiz-adv-x="802" 
d="M662 434l-93 -434h-641l2 18l658 1285h-307l-64 -308h-41l80 377h592l-4 -18l-658 -1284h357l78 364h41z" />
    <glyph glyph-name="bracketleft" unicode="[" horiz-adv-x="628" 
d="M334 -154l-6 -30h-308l345 1618h307l-8 -31h-150l-330 -1557h150z" />
    <glyph glyph-name="backslash" unicode="\" horiz-adv-x="428" 
d="M150 1454h126v-1659h-126v1659z" />
    <glyph glyph-name="bracketright" unicode="]" horiz-adv-x="628" 
d="M293 1403l8 31h307l-344 -1618h-307l6 30h150l329 1557h-149z" />
    <glyph glyph-name="asciicircum" unicode="^" horiz-adv-x="1001" 
d="M604 1372l242 -815h-43l-232 784h-16l-231 -784h-177l248 815h209z" />
    <glyph glyph-name="underscore" unicode="_" horiz-adv-x="751" 
d="M698 -111l-12 -55h-635l10 55h637z" />
    <glyph glyph-name="grave" unicode="`" horiz-adv-x="960" 
d="M797 1223l-353 149l45 98l320 -231z" />
    <glyph glyph-name="a" unicode="a" horiz-adv-x="1069" 
d="M817 27q72 0 105 153l43 205h36l-43 -205q-22 -108 -64 -152t-130 -44t-127 22t-39 76q0 53 47 268l158 746h-29l-199 -668q-75 -248 -139 -346t-180 -98q-182 0 -182 145q0 33 55 320l68 362q33 178 110 255q78 77 206 77t214 -86l47 143h230l-158 -811
q-10 -49 -36 -166t-27 -149q-1 -31 7 -39t27 -8zM578 1096q-64 0 -99 -44t-55 -130l-125 -539q-53 -236 -53 -268q0 -66 69 -66q61 0 111 90t111 289l180 598q-75 70 -139 70z" />
    <glyph glyph-name="b" unicode="b" horiz-adv-x="1034" 
d="M788 1143q182 0 183 -146q0 -63 -37 -247l-80 -381q-41 -197 -115 -291t-229 -94q-90 0 -194 47t-149 47q-44 0 -65 -34q-8 -13 -20 -44h-33l293 1464h-94l8 31h289l-295 -1397l29 -16l192 625q89 290 156 363q66 73 161 73zM448 27q58 -1 86 21q54 42 101 239l110 456
q51 209 51 272t-66 63q-67 0 -113 -87q-46 -86 -107 -284l-199 -641q79 -39 137 -39z" />
    <glyph glyph-name="c" unicode="c" horiz-adv-x="897" 
d="M590 1112q-156 0 -193 -190l-121 -650q-14 -72 -14 -125t35 -88t119 -34q231 0 289 270l22 106h41l-23 -104q-33 -156 -117 -235q-84 -78 -236 -78q-154 0 -238 68t-84 200q0 47 12 104l98 461q70 326 385 326q233 0 273 -174h4l37 174h39l-99 -467h-184l27 125
q35 156 36 207q0 104 -108 104z" />
    <glyph glyph-name="d" unicode="d" horiz-adv-x="1062" 
d="M823 27q72 0 105 153l43 205h37l-43 -205q-23 -108 -65 -152t-131 -44t-128 22t-39 75q0 52 47 269l144 672l-25 18l-188 -614q-74 -242 -136 -342t-184 -100q-182 0 -182 145q0 51 53 313l72 369q35 176 111 254t224 78t261 -88l88 409h-111l6 31h291l-223 -1116
q-62 -297 -62 -317t8 -27q8 -8 27 -8zM592 1098q-72 0 -107 -45t-55 -129l-127 -541q-53 -217 -51 -268q0 -66 66 -66t114 90t109 287l196 631q-73 41 -145 41z" />
    <glyph glyph-name="e" unicode="e" horiz-adv-x="948" 
d="M575 1143q143 1 227 -61t85 -183q0 -47 -19 -123q-39 -156 -129 -224t-252 -112l-184 -49l-12 -69q-23 -135 -23 -160q0 -70 35 -104t123 -33q256 0 313 294l17 82h41l-17 -79q-35 -176 -126 -257t-251 -81q-329 0 -329 266q0 49 12 106l98 465q67 322 391 322zM590 1112
q-154 0 -187 -182l-92 -502l117 31q113 29 162 77t69 164l33 189q14 96 15 106q0 117 -117 117z" />
    <glyph glyph-name="f" unicode="f" horiz-adv-x="608" 
d="M877 1335q0 -31 -7 -61l-8 -37h-164l15 76q12 61 12 84q0 84 -84 84q-61 0 -91 -32t-46 -112l-41 -211h274l-8 -39h-272l-269 -1425h127l-6 -31h-403l6 31h94l252 1425h-125l6 39h125l15 76q31 162 118 236q88 74 242 73q238 0 238 -176z" />
    <glyph glyph-name="g" unicode="g" horiz-adv-x="974" 
d="M344 -385q-338 0 -338 268q0 35 12 103l9 47h200l-26 -121q-25 -109 -25 -156q0 -113 139 -112q176 0 224 227l260 1225h-29l-178 -539q-102 -308 -167 -377t-163 -67q-188 0 -188 153q0 37 45 283l43 250q31 178 109 261q79 83 217 83t233 -86l47 143h231l-251 -1255
q-66 -330 -404 -330zM561 1096q-137 0 -174 -181l-96 -436q-43 -188 -43 -226t15 -56t61 -19q68 0 114 88t115 291l158 469q-74 70 -150 70z" />
    <glyph glyph-name="h" unicode="h" horiz-adv-x="1089" 
d="M772 1143q168 0 168 -148q0 -29 -39 -239l-67 -344q-66 -332 -66 -350t7 -27q7 -8 28 -8q72 0 102 141l45 213h37l-45 -213q-24 -100 -64 -142t-127 -42t-129 22t-42 76q0 53 63 342l84 385q35 156 35 203q0 66 -53 65q-55 0 -97 -83t-96 -257l-225 -737h-242l293 1464
h-94l8 31h289l-309 -1464h28l213 706q72 238 130 322t165 84z" />
    <glyph glyph-name="i" unicode="i" horiz-adv-x="612" 
d="M446 1493q97 1 97 -97q0 -46 -33 -79t-81 -33t-74 26q-25 26 -25 72t34 78q34 33 82 33zM272 -16q-96 0 -139 26t-43 88q0 31 60 308l145 690h-94l8 30h274l-151 -766q-56 -276 -56 -294q-1 -40 48 -39q88 0 127 178l41 192h36l-41 -192q-27 -123 -73 -172t-142 -49z" />
    <glyph glyph-name="j" unicode="j" horiz-adv-x="577" 
d="M-88 -369h-64l7 31h24q70 0 107 37t53 123l256 1274h-94l6 30h291l-252 -1192q-35 -166 -106 -234t-228 -69zM461 1493q96 0 96 -97q0 -46 -33 -79t-82 -33q-50 0 -74 26t-24 72t34 78q34 33 83 33z" />
    <glyph glyph-name="k" unicode="k" horiz-adv-x="1052" 
d="M765 -16q-87 0 -130 22t-43 79q0 56 35 200l24 106q35 162 35 174q0 51 -34 78t-91 27h-37l-205 -670h-241l293 1464h-95l7 31h290l-309 -1464h29l223 739q62 203 124 288t164 85t147 -35q46 -35 46 -94q0 -31 -12 -82q-27 -106 -87 -150t-222 -75l-76 -15l-2 -4h12
q258 0 258 -139q0 -49 -32 -195l-21 -94q-35 -162 -35 -194q0 -39 39 -39q74 0 105 141l45 213h37l-45 -213q-23 -100 -66 -142t-130 -42zM760 1077q-59 0 -108 -70q-48 -71 -97 -237l-23 -76l103 29q77 20 109 57q32 38 54 130t21 112q0 55 -59 55z" />
    <glyph glyph-name="l" unicode="l" horiz-adv-x="606" 
d="M266 -16q-182 0 -182 101q0 50 53 298l228 1081h-95l9 31h274l-229 -1137q-55 -270 -56 -288q0 -43 47 -43q88 0 129 178l43 192h37l-43 -192q-29 -127 -73 -174q-46 -47 -142 -47z" />
    <glyph glyph-name="m" unicode="m" horiz-adv-x="1572" 
d="M776 1143q162 0 162 -137q0 -61 -39 -244l-154 -731h29l219 737q66 221 123 298t154 77q166 0 166 -146q0 -39 -41 -243l-68 -346q-66 -342 -65 -345q0 -37 36 -36q72 0 103 141l45 213h37l-45 -213q-23 -100 -65 -142t-129 -42t-129 22t-42 76q1 53 29 175t37 165
l82 383q37 176 36 213q0 59 -51 59q-82 0 -174 -309l-229 -768h-250l168 782q41 190 41 242t-49 53q-43 -1 -82 -69t-92 -240l-236 -768h-242l218 1096h-95l9 30h288l-233 -1095h28l224 737q68 221 125 298t151 77z" />
    <glyph glyph-name="n" unicode="n" horiz-adv-x="1085" 
d="M763 -16q-171 0 -171 95q0 50 65 343l84 383q35 156 35 214t-54 58t-97 -84t-97 -258l-223 -735h-244l218 1096h-95l9 30h288l-233 -1095h28l213 704q71 240 131 324t164 84q168 0 168 -148q0 -29 -39 -239l-67 -348q-66 -342 -66 -345q0 -37 37 -36q70 0 101 141l45 213
h36l-45 -213q-24 -100 -64 -142t-127 -42z" />
    <glyph glyph-name="o" unicode="o" horiz-adv-x="960" 
d="M568 1143q326 0 327 -262q0 -53 -12 -111l-97 -448q-35 -166 -138 -252t-263 -86q-319 0 -319 262q0 49 12 110l94 447q70 340 396 340zM574 1112q-78 0 -121 -52t-62 -145l-127 -688q-14 -86 -14 -94q0 -59 28 -89t95 -30q157 0 194 195l123 661q16 82 16 132t-26 80
q-28 30 -106 30z" />
    <glyph glyph-name="p" unicode="p" horiz-adv-x="1095" 
d="M819 1143q184 0 185 -146q0 -31 -54 -313l-71 -371q-35 -176 -113 -253q-78 -76 -227 -76t-256 88l-86 -410h127l-7 -31h-399l6 31h90l289 1434h-94l8 30h289l-217 -1022l24 -20l189 610q94 310 159 380q65 69 158 69zM829 1006q0 72 -69 71q-72 0 -119 -101
q-37 -76 -100 -282l-197 -626q72 -39 144 -39t108 45q37 45 55 127l127 538q51 217 51 267z" />
    <glyph glyph-name="q" unicode="q" horiz-adv-x="1005" 
d="M244 -16q-184 0 -185 145q0 59 39 246l78 381q41 199 114 293t228 94q94 0 200 -54t147 -55q42 -1 65 42q6 13 20 50h33l-295 -1464h94l-6 -31h-399l6 31h111l286 1356l-28 16l-189 -606q-76 -240 -139 -342t-180 -102zM719 1051q-94 47 -152 47t-95 -46t-51 -101
q-13 -56 -26 -113l-108 -455q-53 -217 -54 -268q1 -66 67 -66t115 92q48 92 109 287z" />
    <glyph glyph-name="r" unicode="r" horiz-adv-x="919" 
d="M737 1035q0 42 -38 42q-39 1 -77 -71t-98 -271l-225 -735h-242l217 1096h-94l8 30h289l-233 -1095h28l213 704q99 331 180 382q41 26 109 26t105 -35t37 -87t-25 -196l-31 -172h-201l41 181q37 159 37 201z" />
    <glyph glyph-name="s" unicode="s" horiz-adv-x="843" 
d="M543 1112q-141 0 -170 -145l-13 -60q-6 -25 -6 -47q0 -61 66 -121l186 -164q102 -88 103 -210q0 -35 -11 -86l-8 -37q-57 -258 -344 -258q-254 0 -285 196h-4l-41 -196h-36l79 378h183l-17 -77q-31 -139 -30 -164q0 -106 124 -107q143 0 183 160l12 53q8 33 8 68
q-2 68 -67 127l-179 156q-96 86 -96 192q0 27 10 88l7 33q47 252 327 252q233 0 260 -182h4l39 182h39l-78 -363h-176l19 86q25 113 24 146q0 100 -112 100z" />
    <glyph glyph-name="t" unicode="t" horiz-adv-x="686" 
d="M281 94q0 -35 16 -52q17 -17 71 -17q113 0 158 211l47 215h37l-47 -215q-33 -150 -91 -201t-174 -51t-162 28q-44 30 -44 88t17 127l182 860h-94l10 39h69q145 0 207 222h41l-45 -222h260l-8 -39h-260l-147 -743q-43 -215 -43 -250z" />
    <glyph glyph-name="u" unicode="u" horiz-adv-x="1046" 
d="M765 -16q-87 0 -130 22t-43 71q0 48 28 170t39 175l142 674h-29l-211 -709q-70 -235 -130 -319t-163 -84q-166 0 -166 145q0 31 43 246l142 721h-92l6 30h288l-163 -772q-45 -211 -45 -235q0 -70 52 -70t94 82t95 256l223 739h244l-143 -718q-64 -310 -64 -346t35 -35
q72 0 103 141l45 213h36l-45 -213q-24 -100 -64 -142t-127 -42z" />
    <glyph glyph-name="v" unicode="v" horiz-adv-x="878" 
d="M106 328q0 104 27 250l90 518h-98l6 30h297l-98 -548q-31 -164 -31 -250q0 -233 147 -297h17l256 563q57 123 59 190q0 166 -223 166l43 217q111 0 194 -59q82 -59 82 -174t-104 -340l-274 -594h-236q-154 89 -154 328z" />
    <glyph glyph-name="w" unicode="w" horiz-adv-x="1363" 
d="M678 305q0 94 20 248l74 543h-29l-235 -1096h-232q-88 37 -126 124t-37 179q0 92 20 250l74 543h-98l6 30h295l-84 -548q-25 -162 -25 -240q0 -240 156 -307h16l229 1095h273l-84 -548q-25 -162 -25 -240q0 -240 154 -307h16l187 563q45 139 45 201q0 135 -174 135
l45 237q88 0 150 -59t63 -180q0 -76 -24 -153t-58 -181l-199 -594h-229q-88 37 -126 124t-38 181z" />
    <glyph glyph-name="x" unicode="x" horiz-adv-x="864" 
d="M885 1167h41l-52 -247h-65q-59 0 -96 -30t-72 -126l-78 -223l64 -510h98l-6 -31h-295l-53 553h-4l-144 -371q-55 -141 -105 -182t-126 -41h-45l55 254h72q40 0 64 7t55 42t57 100l98 250l-59 484h-99l7 30h292l56 -512h4l115 330q49 141 96 182t125 41z" />
    <glyph glyph-name="y" unicode="y" horiz-adv-x="882" 
d="M332 362q0 -268 157 -331h17l227 563q47 120 47 192t-56 117t-153 47l31 217q115 0 192 -63q76 -63 76 -182t-86 -328l-307 -750q-55 -133 -112 -181t-183 -48q-258 0 -258 207q0 53 17 125l14 61h190l-12 -51q-33 -131 -33 -191t28 -88t98 -26q70 0 117 46q48 46 87 148
l57 154h-184q-166 96 -166 342q0 88 21 236l71 518h-98l4 30h297l-80 -548q-20 -133 -20 -216z" />
    <glyph glyph-name="z" unicode="z" horiz-adv-x="727" 
d="M627 455l-97 -455h-583l2 14l645 918h-377l-51 -248h-37l92 442h563l-2 -14l-649 -922h399l58 265h37z" />
    <glyph glyph-name="braceleft" unicode="{" horiz-adv-x="737" 
d="M375 -201q-166 1 -248 55t-82 150t96 227l115 154q94 131 15 195q-36 29 -93 28h-69l4 31h69q78 0 131 47t54 123q0 25 -9 55l-47 211q-14 57 -14 105q0 270 430 270h49l-6 -31h-45q-97 0 -157 -43t-81 -164l-59 -331q-24 -119 -62 -176t-114 -78v-4q84 -29 84 -129
q0 -47 -21 -136l-77 -323q-12 -57 -13 -74q0 -79 42 -105t128 -26h35l-6 -31h-49z" />
    <glyph glyph-name="bar" unicode="|" horiz-adv-x="436" 
d="M240 1454v-1659h-43v1659h43z" />
    <glyph glyph-name="braceright" unicode="}" horiz-adv-x="737" 
d="M362 1450q166 0 248 -55t82 -153t-96 -226l-115 -152q-53 -70 -53 -118t36 -78t95 -29h70l-6 -31h-70q-78 0 -131 -47t-53 -123q0 -10 22 -108l35 -158q14 -61 14 -104q0 -268 -430 -269h-49l6 31h45q90 0 153 43q62 43 85 162l59 332q23 119 61 176t115 80v4
q-86 27 -86 127q0 55 21 135l80 323q10 41 10 82q0 74 -43 100t-125 25h-37l8 31h49z" />
    <glyph glyph-name="asciitilde" unicode="~" horiz-adv-x="1015" 
d="M840 758v-148q0 -74 -37 -110t-101 -37q-27 0 -112 29l-195 67q-8 3 -48 17t-62 14q-66 0 -66 -74v-53h-43v147q0 147 135 148q35 0 119 -31l184 -65q92 -31 119 -31q62 0 64 74v53h43z" />
    <glyph glyph-name="exclamdown" unicode="&#xa1;" horiz-adv-x="655" 
d="M492 1143q98 -1 98 -97q0 -46 -39 -83t-92 -37q-92 0 -92 96q0 47 36 84q37 37 89 37zM387 4q0 -266 -154 -266q-67 0 -105 31t-38 84t35 145t112 272t130 324l43 201h36l-43 -201l-10 -289q-6 -174 -6 -301z" />
    <glyph glyph-name="cent" unicode="&#xa2;" horiz-adv-x="952" 
d="M283 432q0 -119 88 -139l184 919q-141 -14 -170 -190l-92 -514q-10 -62 -10 -76zM690 1108q0 100 -98 106l-186 -927h24q242 0 299 270l21 94h41l-21 -92q-35 -157 -119 -235t-233 -78h-21l-51 -262h-37l53 264q-130 12 -202 81t-72 189q0 47 12 105l64 292
q70 328 397 330l41 205h37l-41 -207q193 -18 229 -180h4l39 182h37l-96 -454h-178l51 256q6 35 6 61z" />
    <glyph glyph-name="sterling" unicode="&#xa3;" horiz-adv-x="1056" 
d="M803 1266q0 92 -96 92q-143 0 -172 -168l-74 -442h338l-6 -35h-338l-33 -183q-49 -276 -336 -307l-2 -4h690l55 254h37l-100 -473h-791l48 223q69 17 107 63t46 99l57 328h-106l6 35h107l55 317q27 156 128 240t261 84q244 0 268 -199h4l43 199h37l-98 -467h-199l27 120
q37 172 37 224z" />
    <glyph glyph-name="currency" unicode="&#xa4;" horiz-adv-x="1107" 
d="M254 718q0 118 76 200q-12 10 -59 56q-46 46 -54 56l33 33l115 -115q81 62 189 62t187 -62l115 115l35 -33l-113 -112q74 -84 74 -200t-59 -194l98 -100l-35 -35l-98 96q-82 -75 -203 -75t-209 75l-96 -96l-33 35l96 98q-59 78 -59 196zM805 713q0 115 -71 185
q-70 70 -182 69q-112 0 -182 -72q-70 -71 -69 -185q0 -114 70 -186q69 -72 183 -72t182 74q68 72 69 187z" />
    <glyph glyph-name="yen" unicode="&#xa5;" horiz-adv-x="940" 
d="M715 324l-6 -35h-205l-55 -258h98l-6 -31h-406l6 31h99l55 258h-205l6 35h205l23 102h-205l6 35h205l22 102l-47 778h-86l6 31h400l-7 -31h-102l29 -702h4l325 702h-102l6 31h244l-6 -31h-86l-369 -778l-22 -102h204l-6 -35h-205l-22 -102h205z" />
    <glyph glyph-name="brokenbar" unicode="&#xa6;" horiz-adv-x="428" 
d="M236 1454v-723h-43v723h43zM236 567v-772h-43v772h43z" />
    <glyph glyph-name="section" unicode="&#xa7;" horiz-adv-x="1058" 
d="M662 1389q152 0 232 -65t81 -191q0 -63 -10 -107l-13 -51h-196l43 203q10 51 10 73q0 104 -125 105q-90 0 -136 -43t-65 -133l-16 -82q-6 -35 -6 -60q0 -66 53 -98l289 -190q61 -41 90 -85t29 -133q0 -90 -64 -176t-153 -118v-5q68 -55 67 -165q0 -43 -10 -99l-10 -47
q-68 -307 -400 -307t-332 270q0 53 13 113l10 47h205l-47 -209q-10 -51 -11 -78q0 -113 138 -112q92 0 141 47t72 143l16 72q14 57 14 86q0 66 -71 115l-254 172q-66 43 -92 84t-25 133q0 92 61 177t152 120v4q-66 55 -66 155q0 49 11 93l12 55q33 150 122 218t241 69z
M215 612q1 -52 21 -74t69 -51l369 -229q68 20 112 66t45 108q0 60 -90 115l-368 229q-66 -24 -112 -68t-46 -96z" />
    <glyph glyph-name="dieresis" unicode="&#xa8;" horiz-adv-x="960" 
d="M807 1452q80 0 80 -76q0 -42 -28 -70t-68 -28q-86 0 -84 78q1 44 29 70t71 26zM502 1278q-86 0 -84 80q0 40 28 68q28 26 72 26q80 0 80 -76q0 -42 -28 -70t-68 -28z" />
    <glyph glyph-name="copyright" unicode="&#xa9;" horiz-adv-x="1648" 
d="M1501 694q0 -315 -189 -513q-188 -197 -490 -197t-488 196t-186 514t182 506q184 188 492 188t494 -189q186 -190 185 -505zM1452 694q0 299 -171 476q-171 178 -461 178t-456 -174t-167 -476q0 -302 170 -488q171 -185 453 -185t457 185t175 484zM1094 485
q0 -247 -254 -247q-127 0 -202 68t-75 196v375q0 125 66 193t188 67q168 0 211 -125h4v125h31v-336h-129v188q0 121 -98 121q-113 0 -113 -139v-541q0 -80 31 -117q32 -37 116 -37t134 54t51 153v90h39v-88z" />
    <glyph glyph-name="ordfeminine" unicode="&#xaa;" horiz-adv-x="763" 
d="M422 668q0 33 33 188l96 453h-23l-133 -424q-55 -177 -96 -237t-123 -60q-123 0 -123 96q0 39 23 156l43 231q25 131 77 197t158 65q63 0 135 -43l29 78h180l-106 -559q-27 -133 -27 -159t19 -27q47 0 65 90l29 133h33l-29 -133q-16 -72 -45 -99t-90 -26q-125 0 -125 80z
M184 672q0 -44 33 -43q61 0 143 256l121 381q-41 26 -87 26t-68 -32t-37 -95l-68 -293q-37 -156 -37 -200z" />
    <glyph glyph-name="guillemotleft" unicode="&#xab;" horiz-adv-x="823" 
d="M336 199h-31q-41 326 -178 465v4q252 156 358 383h31q-74 -231 -258 -398v-4q78 -141 78 -450zM549 199h-31q-41 326 -178 465v4q252 156 358 383h31q-74 -231 -258 -398v-4q78 -141 78 -450z" />
    <glyph glyph-name="logicalnot" unicode="&#xac;" horiz-adv-x="831" 
d="M528 301v301h-434v43h611v-344h-177z" />
    <glyph glyph-name="registered" unicode="&#xae;" horiz-adv-x="1648" 
d="M1163 338v156h31v-144q0 -63 -27 -88q-27 -24 -93 -24t-102 28q-34 28 -34 94v189q0 104 -100 104h-86v-377h82v-26h-299v26h73v822h-73v26h315q215 0 215 -198v-68q0 -162 -166 -184v-2q186 0 186 -168v-180q1 -35 9 -43t22 -9q47 0 47 66zM813 680q111 0 111 119v188
q0 111 -99 111h-73v-418h61zM820 1389q306 -1 494 -191t187 -504q0 -314 -189 -513q-188 -197 -490 -197t-488 196t-186 515q0 318 182 506q184 188 490 188zM821 18q287 0 462 188t175 488t-173 480t-465 180t-461 -176t-169 -482t172 -492t459 -186z" />
    <glyph glyph-name="macron" unicode="&#xaf;" horiz-adv-x="960" 
d="M874 1335l-10 -53h-448l10 53h448z" />
    <glyph glyph-name="degree" unicode="&#xb0;" horiz-adv-x="747" 
d="M539 1331q1 -80 -53 -129t-131 -49t-128 48t-51 130t52 131t128 49t130 -50t53 -130zM496 1332q0 62 -40 100t-100 38t-98 -38q-39 -38 -39 -100t39 -100t98 -38t100 38q40 38 40 100z" />
    <glyph glyph-name="plusminus" unicode="&#xb1;" horiz-adv-x="643" 
d="M342 602v-172h-43v172h-233v43h233v236h43v-236h236v-43h-236zM578 358v-43h-512v43h512z" />
    <glyph glyph-name="two.superior" unicode="&#xb2;" horiz-adv-x="735" 
d="M532 1395q0 72 -77 71q-90 0 -115 -118l-43 -201h-156l31 149q38 195 270 195t232 -178q0 -55 -19 -123t-71 -113t-172 -94l-150 -61q-84 -35 -124 -65t-52 -81l-8 -35h457l34 160h33l-65 -303h-529l35 158q14 61 51 105t121 100l160 102q57 37 87 79t44 107l16 80
q10 45 10 66z" />
    <glyph glyph-name="three.superior" unicode="&#xb3;" horiz-adv-x="686" 
d="M571 920q0 -33 -10 -70l-8 -33q-31 -121 -103 -175t-202 -54q-223 0 -223 174q0 33 6 65l16 76h164l-25 -108q-20 -82 -20 -107q0 -76 76 -76q113 0 141 144l27 141q8 53 8 72q0 90 -99 90h-83l6 24h84q117 0 141 134l16 90q12 66 13 88q0 72 -72 71q-96 0 -123 -137
l-27 -129h-139l21 103q37 188 260 188t223 -174q0 -27 -10 -74l-4 -22q-13 -74 -59 -106t-138 -42v-4q143 -33 143 -149z" />
    <glyph glyph-name="acute" unicode="&#xb4;" horiz-adv-x="960" 
d="M829 1372l-352 -149l-12 16l319 231z" />
    <glyph glyph-name="mu" unicode="&#xb5;" horiz-adv-x="1062" 
d="M780 63q0 -37 37 -36q70 0 101 141l45 213h36l-45 -213q-24 -100 -64 -142t-127 -42t-129 22t-42 82q0 58 28 174t37 160l142 674h-29l-211 -709q-70 -233 -128 -317t-157 -84q-29 0 -55 6l-33 -330h123l-6 -31h-397l6 31h92l281 1434h-92l6 30h290l-174 -807
q-37 -171 -37 -203t12 -49q11 -17 42 -18q53 0 94 81t94 257l223 739h244l-141 -712q-66 -324 -66 -351z" />
    <glyph glyph-name="paragraph" unicode="&#xb6;" horiz-adv-x="899" 
d="M170 760q0 57 12 119l58 266q76 350 430 350h340l-6 -31h-95l-385 -1802h94l-6 -31h-415l6 31h135l172 803q-164 0 -252 77t-88 218zM381 -338h100l385 1802h-100z" />
    <glyph glyph-name="periodcentered" unicode="&#xb7;" horiz-adv-x="446" 
d="M238 731q56 -1 88 -31t32 -83t-42 -95t-97 -41q-55 0 -86 30t-31 86t40 95t96 39z" />
    <glyph glyph-name="cedilla" unicode="&#xb8;" horiz-adv-x="960" 
d="M201 -279q0 27 8 54h31q-12 -29 -13 -56q0 -80 86 -79q76 0 97 108l8 47q4 29 4 41q0 53 -55 53t-103 -67h-37l39 178h35l-29 -131h4q47 55 125 55q117 0 117 -102q0 -20 -10 -62q-31 -145 -169 -145t-138 106z" />
    <glyph glyph-name="one.superior" unicode="&#xb9;" horiz-adv-x="450" 
d="M182 1362q123 0 150 133h53l-188 -872h75l-4 -25h-305l4 25h82l141 714h-79l6 25h65z" />
    <glyph glyph-name="ordmasculine" unicode="&#xba;" horiz-adv-x="661" 
d="M272 588q-226 0 -227 172q0 41 8 74l62 280q47 219 273 219t226 -172q0 -35 -10 -80l-59 -276q-47 -217 -273 -217zM471 1235q0 74 -72 74q-96 0 -120 -131l-84 -441q-6 -33 -7 -51q0 -74 72 -74q96 0 121 127l80 418q10 47 10 78z" />
    <glyph glyph-name="guillemotright" unicode="&#xbb;" horiz-adv-x="823" 
d="M487 1051h31q41 -326 178 -465v-4q-252 -156 -358 -383h-31q74 231 258 397v4q-78 142 -78 451zM274 1051h31q41 -326 178 -465v-4q-252 -156 -358 -383h-31q74 231 258 397v4q-78 142 -78 451z" />
    <glyph glyph-name="onequarter" unicode="&#xbc;" horiz-adv-x="1064" 
d="M971 416l-68 -312h-33l29 125h-88l-45 -204h76l-6 -25h-314l4 25h84l47 204h-295l3 13l391 641h194l-127 -600h86l29 133h33zM432 283h238l133 575h-21zM182 1210q123 0 150 133h53l-188 -872h75l-4 -25h-305l4 25h82l141 715h-79l6 24h65zM672 1372h47l-512 -1372h-47z
" />
    <glyph glyph-name="onehalf" unicode="&#xbd;" horiz-adv-x="1105" 
d="M903 797q0 72 -78 71q-90 0 -114 -118l-43 -201h-156l31 149q39 195 271 195t230 -178q0 -46 -18 -118q-18 -73 -72 -118q-53 -45 -172 -94l-149 -61q-84 -35 -124 -65t-52 -81l-8 -35h456l35 160h33l-66 -303h-528l35 158q12 59 50 104t122 100l159 103q57 37 88 79
q30 42 44 107l16 80q10 45 10 66zM182 1210q123 0 150 133h53l-188 -872h75l-4 -25h-305l4 25h82l141 715h-79l6 24h65zM672 1372h47l-512 -1372h-47z" />
    <glyph glyph-name="threequarters" unicode="&#xbe;" horiz-adv-x="1280" 
d="M571 805q0 -33 -10 -70l-8 -33q-31 -121 -103 -175t-202 -54q-223 0 -223 174q0 33 6 66l16 75h164l-25 -108q-20 -82 -20 -107q0 -76 76 -75q113 0 141 143l27 141q8 53 8 72q0 90 -99 90h-83l6 25h84q117 0 141 133l16 90q12 66 13 88q0 72 -72 72q-96 0 -123 -138
l-27 -129h-139l21 103q37 188 260 188t223 -174q0 -27 -10 -74l-4 -22q-13 -74 -59 -106t-138 -42v-4q143 -33 143 -149zM1188 416l-68 -312h-33l29 125h-88l-45 -204h76l-6 -25h-314l4 25h84l47 204h-294l2 13l391 641h194l-127 -600h86l29 133h33zM649 283h238l133 575
h-21zM887 1372h47l-512 -1372h-47z" />
    <glyph glyph-name="questiondown" unicode="&#xbf;" horiz-adv-x="946" 
d="M715 1143q96 0 96 -105q0 -47 -34 -80q-34 -32 -83 -32q-104 1 -104 100q0 49 38 83t87 34zM219 -143q0 -88 113 -88t141 127l64 303h182l-41 -203q-53 -258 -334 -258q-131 0 -215 61t-84 183q0 53 10 92l11 43q28 121 82 189t194 151l207 125q63 45 80 125l20 100h37
l-37 -172q-13 -62 -21 -84q-10 -23 -12 -33t-15 -28t-16 -24t-23 -26l-25 -25q-6 -5 -35 -33t-41 -38l-60 -55q-77 -72 -103 -115t-44 -133l-27 -129q-8 -41 -8 -55z" />
    <glyph glyph-name="Agrave" unicode="&#xc0;" horiz-adv-x="968" 
d="M795 1462l-408 82l25 107l393 -170zM350 1341l8 31h525l-9 -31h-112l-57 -1310h90l-7 -31h-421l6 31h106l25 481h-299l-180 -481h106l-6 -31h-254l6 31h90l500 1310h-117zM508 559l39 782h-29l-295 -782h285z" />
    <glyph glyph-name="Aacute" unicode="&#xc1;" horiz-adv-x="968" 
d="M887 1544l-408 -82l-10 19l393 170zM350 1341l8 31h525l-9 -31h-112l-57 -1310h90l-7 -31h-421l6 31h106l25 481h-299l-180 -481h106l-6 -31h-254l6 31h90l500 1310h-117zM508 559l39 782h-29l-295 -782h285z" />
    <glyph glyph-name="Acircumflex" unicode="&#xc2;" horiz-adv-x="968" 
d="M659 1561l-253 -115l-13 16l266 189h25l172 -189l-20 -16q-57 37 -172 115h-5zM350 1341l8 31h525l-9 -31h-112l-57 -1310h90l-7 -31h-421l6 31h106l25 481h-299l-180 -481h106l-6 -31h-254l6 31h90l500 1310h-117zM508 559l39 782h-29l-295 -782h285z" />
    <glyph glyph-name="Atilde" unicode="&#xc3;" horiz-adv-x="968" 
d="M502 1567q-66 0 -90 -64l-11 -24l-24 6l12 33q19 51 61 83q42 31 96 31t103 -33l56 -34q31 -23 67 -23q63 0 88 64l10 24l27 -6l-12 -33q-45 -115 -160 -114q-53 0 -102 32l-54 35q-35 23 -67 23zM350 1341l8 31h525l-9 -31h-112l-57 -1310h90l-7 -31h-421l6 31h106
l25 481h-299l-180 -481h106l-6 -31h-254l6 31h90l500 1310h-117zM508 559l39 782h-29l-295 -782h285z" />
    <glyph glyph-name="Adieresis" unicode="&#xc4;" horiz-adv-x="968" 
d="M813 1647q82 0 82 -78q0 -39 -28 -66q-29 -27 -67 -27t-60 20q-22 19 -22 58t28 66t67 27zM472 1647q82 0 83 -78q0 -39 -28 -66q-29 -27 -67 -27t-60 20q-22 19 -22 58t29 66q27 27 65 27zM350 1341l8 31h525l-9 -31h-112l-57 -1310h90l-7 -31h-421l6 31h106l25 481
h-299l-180 -481h106l-6 -31h-254l6 31h90l500 1310h-117zM508 559l39 782h-29l-295 -782h285z" />
    <glyph glyph-name="Aring" unicode="&#xc5;" horiz-adv-x="968" 
d="M786 1612q0 -66 -47 -112t-112 -46t-106 39q-40 39 -40 105t47 111q46 46 112 46t106 -38q40 -39 40 -105zM719 1669q0 66 -68 66q-43 1 -59 -19t-25 -67l-14 -74q-4 -29 -4 -33q0 -68 65 -67q43 0 60 19q16 20 26 69l15 73q4 29 4 33zM350 1341l8 31h525l-9 -31h-112
l-57 -1310h90l-7 -31h-421l6 31h106l25 481h-299l-180 -481h106l-6 -31h-254l6 31h90l500 1310h-117zM508 559l39 782h-29l-295 -782h285z" />
    <glyph glyph-name="AE" unicode="&#xc6;" horiz-adv-x="1357" 
d="M553 1372h821l-69 -328h-41l55 265h-365l-120 -572h266l41 193h41l-92 -441h-41l38 193h-262l-135 -619h420l70 322h41l-82 -385h-801l6 31h123l92 440h-338l-248 -440h107l-6 -31h-256l6 31h92l748 1310h-117zM571 518l174 823h-28l-469 -823h323z" />
    <glyph glyph-name="Ccedilla" unicode="&#xc7;" horiz-adv-x="1019" 
d="M70 303q0 57 20 148l123 569q78 369 440 369q125 -1 213 -53t105 -167h4l45 220h41l-113 -525h-219l39 174q37 172 37 207q0 113 -125 113q-182 0 -221 -217l-160 -844q-10 -57 -10 -100q0 -168 174 -168q153 0 233 82t117 243l35 158h45l-35 -160q-41 -184 -139 -276
t-273 -92q-55 0 -102 7l-27 -122h5q47 55 124 55q117 0 117 -102q0 -20 -10 -62q-31 -145 -169 -145t-138 106q0 27 8 54h31q-12 -29 -13 -56q0 -80 86 -79q76 0 97 108l8 47q4 29 4 41q0 53 -55 53t-103 -67h-37l39 175q-241 54 -241 306z" />
    <glyph glyph-name="Egrave" unicode="&#xc8;" horiz-adv-x="1001" 
d="M860 1462l-407 82l24 107l393 -170zM870 385l-82 -385h-827l6 31h103l276 1310h-102l8 31h772l-70 -328h-41l56 256h-410l-119 -563h312l41 193h41l-95 -441h-41l41 193h-309l-131 -610h465l65 313h41z" />
    <glyph glyph-name="Eacute" unicode="&#xc9;" horiz-adv-x="1001" 
d="M924 1544l-408 -82l-10 19l393 170zM870 385l-82 -385h-827l6 31h103l276 1310h-102l8 31h772l-70 -328h-41l56 256h-410l-119 -563h312l41 193h41l-95 -441h-41l41 193h-309l-131 -610h465l65 313h41z" />
    <glyph glyph-name="Ecircumflex" unicode="&#xca;" horiz-adv-x="1001" 
d="M727 1561l-254 -115l-12 16l266 189h25l172 -189l-21 -16q-57 37 -172 115h-4zM870 385l-82 -385h-827l6 31h103l276 1310h-102l8 31h772l-70 -328h-41l56 256h-410l-119 -563h312l41 193h41l-95 -441h-41l41 193h-309l-131 -610h465l65 313h41z" />
    <glyph glyph-name="Edieresis" unicode="&#xcb;" horiz-adv-x="1001" 
d="M881 1647q82 0 82 -78q0 -39 -28 -66t-67 -27q-82 1 -82 74q0 43 28 70t67 27zM540 1647q83 0 83 -78q0 -39 -28 -66t-67 -27q-82 1 -82 74q0 43 28 70t66 27zM870 385l-82 -385h-827l6 31h103l276 1310h-102l8 31h772l-70 -328h-41l56 256h-410l-119 -563h312l41 193h41
l-95 -441h-41l41 193h-309l-131 -610h465l65 313h41z" />
    <glyph glyph-name="Igrave" unicode="&#xcc;" horiz-adv-x="630" 
d="M645 1462l-407 82l24 107l393 -170zM373 31l-6 -31h-426l6 31h102l277 1310h-103l8 31h426l-8 -31h-102l-277 -1310h103z" />
    <glyph glyph-name="Iacute" unicode="&#xcd;" horiz-adv-x="630" 
d="M690 1544l-407 -82l-11 19l394 170zM373 31l-6 -31h-426l6 31h102l277 1310h-103l8 31h426l-8 -31h-102l-277 -1310h103z" />
    <glyph glyph-name="Icircumflex" unicode="&#xce;" horiz-adv-x="630" 
d="M496 1561l-254 -115l-13 16l267 189h24l172 -189l-20 -16q-57 37 -172 115h-4zM373 31l-6 -31h-426l6 31h102l277 1310h-103l8 31h426l-8 -31h-102l-277 -1310h103z" />
    <glyph glyph-name="Idieresis" unicode="&#xcf;" horiz-adv-x="630" 
d="M652 1647q82 0 81 -78q1 -39 -27 -66t-67 -27q-82 1 -82 74q0 43 28 70q29 27 67 27zM310 1647q82 0 83 -78q1 -39 -27 -66t-67 -27q-82 1 -82 74q0 43 28 70q27 27 65 27zM373 31l-6 -31h-426l6 31h102l277 1310h-103l8 31h426l-8 -31h-102l-277 -1310h103z" />
    <glyph glyph-name="Eth" unicode="&#xd0;" horiz-adv-x="1122" 
d="M868 1194q0 147 -159 147h-146l-147 -696h190l-10 -43h-188l-121 -571h168q176 -1 219 202l182 859q12 55 12 102zM676 1372q182 0 286 -80t105 -235q0 -49 -14 -121l-125 -588q-74 -348 -434 -348h-537l6 31h103l120 571h-120l10 43h119l147 696h-102l8 31h428z" />
    <glyph glyph-name="Ntilde" unicode="&#xd1;" horiz-adv-x="1101" 
d="M627 1567q-66 0 -90 -64l-11 -24l-24 6l12 33q18 51 60 83q42 31 96 31t104 -33l55 -34q31 -23 68 -23q63 0 88 64l10 24l27 -6l-12 -33q-45 -115 -160 -114q-53 0 -102 32l-54 35q-35 23 -67 23zM1157 1341h-92l-285 -1341h-291l-106 1341h-29l-276 -1310h117l-9 -31
h-260l8 31h95l276 1310h-94l6 31h387l107 -1341h28l277 1310h-117l6 31h260z" />
    <glyph glyph-name="Ograve" unicode="&#xd2;" horiz-adv-x="1081" 
d="M891 1462l-408 82l25 107l393 -170zM672 1358q-182 0 -226 -225l-159 -836q-20 -111 -21 -147q0 -135 142 -136q182 1 225 226l160 831q18 109 20 152q0 135 -141 135zM659 1389q169 0 265 -78t96 -228q0 -66 -14 -125l-127 -596q-80 -379 -457 -378q-170 0 -265 76
t-96 229q0 70 13 123l127 596q80 381 458 381z" />
    <glyph glyph-name="Oacute" unicode="&#xd3;" horiz-adv-x="1081" 
d="M932 1544l-408 -82l-10 19l393 170zM672 1358q-182 0 -226 -225l-159 -836q-20 -111 -21 -147q0 -135 142 -136q182 1 225 226l160 831q18 109 20 152q0 135 -141 135zM659 1389q169 0 265 -78t96 -228q0 -66 -14 -125l-127 -596q-80 -379 -457 -378q-170 0 -265 76
t-96 229q0 70 13 123l127 596q80 381 458 381z" />
    <glyph glyph-name="Ocircumflex" unicode="&#xd4;" horiz-adv-x="1081" 
d="M735 1561l-254 -115l-12 16l266 189h25l172 -189l-21 -16q-57 37 -172 115h-4zM672 1358q-182 0 -226 -225l-159 -836q-20 -111 -21 -147q0 -135 142 -136q182 1 225 226l160 831q18 109 20 152q0 135 -141 135zM659 1389q169 0 265 -78t96 -228q0 -66 -14 -125
l-127 -596q-80 -379 -457 -378q-170 0 -265 76t-96 229q0 70 13 123l127 596q80 381 458 381z" />
    <glyph glyph-name="Otilde" unicode="&#xd5;" horiz-adv-x="1081" 
d="M590 1567q-66 0 -90 -64l-11 -24l-24 6l12 33q19 51 61 83q42 31 96 31t103 -33l56 -34q31 -23 67 -23q63 0 88 64l10 24l27 -6l-12 -33q-45 -115 -160 -114q-53 0 -102 32l-54 35q-35 23 -67 23zM672 1358q-182 0 -226 -225l-159 -836q-20 -111 -21 -147
q0 -135 142 -136q182 1 225 226l160 831q18 109 20 152q0 135 -141 135zM659 1389q169 0 265 -78t96 -228q0 -66 -14 -125l-127 -596q-80 -379 -457 -378q-170 0 -265 76t-96 229q0 70 13 123l127 596q80 381 458 381z" />
    <glyph glyph-name="Odieresis" unicode="&#xd6;" horiz-adv-x="1081" 
d="M902 1647q82 0 81 -78q0 -39 -28 -66q-29 -27 -67 -27t-60 20q-22 19 -22 58t29 66t67 27zM560 1647q82 0 83 -78q0 -39 -28 -66q-29 -27 -67 -27t-60 20q-22 19 -22 58t29 66q27 27 65 27zM672 1358q-182 0 -226 -225l-159 -836q-20 -111 -21 -147q0 -135 142 -136
q182 1 225 226l160 831q18 109 20 152q0 135 -141 135zM659 1389q169 0 265 -78t96 -228q0 -66 -14 -125l-127 -596q-80 -379 -457 -378q-170 0 -265 76t-96 229q0 70 13 123l127 596q80 381 458 381z" />
    <glyph glyph-name="multiply" unicode="&#xd7;" horiz-adv-x="573" 
d="M317 625l191 -193l-31 -29l-190 191l-193 -191l-28 29l190 193l-190 190l28 31l193 -191l190 191l31 -31z" />
    <glyph glyph-name="Oslash" unicode="&#xd8;" horiz-adv-x="1089" 
d="M637 240l160 831l12 78l-535 -1049q23 -86 138 -86q182 1 225 226zM291 297q-12 -53 -19 -111l543 1067q-14 104 -139 105q-182 0 -225 -225zM66 289q0 70 12 123l127 596q80 381 459 381q121 0 200 -39l51 100h48l-62 -119q123 -80 123 -248q0 -49 -14 -125l-127 -596
q-80 -379 -457 -378q-109 0 -195 32l-47 -94h-47l58 113q-129 78 -129 254z" />
    <glyph glyph-name="Ugrave" unicode="&#xd9;" horiz-adv-x="1007" 
d="M860 1462l-407 82l24 107l393 -170zM94 274q0 63 23 164l192 903h-102l6 31h438l-6 -31h-115l-217 -1017q-27 -127 -24 -156q0 -154 166 -154q125 0 188 70t92 205l226 1052h-138l6 31h281l-8 -31h-90l-226 -1052q-36 -164 -112 -235q-76 -70 -236 -70t-252 72t-92 218z
" />
    <glyph glyph-name="Uacute" unicode="&#xda;" horiz-adv-x="1007" 
d="M936 1544l-408 -82l-10 19l393 170zM94 274q0 63 23 164l192 903h-102l6 31h438l-6 -31h-115l-217 -1017q-27 -127 -24 -156q0 -154 166 -154q125 0 188 70t92 205l226 1052h-138l6 31h281l-8 -31h-90l-226 -1052q-36 -164 -112 -235q-76 -70 -236 -70t-252 72t-92 218z
" />
    <glyph glyph-name="Ucircumflex" unicode="&#xdb;" horiz-adv-x="1007" 
d="M735 1561l-254 -115l-12 16l266 189h25l172 -189l-21 -16q-57 37 -172 115h-4zM94 274q0 63 23 164l192 903h-102l6 31h438l-6 -31h-115l-217 -1017q-27 -127 -24 -156q0 -154 166 -154q125 0 188 70t92 205l226 1052h-138l6 31h281l-8 -31h-90l-226 -1052
q-36 -164 -112 -235q-76 -70 -236 -70t-252 72t-92 218z" />
    <glyph glyph-name="Udieresis" unicode="&#xdc;" horiz-adv-x="1007" 
d="M902 1647q82 0 81 -78q0 -39 -28 -66q-29 -27 -67 -27t-60 20q-22 19 -22 58t29 66t67 27zM560 1647q82 0 83 -78q0 -39 -28 -66q-29 -27 -67 -27t-60 20q-22 19 -22 58t29 66q27 27 65 27zM94 274q0 63 23 164l192 903h-102l6 31h438l-6 -31h-115l-217 -1017
q-27 -127 -24 -156q0 -154 166 -154q125 0 188 70t92 205l226 1052h-138l6 31h281l-8 -31h-90l-226 -1052q-36 -164 -112 -235q-76 -70 -236 -70t-252 72t-92 218z" />
    <glyph glyph-name="Yacute" unicode="&#xdd;" horiz-adv-x="833" 
d="M844 1544l-408 -82l-10 19l393 170zM995 1372l-6 -31h-90l-377 -784l-110 -526h102l-6 -31h-426l6 31h102l111 526l-53 784h-90l6 31h422l-6 -31h-107l37 -698h4l330 698h-107l6 31h252z" />
    <glyph glyph-name="Thorn" unicode="&#xde;" horiz-adv-x="972" 
d="M637 1171q344 0 344 -274q0 -51 -12 -113l-56 -270q-66 -313 -389 -313h-207l-34 -170h141l-6 -31h-465l6 31h102l277 1310h-102l6 31h465l-7 -31h-141l-37 -170h115zM778 995q0 145 -157 146h-105l-192 -910h163q74 0 113 38t57 122l109 514q12 78 12 90z" />
    <glyph glyph-name="germandbls" unicode="&#xdf;" horiz-adv-x="962" 
d="M879 662q0 -43 -13 -107l-69 -328q-51 -243 -271 -243q-102 0 -139 32t-37 86t25 172l33 156h36l-32 -156q-25 -129 -25 -149q0 -90 86 -90q53 0 79 31t38 100l90 450q12 51 12 99q0 156 -162 155h-36l8 39h45q150 0 186 195l33 176q16 82 16 118q0 84 -106 83
q-84 0 -124 -49t-56 -144l-308 -1626h127l-6 -31h-403l6 31h94l215 1208h-100l8 39h98l45 256q66 346 404 346q131 0 208 -54t77 -169q-1 -47 -13 -102l-12 -60q-29 -123 -108 -172t-216 -63v-4q131 -19 199 -65t68 -160z" />
    <glyph glyph-name="agrave" unicode="&#xe0;" horiz-adv-x="1069" 
d="M817 27q72 0 105 153l43 205h36l-43 -205q-22 -108 -64 -152t-130 -44t-127 22t-39 76q0 53 47 268l158 746h-29l-199 -668q-75 -248 -139 -346t-180 -98q-182 0 -182 145q0 33 55 320l68 362q33 178 110 255q78 77 206 77t214 -86l47 143h230l-158 -811
q-10 -49 -36 -166t-27 -149q-1 -31 7 -39t27 -8zM578 1096q-64 0 -99 -44t-55 -130l-125 -539q-53 -236 -53 -268q0 -66 69 -66q61 0 111 90t111 289l180 598q-75 70 -139 70zM705 1223l-353 149l45 98l320 -231z" />
    <glyph glyph-name="aacute" unicode="&#xe1;" horiz-adv-x="1069" 
d="M846 1372l-352 -149l-13 16l320 231zM817 27q72 0 105 153l43 205h36l-43 -205q-22 -108 -64 -152t-130 -44t-127 22t-39 76q0 53 47 268l158 746h-29l-199 -668q-75 -248 -139 -346t-180 -98q-182 0 -182 145q0 33 55 320l68 362q33 178 110 255q78 77 206 77t214 -86
l47 143h230l-158 -811q-10 -49 -36 -166t-27 -149q-1 -31 7 -39t27 -8zM578 1096q-64 0 -99 -44t-55 -130l-125 -539q-53 -236 -53 -268q0 -66 69 -66q61 0 111 90t111 289l180 598q-75 70 -139 70z" />
    <glyph glyph-name="acircumflex" unicode="&#xe2;" horiz-adv-x="1069" 
d="M817 27q72 0 105 153l43 205h36l-43 -205q-22 -108 -64 -152t-130 -44t-127 22t-39 76q0 53 47 268l158 746h-29l-199 -668q-75 -248 -139 -346t-180 -98q-182 0 -182 145q0 33 55 320l68 362q33 178 110 255q78 77 206 77t214 -86l47 143h230l-158 -811
q-10 -49 -36 -166t-27 -149q-1 -31 7 -39t27 -8zM578 1096q-64 0 -99 -44t-55 -130l-125 -539q-53 -236 -53 -268q0 -66 69 -66q61 0 111 90t111 289l180 598q-75 70 -139 70zM557 1366l-240 -147l-12 16l252 235h25l153 -235l-18 -16l-156 147h-4z" />
    <glyph glyph-name="atilde" unicode="&#xe3;" horiz-adv-x="1069" 
d="M850 1411l-10 -33q-16 -51 -56 -83q-40 -31 -94 -31q-53 0 -96 30l-53 37q-33 20 -68 21q-63 0 -82 -60l-8 -26l-25 6l11 33q16 51 55 83t92 32t98 -34l54 -36q31 -20 59 -21q70 0 90 62l8 26zM817 27q72 0 105 153l43 205h36l-43 -205q-22 -108 -64 -152t-130 -44
t-127 22t-39 76q0 53 47 268l158 746h-29l-199 -668q-75 -248 -139 -346t-180 -98q-182 0 -182 145q0 33 55 320l68 362q33 178 110 255q78 77 206 77t214 -86l47 143h230l-158 -811q-10 -49 -36 -166t-27 -149q-1 -31 7 -39t27 -8zM578 1096q-64 0 -99 -44t-55 -130
l-125 -539q-53 -236 -53 -268q0 -66 69 -66q61 0 111 90t111 289l180 598q-75 70 -139 70z" />
    <glyph glyph-name="adieresis" unicode="&#xe4;" horiz-adv-x="1069" 
d="M817 27q72 0 105 153l43 205h36l-43 -205q-22 -108 -64 -152t-130 -44t-127 22t-39 76q0 53 47 268l158 746h-29l-199 -668q-75 -248 -139 -346t-180 -98q-182 0 -182 145q0 33 55 320l68 362q33 178 110 255q78 77 206 77t214 -86l47 143h230l-158 -811
q-10 -49 -36 -166t-27 -149q-1 -31 7 -39t27 -8zM578 1096q-64 0 -99 -44t-55 -130l-125 -539q-53 -236 -53 -268q0 -66 69 -66q61 0 111 90t111 289l180 598q-75 70 -139 70zM745 1452q80 0 80 -76q1 -42 -27 -70t-68 -28q-85 0 -85 78q1 44 29 70t71 26zM457 1452
q80 0 80 -76q0 -42 -28 -70t-68 -28q-85 0 -85 78q0 44 29 70t72 26z" />
    <glyph glyph-name="aring" unicode="&#xe5;" horiz-adv-x="1069" 
d="M446 1372q0 66 48 112t112 46q66 0 106 -38t40 -104t-47 -113q-47 -46 -113 -46t-106 39q-40 38 -40 104zM684 1444q0 66 -68 65q-43 0 -59 -19t-25 -67l-12 -73q-4 -29 -4 -33q0 -68 66 -68q44 1 60 21t24 67l14 74q4 29 4 33zM817 27q72 0 105 153l43 205h36l-43 -205
q-22 -108 -64 -152t-130 -44t-127 22t-39 76q0 53 47 268l158 746h-29l-199 -668q-75 -248 -139 -346t-180 -98q-182 0 -182 145q0 33 55 320l68 362q33 178 110 255q78 77 206 77t214 -86l47 143h230l-158 -811q-10 -49 -36 -166t-27 -149q-1 -31 7 -39t27 -8zM578 1096
q-64 0 -99 -44t-55 -130l-125 -539q-53 -236 -53 -268q0 -66 69 -66q61 0 111 90t111 289l180 598q-75 70 -139 70z" />
    <glyph glyph-name="ae" unicode="&#xe6;" horiz-adv-x="1503" 
d="M1128 1143q142 -1 226 -61t84 -183q0 -47 -19 -123q-39 -156 -130 -224t-253 -112l-184 -49l-10 -59q-25 -154 -25 -168q0 -66 34 -103t124 -36q246 0 313 294l19 82h41l-17 -79q-35 -174 -126 -256t-255 -82q-313 0 -313 258q0 53 16 123l109 475q23 92 35 110l-37 45
l-180 -571q-82 -254 -125 -326q-70 -115 -195 -114q-182 0 -182 143q0 49 57 326l72 358q35 178 114 255t229 77t259 -158h4q96 158 315 158zM592 1090q-66 0 -100 -43t-56 -132l-131 -530q-55 -225 -55 -268q0 -68 69 -68q61 0 109 85q47 85 113 290l190 598
q-73 68 -139 68zM1255 995q0 117 -114 117q-156 0 -189 -182l-92 -502l117 31q109 29 162 79t71 162l31 183q14 96 14 112z" />
    <glyph glyph-name="ccedilla" unicode="&#xe7;" horiz-adv-x="897" 
d="M70 252q0 47 12 104l98 461q70 326 385 326q233 0 273 -174h4l37 174h39l-99 -467h-184l27 125q35 156 36 207q0 104 -108 104q-156 0 -193 -190l-121 -650q-14 -72 -14 -125t35 -88t119 -34q231 0 289 270l22 106h41l-23 -104q-33 -156 -117 -235t-239 -78q-47 0 -88 6
l-27 -121h5q47 55 124 55q117 0 117 -102q0 -20 -10 -62q-31 -145 -169 -145t-138 106q0 27 8 54h31q-12 -29 -13 -56q0 -80 86 -79q76 0 97 108l8 47q4 29 4 41q0 53 -55 53t-103 -67h-37l39 175q-198 51 -198 255z" />
    <glyph glyph-name="egrave" unicode="&#xe8;" horiz-adv-x="948" 
d="M575 1143q143 1 227 -61t85 -183q0 -47 -19 -123q-39 -156 -129 -224t-252 -112l-184 -49l-12 -69q-23 -135 -23 -160q0 -70 35 -104t123 -33q256 0 313 294l17 82h41l-17 -79q-35 -176 -126 -257t-251 -81q-329 0 -329 266q0 49 12 106l98 465q67 322 391 322zM590 1112
q-154 0 -187 -182l-92 -502l117 31q113 29 162 77t69 164l33 189q14 96 15 106q0 117 -117 117zM782 1223l-352 149l45 98l320 -231z" />
    <glyph glyph-name="eacute" unicode="&#xe9;" horiz-adv-x="948" 
d="M825 1372l-352 -149l-12 16l319 231zM575 1143q143 1 227 -61t85 -183q0 -47 -19 -123q-39 -156 -129 -224t-252 -112l-184 -49l-12 -69q-23 -135 -23 -160q0 -70 35 -104t123 -33q256 0 313 294l17 82h41l-17 -79q-35 -176 -126 -257t-251 -81q-329 0 -329 266
q0 49 12 106l98 465q67 322 391 322zM590 1112q-154 0 -187 -182l-92 -502l117 31q113 29 162 77t69 164l33 189q14 96 15 106q0 117 -117 117z" />
    <glyph glyph-name="ecircumflex" unicode="&#xea;" horiz-adv-x="948" 
d="M575 1143q143 1 227 -61t85 -183q0 -47 -19 -123q-39 -156 -129 -224t-252 -112l-184 -49l-12 -69q-23 -135 -23 -160q0 -70 35 -104t123 -33q256 0 313 294l17 82h41l-17 -79q-35 -176 -126 -257t-251 -81q-329 0 -329 266q0 49 12 106l98 465q67 322 391 322zM590 1112
q-154 0 -187 -182l-92 -502l117 31q113 29 162 77t69 164l33 189q14 96 15 106q0 117 -117 117zM651 1366l-239 -147l-13 16l252 235h25l153 -235l-18 -16l-156 147h-4z" />
    <glyph glyph-name="edieresis" unicode="&#xeb;" horiz-adv-x="948" 
d="M793 1452q80 0 79 -76q0 -42 -28 -70t-67 -28q-85 0 -85 78q0 44 29 70t72 26zM504 1452q80 0 80 -76q0 -42 -28 -70t-68 -28q-85 0 -85 78q0 44 29 70t72 26zM575 1143q143 1 227 -61t85 -183q0 -47 -19 -123q-39 -156 -129 -224t-252 -112l-184 -49l-12 -69
q-23 -135 -23 -160q0 -70 35 -104t123 -33q256 0 313 294l17 82h41l-17 -79q-35 -176 -126 -257t-251 -81q-329 0 -329 266q0 49 12 106l98 465q67 322 391 322zM590 1112q-154 0 -187 -182l-92 -502l117 31q113 29 162 77t69 164l33 189q14 96 15 106q0 117 -117 117z" />
    <glyph glyph-name="igrave" unicode="&#xec;" horiz-adv-x="622" 
d="M272 -16q-96 0 -139 26t-43 88q0 31 60 308l145 690h-94l8 30h274l-151 -766q-56 -276 -56 -294q-1 -40 48 -39q88 0 127 178l41 192h36l-41 -192q-27 -123 -73 -172t-142 -49zM545 1223l-352 149l45 98l319 -231z" />
    <glyph glyph-name="iacute" unicode="&#xed;" horiz-adv-x="622" 
d="M272 -16q-96 0 -139 26t-43 88q0 31 60 308l145 690h-94l8 30h274l-151 -766q-56 -276 -56 -294q-1 -40 48 -39q88 0 127 178l41 192h36l-41 -192q-27 -123 -73 -172t-142 -49zM602 1372l-352 -149l-12 16l319 231z" />
    <glyph glyph-name="icircumflex" unicode="&#xee;" horiz-adv-x="622" 
d="M414 1366l-240 -147l-12 16l252 235h24l154 -235l-19 -16l-155 147h-4zM272 -16q-96 0 -139 26t-43 88q0 31 60 308l145 690h-94l8 30h274l-151 -766q-56 -276 -56 -294q-1 -40 48 -39q88 0 127 178l41 192h36l-41 -192q-27 -123 -73 -172t-142 -49z" />
    <glyph glyph-name="idieresis" unicode="&#xef;" horiz-adv-x="622" 
d="M272 -16q-96 0 -139 26t-43 88q0 31 60 308l145 690h-94l8 30h274l-151 -766q-56 -276 -56 -294q-1 -40 48 -39q88 0 127 178l41 192h36l-41 -192q-27 -123 -73 -172t-142 -49zM550 1278q-86 0 -86 80q0 40 30 68q28 26 71 26q80 0 80 -76q0 -42 -28 -70q-27 -28 -67 -28
zM276 1452q80 0 80 -76q0 -42 -28 -70t-67 -28q-85 0 -85 78q0 44 28 70t72 26z" />
    <glyph glyph-name="eth" unicode="&#xf0;" horiz-adv-x="964" 
d="M719 949q0 44 -36 87t-103 43q-152 0 -191 -196l-137 -652q-12 -59 -12 -102q0 -115 122 -115q166 0 209 197l138 649q10 45 10 89zM930 1075q0 -106 -29 -244l-104 -483q-78 -365 -437 -364q-295 0 -294 249q0 66 14 132l100 471q33 154 110 230q76 76 232 77
q156 0 215 -133h4l25 114q16 78 16 125t-12 84l-278 -108l8 43l254 98q-45 74 -189 115l6 30q158 -33 246 -120l221 88l-8 -43l-188 -74q88 -113 88 -287z" />
    <glyph glyph-name="ntilde" unicode="&#xf1;" horiz-adv-x="1085" 
d="M763 -16q-171 0 -171 95q0 50 65 343l84 383q35 156 35 214t-54 58t-97 -84t-97 -258l-223 -735h-244l218 1096h-95l9 30h288l-233 -1095h28l213 704q71 240 131 324t164 84q168 0 168 -148q0 -29 -39 -239l-67 -348q-66 -342 -66 -345q0 -37 37 -36q70 0 101 141l45 213
h36l-45 -213q-24 -100 -64 -142t-127 -42zM938 1411l-10 -33q-16 -51 -56 -83q-40 -31 -94 -31q-53 0 -96 30l-53 37q-33 20 -68 21q-63 0 -82 -60l-8 -26l-25 6l11 33q16 51 55 83t92 32t98 -34l54 -36q31 -20 59 -21q70 0 90 62l8 26z" />
    <glyph glyph-name="ograve" unicode="&#xf2;" horiz-adv-x="960" 
d="M568 1143q326 0 327 -262q0 -53 -12 -111l-97 -448q-35 -166 -138 -252t-263 -86q-319 0 -319 262q0 49 12 110l94 447q70 340 396 340zM574 1112q-78 0 -121 -52t-62 -145l-127 -688q-14 -86 -14 -94q0 -59 28 -89t95 -30q157 0 194 195l123 661q16 82 16 132t-26 80
q-28 30 -106 30zM766 1223l-352 149l45 98l319 -231z" />
    <glyph glyph-name="oacute" unicode="&#xf3;" horiz-adv-x="960" 
d="M829 1372l-352 -149l-12 16l319 231zM568 1143q326 0 327 -262q0 -53 -12 -111l-97 -448q-35 -166 -138 -252t-263 -86q-319 0 -319 262q0 49 12 110l94 447q70 340 396 340zM574 1112q-78 0 -121 -52t-62 -145l-127 -688q-14 -86 -14 -94q0 -59 28 -89t95 -30
q157 0 194 195l123 661q16 82 16 132t-26 80q-28 30 -106 30z" />
    <glyph glyph-name="ocircumflex" unicode="&#xf4;" horiz-adv-x="960" 
d="M568 1143q326 0 327 -262q0 -53 -12 -111l-97 -448q-35 -166 -138 -252t-263 -86q-319 0 -319 262q0 49 12 110l94 447q70 340 396 340zM574 1112q-78 0 -121 -52t-62 -145l-127 -688q-14 -86 -14 -94q0 -59 28 -89t95 -30q157 0 194 195l123 661q16 82 16 132t-26 80
q-28 30 -106 30zM651 1366l-239 -147l-13 16l252 235h25l153 -235l-18 -16l-156 147h-4z" />
    <glyph glyph-name="otilde" unicode="&#xf5;" horiz-adv-x="960" 
d="M874 1411l-10 -33q-16 -51 -56 -83q-40 -31 -93 -31t-97 30l-53 37q-33 20 -67 21q-63 0 -82 -60l-8 -26l-25 6l10 33q15 51 55 83t93 32t98 -34l53 -36q31 -20 60 -21q70 0 90 62l8 26zM568 1143q326 0 327 -262q0 -53 -12 -111l-97 -448q-35 -166 -138 -252t-263 -86
q-319 0 -319 262q0 49 12 110l94 447q70 340 396 340zM574 1112q-78 0 -121 -52t-62 -145l-127 -688q-14 -86 -14 -94q0 -59 28 -89t95 -30q157 0 194 195l123 661q16 82 16 132t-26 80q-28 30 -106 30z" />
    <glyph glyph-name="odieresis" unicode="&#xf6;" horiz-adv-x="960" 
d="M568 1143q326 0 327 -262q0 -53 -12 -111l-97 -448q-35 -166 -138 -252t-263 -86q-319 0 -319 262q0 49 12 110l94 447q70 340 396 340zM574 1112q-78 0 -121 -52t-62 -145l-127 -688q-14 -86 -14 -94q0 -59 28 -89t95 -30q157 0 194 195l123 661q16 82 16 132t-26 80
q-28 30 -106 30zM799 1452q80 0 80 -76q0 -42 -28 -70t-68 -28q-85 0 -85 78q0 44 29 70t72 26zM510 1452q80 0 80 -76q0 -42 -28 -70t-68 -28q-86 0 -84 78q0 44 28 70t72 26z" />
    <glyph glyph-name="divide" unicode="&#xf7;" horiz-adv-x="612" 
d="M403 900q1 -44 -27 -71t-72 -27t-71 26t-26 71q0 45 26 71q27 26 71 26t72 -26q27 -26 27 -70zM547 645v-43h-481v43h481zM403 347q1 -43 -27 -69t-72 -26t-71 27t-27 71t27 69t71 25t72 -26q27 -27 27 -71z" />
    <glyph glyph-name="oslash" unicode="&#xf8;" horiz-adv-x="968" 
d="M588 1112q-88 0 -132 -52t-61 -145l-127 -688q-12 -57 -14 -77l444 909q-22 53 -110 53zM571 209l123 661q16 82 17 123l-449 -917q23 -61 115 -62q157 0 194 195zM580 1143q78 0 149 -21l41 82h43l-47 -96q133 -63 133 -227q0 -53 -12 -111l-96 -448q-35 -166 -139 -252
t-263 -86q-90 0 -162 22l-41 -84h-43l50 101q-123 63 -123 223q0 49 12 110l94 447q72 340 404 340z" />
    <glyph glyph-name="ugrave" unicode="&#xf9;" horiz-adv-x="1046" 
d="M765 -16q-87 0 -130 22t-43 71q0 48 28 170t39 175l142 674h-29l-211 -709q-70 -235 -130 -319t-163 -84q-166 0 -166 145q0 31 43 246l142 721h-92l6 30h288l-163 -772q-45 -211 -45 -235q0 -70 52 -70t94 82t95 256l223 739h244l-143 -718q-64 -310 -64 -346t35 -35
q72 0 103 141l45 213h36l-45 -213q-24 -100 -64 -142t-127 -42zM766 1223l-352 149l45 98l319 -231z" />
    <glyph glyph-name="uacute" unicode="&#xfa;" horiz-adv-x="1046" 
d="M881 1372l-353 -149l-12 16l320 231zM765 -16q-87 0 -130 22t-43 71q0 48 28 170t39 175l142 674h-29l-211 -709q-70 -235 -130 -319t-163 -84q-166 0 -166 145q0 31 43 246l142 721h-92l6 30h288l-163 -772q-45 -211 -45 -235q0 -70 52 -70t94 82t95 256l223 739h244
l-143 -718q-64 -310 -64 -346t35 -35q72 0 103 141l45 213h36l-45 -213q-24 -100 -64 -142t-127 -42z" />
    <glyph glyph-name="ucircumflex" unicode="&#xfb;" horiz-adv-x="1046" 
d="M765 -16q-87 0 -130 22t-43 71q0 48 28 170t39 175l142 674h-29l-211 -709q-70 -235 -130 -319t-163 -84q-166 0 -166 145q0 31 43 246l142 721h-92l6 30h288l-163 -772q-45 -211 -45 -235q0 -70 52 -70t94 82t95 256l223 739h244l-143 -718q-64 -310 -64 -346t35 -35
q72 0 103 141l45 213h36l-45 -213q-24 -100 -64 -142t-127 -42zM674 1366l-240 -147l-12 16l252 235h24l154 -235l-18 -16l-156 147h-4z" />
    <glyph glyph-name="udieresis" unicode="&#xfc;" horiz-adv-x="1046" 
d="M796 1278q-86 0 -86 80q0 40 30 68q28 26 71 26q80 0 80 -76q0 -42 -28 -70q-27 -28 -67 -28zM506 1278q-86 0 -84 80q0 40 28 68q28 26 72 26q80 0 80 -76q0 -42 -28 -70t-68 -28zM765 -16q-87 0 -130 22t-43 71q0 48 28 170t39 175l142 674h-29l-211 -709
q-70 -235 -130 -319t-163 -84q-166 0 -166 145q0 31 43 246l142 721h-92l6 30h288l-163 -772q-45 -211 -45 -235q0 -70 52 -70t94 82t95 256l223 739h244l-143 -718q-64 -310 -64 -346t35 -35q72 0 103 141l45 213h36l-45 -213q-24 -100 -64 -142t-127 -42z" />
    <glyph glyph-name="yacute" unicode="&#xfd;" horiz-adv-x="882" 
d="M332 362q0 -268 157 -331h17l227 563q47 120 47 192t-56 117t-153 47l31 217q115 0 192 -63q76 -63 76 -182t-86 -328l-307 -750q-55 -133 -112 -181t-183 -48q-258 0 -258 207q0 53 17 125l14 61h190l-12 -51q-33 -131 -33 -191t28 -88t98 -26q70 0 117 46q48 46 87 148
l57 154h-184q-166 96 -166 342q0 88 21 236l71 518h-98l4 30h297l-80 -548q-20 -133 -20 -216zM799 1372l-353 -149l-12 16l320 231z" />
    <glyph glyph-name="thorn" unicode="&#xfe;" horiz-adv-x="1046" 
d="M788 1143q188 0 189 -152q0 -29 -47 -284l-72 -381q-35 -182 -113 -262q-79 -80 -235 -80t-268 90l-88 -412h129l-9 -31h-405l6 31h92l371 1802h-94l6 31h291l-293 -1389l28 -20l185 614q74 246 137 344t190 99zM805 1014q0 29 -15 46t-61 17q-70 0 -119 -88t-110 -289
l-193 -632q68 -39 148 -39t119 46t57 132l129 567q45 211 45 240z" />
    <glyph glyph-name="ydieresis" unicode="&#xff;" horiz-adv-x="882" 
d="M748 1452q80 0 79 -76q1 -42 -27 -70t-68 -28q-85 0 -85 78q0 44 29 70t72 26zM459 1452q80 0 80 -76q0 -42 -28 -70t-68 -28q-85 0 -85 78q0 44 29 70t72 26zM332 362q0 -268 157 -331h17l227 563q47 120 47 192t-56 117t-153 47l31 217q115 0 192 -63q76 -63 76 -182
t-86 -328l-307 -750q-55 -133 -112 -181t-183 -48q-258 0 -258 207q0 53 17 125l14 61h190l-12 -51q-33 -131 -33 -191t28 -88t98 -26q70 0 117 46q48 46 87 148l57 154h-184q-166 96 -166 342q0 88 21 236l71 518h-98l4 30h297l-80 -548q-20 -133 -20 -216z" />
    <glyph glyph-name="Amacron" unicode="&#x100;" horiz-adv-x="968" 
d="M891 1561l-12 -54h-482l13 54h481zM350 1341l8 31h525l-9 -31h-112l-57 -1310h90l-7 -31h-421l6 31h106l25 481h-299l-180 -481h106l-6 -31h-254l6 31h90l500 1310h-117zM508 559l39 782h-29l-295 -782h285z" />
    <glyph glyph-name="amacron" unicode="&#x101;" horiz-adv-x="1069" 
d="M817 27q72 0 105 153l43 205h36l-43 -205q-22 -108 -64 -152t-130 -44t-127 22t-39 76q0 53 47 268l158 746h-29l-199 -668q-75 -248 -139 -346t-180 -98q-182 0 -182 145q0 33 55 320l68 362q33 178 110 255q78 77 206 77t214 -86l47 143h230l-158 -811
q-10 -49 -36 -166t-27 -149q-1 -31 7 -39t27 -8zM578 1096q-64 0 -99 -44t-55 -130l-125 -539q-53 -236 -53 -268q0 -66 69 -66q61 0 111 90t111 289l180 598q-75 70 -139 70zM815 1335l-10 -53h-449l11 53h448z" />
    <glyph glyph-name="Abreve" unicode="&#x102;" horiz-adv-x="968" 
d="M622 1524q172 0 218 131l24 2q-53 -199 -256 -199q-92 0 -138 45t-46 121q0 20 2 33l25 -2v-15q-1 -116 171 -116zM350 1341l8 31h525l-9 -31h-112l-57 -1310h90l-7 -31h-421l6 31h106l25 481h-299l-180 -481h106l-6 -31h-254l6 31h90l500 1310h-117zM508 559l39 782h-29
l-295 -782h285z" />
    <glyph glyph-name="abreve" unicode="&#x103;" horiz-adv-x="1069" 
d="M426 1427q0 -114 168 -114t207 141h24q-47 -211 -250 -211q-176 0 -176 176q0 20 4 35h25q-2 -6 -2 -27zM817 27q72 0 105 153l43 205h36l-43 -205q-22 -108 -64 -152t-130 -44t-127 22t-39 76q0 53 47 268l158 746h-29l-199 -668q-75 -248 -139 -346t-180 -98
q-182 0 -182 145q0 33 55 320l68 362q33 178 110 255q78 77 206 77t214 -86l47 143h230l-158 -811q-10 -49 -36 -166t-27 -149q-1 -31 7 -39t27 -8zM578 1096q-64 0 -99 -44t-55 -130l-125 -539q-53 -236 -53 -268q0 -66 69 -66q61 0 111 90t111 289l180 598q-75 70 -139 70
z" />
    <glyph glyph-name="Aogonek" unicode="&#x104;" horiz-adv-x="968" 
d="M426 -274q0 -90 111 -91h12l-4 -20h-19q-86 0 -148 30t-62 83q-1 96 83 154q45 32 65 42t71 37l79 39h-247l6 31h106l25 481h-299l-180 -481h106l-6 -31h-254l6 31h90l500 1310h-117l8 31h525l-9 -31h-112l-57 -1310h90l-7 -31h-122l-60 -31q-180 -96 -180 -243zM508 559
l39 782h-29l-295 -782h285z" />
    <glyph glyph-name="aogonek" unicode="&#x105;" horiz-adv-x="1069" 
d="M817 27q72 0 105 153l43 205h36l-43 -205q-23 -109 -64 -152q-21 -22 -54 -33l-49 -26q-180 -96 -181 -243q0 -90 111 -91h12l-4 -20h-18q-86 0 -149 30q-62 30 -62 83t19 88t65 67t135 78l46 23h-5q-84 0 -123 22t-39 76q0 53 47 268l158 746h-29l-199 -668
q-75 -248 -139 -346t-180 -98q-182 0 -182 145q0 33 55 320l68 362q33 178 110 255q78 77 206 77t214 -86l47 143h230l-158 -811q-10 -49 -36 -166t-27 -149q-1 -31 7 -39t27 -8zM578 1096q-64 0 -99 -44t-55 -130l-125 -539q-53 -236 -53 -268q0 -66 69 -66q61 0 111 90
t111 289l180 598q-75 70 -139 70z" />
    <glyph glyph-name="Cacute" unicode="&#x106;" horiz-adv-x="1019" 
d="M922 1544l-408 -82l-10 19l393 170zM444 -16q-178 0 -276 80t-98 239q0 57 20 148l123 569q78 369 440 369q125 -1 213 -53t105 -167h4l45 220h41l-113 -525h-219l39 174q37 172 37 207q0 113 -125 113q-182 0 -221 -217l-160 -844q-10 -57 -10 -100q0 -168 174 -168
q153 0 233 82t117 243l35 158h45l-35 -160q-41 -184 -139 -276q-97 -92 -275 -92z" />
    <glyph glyph-name="cacute" unicode="&#x107;" horiz-adv-x="897" 
d="M590 1112q-156 0 -193 -190l-121 -650q-14 -72 -14 -125t35 -88t119 -34q231 0 289 270l22 106h41l-23 -104q-33 -156 -117 -235q-84 -78 -236 -78q-154 0 -238 68t-84 200q0 47 12 104l98 461q70 326 385 326q233 0 273 -174h4l37 174h39l-99 -467h-184l27 125
q35 156 36 207q0 104 -108 104zM834 1372l-353 -149l-12 16l319 231z" />
    <glyph glyph-name="Ccircumflex" unicode="&#x108;" horiz-adv-x="1019" 
d="M719 1561l-254 -115l-12 16l266 189h24l172 -189l-20 -16q-57 37 -172 115h-4zM444 -16q-178 0 -276 80t-98 239q0 57 20 148l123 569q78 369 440 369q125 -1 213 -53t105 -167h4l45 220h41l-113 -525h-219l39 174q37 172 37 207q0 113 -125 113q-182 0 -221 -217
l-160 -844q-10 -57 -10 -100q0 -168 174 -168q153 0 233 82t117 243l35 158h45l-35 -160q-41 -184 -139 -276q-97 -92 -275 -92z" />
    <glyph glyph-name="ccircumflex" unicode="&#x109;" horiz-adv-x="897" 
d="M590 1112q-156 0 -193 -190l-121 -650q-14 -72 -14 -125t35 -88t119 -34q231 0 289 270l22 106h41l-23 -104q-33 -156 -117 -235q-84 -78 -236 -78q-154 0 -238 68t-84 200q0 47 12 104l98 461q70 326 385 326q233 0 273 -174h4l37 174h39l-99 -467h-184l27 125
q35 156 36 207q0 104 -108 104zM637 1366l-240 -147l-12 16l252 235h25l153 -235l-18 -16l-156 147h-4z" />
    <glyph glyph-name="Cdotaccent" unicode="&#x10a;" horiz-adv-x="1019" 
d="M722 1659q42 0 66 -23q24 -24 25 -66q-1 -42 -31 -71t-73 -29t-66 26t-23 64t30 69q30 30 72 30zM444 -16q-178 0 -276 80t-98 239q0 57 20 148l123 569q78 369 440 369q125 -1 213 -53t105 -167h4l45 220h41l-113 -525h-219l39 174q37 172 37 207q0 113 -125 113
q-182 0 -221 -217l-160 -844q-10 -57 -10 -100q0 -168 174 -168q153 0 233 82t117 243l35 158h45l-35 -160q-41 -184 -139 -276q-97 -92 -275 -92z" />
    <glyph glyph-name="cdotaccent" unicode="&#x10b;" horiz-adv-x="897" 
d="M590 1112q-156 0 -193 -190l-121 -650q-14 -72 -14 -125t35 -88t119 -34q231 0 289 270l22 106h41l-23 -104q-33 -156 -117 -235q-84 -78 -236 -78q-154 0 -238 68t-84 200q0 47 12 104l98 461q70 326 385 326q233 0 273 -174h4l37 174h39l-99 -467h-184l27 125
q35 156 36 207q0 104 -108 104zM731 1364q0 -45 -32 -75q-31 -29 -75 -29t-69 28t-25 67q0 41 31 71t76 30q94 0 94 -92z" />
    <glyph glyph-name="Ccaron" unicode="&#x10c;" horiz-adv-x="1019" 
d="M967 1642q-147 -107 -269 -188h-24l-170 188l20 17q115 -78 172 -115h4l254 115zM444 -16q-178 0 -276 80t-98 239q0 57 20 148l123 569q78 369 440 369q125 -1 213 -53t105 -167h4l45 220h41l-113 -525h-219l39 174q37 172 37 207q0 113 -125 113q-182 0 -221 -217
l-160 -844q-10 -57 -10 -100q0 -168 174 -168q153 0 233 82t117 243l35 158h45l-35 -160q-41 -184 -139 -276q-97 -92 -275 -92z" />
    <glyph glyph-name="ccaron" unicode="&#x10d;" horiz-adv-x="897" 
d="M590 1112q-156 0 -193 -190l-121 -650q-14 -72 -14 -125t35 -88t119 -34q231 0 289 270l22 106h41l-23 -104q-33 -156 -117 -235q-84 -78 -236 -78q-154 0 -238 68t-84 200q0 47 12 104l98 461q70 326 385 326q233 0 273 -174h4l37 174h39l-99 -467h-184l27 125
q35 156 36 207q0 104 -108 104zM618 1323l238 147l12 -16l-252 -235h-24l-154 235l21 16l155 -147h4z" />
    <glyph glyph-name="Dcaron" unicode="&#x10e;" horiz-adv-x="1122" 
d="M934 1642q-16 -11 -268 -188h-25l-170 188l21 17q115 -78 172 -115h4l254 115zM494 0h-537l6 31h103l276 1310h-102l8 31h428q182 0 286 -80t105 -235q0 -49 -14 -121l-125 -588q-74 -348 -434 -348zM868 1194q0 147 -159 147h-146l-276 -1310h168q176 -1 219 202
l182 859q12 55 12 102z" />
    <glyph glyph-name="dcaron" unicode="&#x10f;" horiz-adv-x="1064" 
d="M1358 1413q0 -88 -72 -147t-176 -60l6 25q86 0 137 45t54 119h-4q-16 -51 -74 -52q-76 0 -76 74q0 39 31 67t76 28q46 0 72 -28t26 -71zM823 27q72 0 105 153l43 205h37l-43 -205q-23 -108 -65 -152t-131 -44t-128 22t-39 75q0 52 47 269l144 672l-25 18l-188 -614
q-74 -242 -136 -342t-184 -100q-182 0 -182 145q0 51 53 313l72 369q35 176 111 254t224 78t261 -88l88 409h-111l6 31h291l-223 -1116q-62 -297 -62 -317t8 -27q8 -8 27 -8zM592 1098q-72 0 -107 -45t-55 -129l-127 -541q-53 -217 -51 -268q0 -66 66 -66t114 90t109 287
l196 631q-73 41 -145 41z" />
    <glyph glyph-name="Dcroat" unicode="&#x110;" horiz-adv-x="1122" 
d="M868 1194q0 147 -159 147h-146l-147 -696h190l-10 -43h-188l-121 -571h168q176 -1 219 202l182 859q12 55 12 102zM676 1372q182 0 286 -80t105 -235q0 -49 -14 -121l-125 -588q-74 -348 -434 -348h-537l6 31h103l120 571h-120l10 43h119l147 696h-102l8 31h428z" />
    <glyph glyph-name="dcroat" unicode="&#x111;" horiz-adv-x="1054" 
d="M586 1098q-72 0 -107 -45t-55 -129l-127 -541q-53 -225 -51 -262q0 -72 66 -72t114 90t109 287l196 631q-73 41 -145 41zM817 27q72 0 105 153l43 205h36l-43 -205q-22 -108 -64 -152t-131 -44t-128 22t-39 75q0 52 47 269l143 672l-24 18l-189 -614q-74 -242 -136 -342
t-183 -100q-182 0 -182 145q0 51 53 313l72 369q35 176 111 254t224 78t261 -88l43 205h-218l9 43h219l35 161h-111l6 31h291l-39 -192h154l-8 -43h-154l-176 -881q-62 -297 -62 -317t8 -27q8 -8 27 -8z" />
    <glyph glyph-name="Emacron" unicode="&#x112;" horiz-adv-x="1001" 
d="M961 1561l-13 -54h-481l12 54h482zM870 385l-82 -385h-827l6 31h103l276 1310h-102l8 31h772l-70 -328h-41l56 256h-410l-119 -563h312l41 193h41l-95 -441h-41l41 193h-309l-131 -610h465l65 313h41z" />
    <glyph glyph-name="emacron" unicode="&#x113;" horiz-adv-x="948" 
d="M575 1143q143 1 227 -61t85 -183q0 -47 -19 -123q-39 -156 -129 -224t-252 -112l-184 -49l-12 -69q-23 -135 -23 -160q0 -70 35 -104t123 -33q256 0 313 294l17 82h41l-17 -79q-35 -176 -126 -257t-251 -81q-329 0 -329 266q0 49 12 106l98 465q67 322 391 322zM590 1112
q-154 0 -187 -182l-92 -502l117 31q113 29 162 77t69 164l33 189q14 96 15 106q0 117 -117 117zM856 1335l-10 -53h-449l11 53h448z" />
    <glyph glyph-name="Ebreve" unicode="&#x114;" horiz-adv-x="1001" 
d="M543 1640q0 -116 172 -116t217 131l24 2q-53 -199 -256 -199q-92 0 -138 45t-46 121q0 20 2 33l25 -2v-15zM870 385l-82 -385h-827l6 31h103l276 1310h-102l8 31h772l-70 -328h-41l56 256h-410l-119 -563h312l41 193h41l-95 -441h-41l41 193h-309l-131 -610h465l65 313
h41z" />
    <glyph glyph-name="ebreve" unicode="&#x115;" horiz-adv-x="948" 
d="M575 1143q143 1 227 -61t85 -183q0 -47 -19 -123q-39 -156 -129 -224t-252 -112l-184 -49l-12 -69q-23 -135 -23 -160q0 -70 35 -104t123 -33q256 0 313 294l17 82h41l-17 -79q-35 -176 -126 -257t-251 -81q-329 0 -329 266q0 49 12 106l98 465q67 322 391 322zM590 1112
q-154 0 -187 -182l-92 -502l117 31q113 29 162 77t69 164l33 189q14 96 15 106q0 117 -117 117zM467 1427q0 -114 168 -114t207 141h24q-47 -211 -250 -211q-176 0 -176 176q0 20 4 35h25q-2 -6 -2 -27z" />
    <glyph glyph-name="Edotaccent" unicode="&#x116;" horiz-adv-x="1001" 
d="M720 1659q42 0 66 -23q24 -24 25 -66q-1 -42 -31 -71t-73 -29t-66 26t-23 64t30 69q30 30 72 30zM870 385l-82 -385h-827l6 31h103l276 1310h-102l8 31h772l-70 -328h-41l56 256h-410l-119 -563h312l41 193h41l-95 -441h-41l41 193h-309l-131 -610h465l65 313h41z" />
    <glyph glyph-name="edotaccent" unicode="&#x117;" horiz-adv-x="948" 
d="M575 1143q143 1 227 -61t85 -183q0 -47 -19 -123q-39 -156 -129 -224t-252 -112l-184 -49l-12 -69q-23 -135 -23 -160q0 -70 35 -104t123 -33q256 0 313 294l17 82h41l-17 -79q-35 -176 -126 -257t-251 -81q-329 0 -329 266q0 49 12 106l98 465q67 322 391 322zM590 1112
q-154 0 -187 -182l-92 -502l117 31q113 29 162 77t69 164l33 189q14 96 15 106q0 117 -117 117zM739 1364q1 -45 -31 -75q-32 -29 -76 -29t-69 28t-25 67q0 41 32 71q30 30 75 30q94 0 94 -92z" />
    <glyph glyph-name="Eogonek" unicode="&#x118;" horiz-adv-x="1001" 
d="M477 -274q0 -90 111 -91h12l-4 -20h-18q-86 0 -149 30q-62 30 -62 83t19 88t65 67t135 78l80 39h-705l6 31h103l276 1310h-102l8 31h772l-70 -328h-41l56 256h-410l-119 -563h312l41 193h41l-95 -441h-41l41 193h-309l-131 -610h465l65 313h41l-82 -385h-71l-60 -31
q-180 -96 -180 -243z" />
    <glyph glyph-name="eogonek" unicode="&#x119;" horiz-adv-x="948" 
d="M575 1143q143 1 227 -61t85 -183q0 -47 -19 -123q-39 -156 -129 -224t-252 -112l-184 -49l-12 -69q-23 -135 -23 -160q0 -70 35 -104t123 -33q256 0 313 294l17 82h41l-17 -79q-35 -176 -126 -257q-52 -46 -129 -67l-56 -29q-180 -96 -180 -243q0 -90 110 -91h13l-4 -20
h-19q-86 0 -148 30q-63 30 -63 83q-1 96 84 154q44 32 64 42t71 37l51 25q-24 -2 -51 -2q-155 0 -239 66t-84 200q0 49 12 106l98 465q67 322 391 322zM590 1112q-154 0 -187 -182l-92 -502l117 31q113 29 162 77t69 164l33 189q14 96 15 106q0 117 -117 117z" />
    <glyph glyph-name="Ecaron" unicode="&#x11a;" horiz-adv-x="1001" 
d="M979 1642q-16 -11 -268 -188h-25l-170 188l21 17q115 -78 172 -115h4l254 115zM870 385l-82 -385h-827l6 31h103l276 1310h-102l8 31h772l-70 -328h-41l56 256h-410l-119 -563h312l41 193h41l-95 -441h-41l41 193h-309l-131 -610h465l65 313h41z" />
    <glyph glyph-name="ecaron" unicode="&#x11b;" horiz-adv-x="948" 
d="M575 1143q143 1 227 -61t85 -183q0 -47 -19 -123q-39 -156 -129 -224t-252 -112l-184 -49l-12 -69q-23 -135 -23 -160q0 -70 35 -104t123 -33q256 0 313 294l17 82h41l-17 -79q-35 -176 -126 -257t-251 -81q-329 0 -329 266q0 49 12 106l98 465q67 322 391 322zM590 1112
q-154 0 -187 -182l-92 -502l117 31q113 29 162 77t69 164l33 189q14 96 15 106q0 117 -117 117zM627 1323l237 147l13 -16l-252 -235h-25l-154 235l21 16l156 -147h4z" />
    <glyph glyph-name="Gcircumflex" unicode="&#x11c;" horiz-adv-x="1075" 
d="M717 1561l-254 -115l-12 16l266 189h24l172 -189l-20 -16q-57 37 -172 115h-4zM432 -16q-373 0 -373 313q0 55 21 145l119 564q82 383 454 383q125 -1 217 -53t109 -167h4l47 220h41l-104 -492h-222l33 156q31 145 31 182q0 123 -131 123q-106 0 -160 -60t-74 -170
l-159 -843q-16 -90 -17 -123q0 -147 154 -148q92 0 139 52t70 153l86 399h-160l10 48h367l-146 -682h-40l47 219h-4q-53 -103 -149 -161t-210 -58z" />
    <glyph glyph-name="gcircumflex" unicode="&#x11d;" horiz-adv-x="974" 
d="M344 -385q-338 0 -338 268q0 35 12 103l9 47h200l-26 -121q-25 -109 -25 -156q0 -113 139 -112q176 0 224 227l260 1225h-29l-178 -539q-102 -308 -167 -377t-163 -67q-188 0 -188 153q0 37 45 283l43 250q31 178 109 261q79 83 217 83t233 -86l47 143h231l-251 -1255
q-66 -330 -404 -330zM561 1096q-137 0 -174 -181l-96 -436q-43 -188 -43 -226t15 -56t61 -19q68 0 114 88t115 291l158 469q-74 70 -150 70zM545 1366l-240 -147l-12 16l252 235h24l154 -235l-18 -16l-156 147h-4z" />
    <glyph glyph-name="Gbreve" unicode="&#x11e;" horiz-adv-x="1075" 
d="M532 1640q0 -116 172 -116t218 131l24 2q-53 -199 -256 -199q-92 0 -138 45t-46 121q0 20 2 33l24 -2v-15zM432 -16q-373 0 -373 313q0 55 21 145l119 564q82 383 454 383q125 -1 217 -53t109 -167h4l47 220h41l-104 -492h-222l33 156q31 145 31 182q0 123 -131 123
q-106 0 -160 -60t-74 -170l-159 -843q-16 -90 -17 -123q0 -147 154 -148q92 0 139 52t70 153l86 399h-160l10 48h367l-146 -682h-40l47 219h-4q-53 -103 -149 -161t-210 -58z" />
    <glyph glyph-name="gbreve" unicode="&#x11f;" horiz-adv-x="974" 
d="M344 -385q-338 0 -338 268q0 35 12 103l9 47h200l-26 -121q-25 -109 -25 -156q0 -113 139 -112q176 0 224 227l260 1225h-29l-178 -539q-102 -308 -167 -377t-163 -67q-188 0 -188 153q0 37 45 283l43 250q31 178 109 261q79 83 217 83t233 -86l47 143h231l-251 -1255
q-66 -330 -404 -330zM561 1096q-137 0 -174 -181l-96 -436q-43 -188 -43 -226t15 -56t61 -19q68 0 114 88t115 291l158 469q-74 70 -150 70zM420 1427q0 -114 168 -114t207 141h24q-47 -211 -250 -211q-176 0 -176 176q0 20 4 35h25q-2 -6 -2 -27z" />
    <glyph glyph-name="Gdotaccent" unicode="&#x120;" horiz-adv-x="1075" 
d="M722 1659q42 0 66 -23q24 -24 25 -66q-1 -42 -31 -71t-73 -29t-66 26t-23 64t30 69q30 30 72 30zM432 -16q-373 0 -373 313q0 55 21 145l119 564q82 383 454 383q125 -1 217 -53t109 -167h4l47 220h41l-104 -492h-222l33 156q31 145 31 182q0 123 -131 123
q-106 0 -160 -60t-74 -170l-159 -843q-16 -90 -17 -123q0 -147 154 -148q92 0 139 52t70 153l86 399h-160l10 48h367l-146 -682h-40l47 219h-4q-53 -103 -149 -161t-210 -58z" />
    <glyph glyph-name="gdotaccent" unicode="&#x121;" horiz-adv-x="974" 
d="M344 -385q-338 0 -338 268q0 35 12 103l9 47h200l-26 -121q-25 -109 -25 -156q0 -113 139 -112q176 0 224 227l260 1225h-29l-178 -539q-102 -308 -167 -377t-163 -67q-188 0 -188 153q0 37 45 283l43 250q31 178 109 261q79 83 217 83t233 -86l47 143h231l-251 -1255
q-66 -330 -404 -330zM561 1096q-137 0 -174 -181l-96 -436q-43 -188 -43 -226t15 -56t61 -19q68 0 114 88t115 291l158 469q-74 70 -150 70zM694 1364q0 -45 -32 -75q-32 -29 -75 -29q-44 0 -69 28q-24 28 -24 67q0 41 30 71t76 30q94 0 94 -92z" />
    <glyph glyph-name="Gcommaaccent" unicode="&#x122;" horiz-adv-x="1075" 
d="M477 -174q0 -98 -74 -154t-186 -57l6 25q90 0 147 44q56 44 60 119h-4q-25 -51 -71 -51t-66 22q-21 22 -21 60t32 65t77 27t73 -27q27 -28 27 -73zM432 -16q-373 0 -373 313q0 55 21 145l119 564q82 383 454 383q125 -1 217 -53t109 -167h4l47 220h41l-104 -492h-222
l33 156q31 145 31 182q0 123 -131 123q-106 0 -160 -60t-74 -170l-159 -843q-16 -90 -17 -123q0 -147 154 -148q92 0 139 52t70 153l86 399h-160l10 48h367l-146 -682h-40l47 219h-4q-53 -103 -149 -161t-210 -58z" />
    <glyph glyph-name="gcommaaccent" unicode="&#x123;" horiz-adv-x="974" 
d="M480 1573q88 1 87 -81q1 -38 -31 -66t-77 -28t-73 28t-28 73q0 99 74 155t186 56l-6 -27q-92 0 -148 -43t-58 -120h4q24 53 70 53zM344 -385q-338 0 -338 268q0 35 12 103l9 47h200l-26 -121q-25 -109 -25 -156q0 -113 139 -112q176 0 224 227l260 1225h-29l-178 -539
q-102 -308 -167 -377t-163 -67q-188 0 -188 153q0 37 45 283l43 250q31 178 109 261q79 83 217 83t233 -86l47 143h231l-251 -1255q-66 -330 -404 -330zM561 1096q-137 0 -174 -181l-96 -436q-43 -188 -43 -226t15 -56t61 -19q68 0 114 88t115 291l158 469q-74 70 -150 70z
" />
    <glyph glyph-name="Hcircumflex" unicode="&#x124;" horiz-adv-x="1165" 
d="M776 1561l-254 -115l-12 16l266 189h25l172 -189l-21 -16q-57 37 -172 115h-4zM915 31l-8 -31h-415l8 31h92l139 655h-305l-139 -655h92l-8 -31h-414l6 31h103l276 1310h-102l8 31h416l-9 -31h-92l-127 -608h305l127 608h-92l8 31h416l-8 -31h-102l-277 -1310h102z" />
    <glyph glyph-name="hcircumflex" unicode="&#x125;" horiz-adv-x="1089" 
d="M772 1143q168 0 168 -148q0 -29 -39 -239l-67 -344q-66 -332 -66 -350t7 -27q7 -8 28 -8q72 0 102 141l45 213h37l-45 -213q-24 -100 -64 -142t-127 -42t-129 22t-42 76q0 53 63 342l84 385q35 156 35 203q0 66 -53 65q-55 0 -97 -83t-96 -257l-225 -737h-242l293 1464
h-94l8 31h289l-309 -1464h28l213 706q72 238 130 322t165 84zM471 1735l-240 -148l-12 17l252 235h25l153 -235l-18 -17l-156 148h-4z" />
    <glyph glyph-name="Hbar" unicode="&#x126;" horiz-adv-x="1165" 
d="M436 733h305l56 264h-305zM915 31l-8 -31h-415l8 31h92l139 655h-305l-139 -655h92l-8 -31h-414l6 31h103l202 966h-137l8 43h140l63 301h-102l8 31h416l-9 -31h-92l-63 -301h305l63 301h-92l8 31h416l-8 -31h-102l-64 -301h141l-8 -43h-143l-203 -966h102z" />
    <glyph glyph-name="hbar" unicode="&#x127;" horiz-adv-x="1052" 
d="M770 1143q168 0 168 -148q0 -29 -39 -239l-68 -344q-65 -332 -65 -350t7 -27q7 -8 28 -8q72 0 102 141l45 213h37l-45 -213q-24 -100 -64 -142t-127 -42t-129 22t-42 76q0 53 63 342l84 385q35 156 35 203q0 66 -53 65q-55 0 -97 -83t-96 -257l-225 -737h-242l252 1260
h-113l9 43h112l33 161h-94l8 31h289l-41 -192h157q-8 -29 -10 -43h-157l-259 -1229h29l213 706q72 240 129 323t166 83z" />
    <glyph glyph-name="Itilde" unicode="&#x128;" horiz-adv-x="630" 
d="M336 1567q-66 0 -90 -64l-10 -24l-25 6l12 33q19 51 61 83q42 31 96 31t103 -33l56 -34q31 -23 67 -23q63 0 88 64l11 24l26 -6l-12 -33q-45 -115 -160 -114q-53 0 -102 32l-54 35q-35 23 -67 23zM373 31l-6 -31h-426l6 31h102l277 1310h-103l8 31h426l-8 -31h-102
l-277 -1310h103z" />
    <glyph glyph-name="itilde" unicode="&#x129;" horiz-adv-x="622" 
d="M272 -16q-96 0 -139 26t-43 88q0 31 60 308l145 690h-94l8 30h274l-151 -766q-56 -276 -56 -294q-1 -40 48 -39q88 0 127 178l41 192h36l-41 -192q-27 -123 -73 -172t-142 -49zM655 1411l-10 -33q-16 -51 -56 -83q-40 -31 -93 -31t-97 30l-53 37q-33 20 -67 21
q-63 0 -82 -60l-9 -26l-24 6l10 33q16 51 55 83t93 32t98 -34l53 -36q31 -20 59 -21q70 0 91 62l8 26z" />
    <glyph glyph-name="Imacron" unicode="&#x12a;" horiz-adv-x="630" 
d="M723 1561l-12 -54h-482l13 54h481zM373 31l-6 -31h-426l6 31h102l277 1310h-103l8 31h426l-8 -31h-102l-277 -1310h103z" />
    <glyph glyph-name="imacron" unicode="&#x12b;" horiz-adv-x="622" 
d="M272 -16q-96 0 -139 26t-43 88q0 31 60 308l145 690h-94l8 30h274l-151 -766q-56 -276 -56 -294q-1 -40 48 -39q88 0 127 178l41 192h36l-41 -192q-27 -123 -73 -172t-142 -49zM641 1335l-10 -53h-449l11 53h448z" />
    <glyph glyph-name="Iogonek" unicode="&#x12e;" horiz-adv-x="630" 
d="M4 -274q0 -90 111 -91h12l-4 -20h-19q-86 0 -148 30t-62 83t19 88q19 34 64 66t65 42t71 37l80 39h-252l6 31h102l277 1310h-103l8 31h426l-8 -31h-102l-277 -1310h103l-6 -31h-123l-60 -31q-180 -96 -180 -243z" />
    <glyph glyph-name="iogonek" unicode="&#x12f;" horiz-adv-x="612" 
d="M446 1493q97 1 97 -97q0 -46 -33 -79t-81 -33t-74 26q-25 26 -25 72t34 78q34 33 82 33zM127 -274q0 -90 111 -91h12l-4 -20h-19q-86 0 -148 30q-63 30 -63 83q-1 96 84 154q44 32 64 42t72 37l46 23h-12q-94 0 -137 26t-43 88q0 31 60 308l145 690h-94l8 30h274
l-151 -766q-56 -276 -56 -294q-1 -40 48 -39q88 0 127 178l41 192h36l-41 -192q-27 -123 -72 -172q-19 -21 -48 -33l-60 -31q-180 -96 -180 -243z" />
    <glyph glyph-name="Idotaccent" unicode="&#x130;" horiz-adv-x="630" 
d="M471 1470q-43 0 -65 26t-23 64q0 38 30 69q29 30 71 30t67 -23q25 -24 25 -66t-32 -71q-30 -29 -73 -29zM373 31l-6 -31h-426l6 31h102l277 1310h-103l8 31h426l-8 -31h-102l-277 -1310h103z" />
    <glyph glyph-name="dotlessi" unicode="&#x131;" horiz-adv-x="622" 
d="M272 -16q-96 0 -139 26t-43 88q0 31 60 308l145 690h-94l8 30h274l-151 -766q-56 -276 -56 -294q-1 -40 48 -39q88 0 127 178l41 192h36l-41 -192q-27 -123 -73 -172t-142 -49z" />
    <glyph glyph-name="IJ" unicode="&#x132;" horiz-adv-x="1478" 
d="M844 -16q-286 0 -285 221h-4l-45 -221h-41l125 585h207l-76 -348q-14 -61 -14 -98q1 -109 115 -109t143 144l250 1183h-127l8 31h450l-8 -31h-102l-217 -1032q-35 -157 -135 -241q-102 -84 -244 -84zM373 31l-6 -31h-426l6 31h102l277 1310h-103l8 31h426l-8 -31h-102
l-277 -1310h103z" />
    <glyph glyph-name="ij" unicode="&#x133;" horiz-adv-x="1155" 
d="M487 -369h-63l6 31h25q71 0 107 37t52 123l256 1274h-94l6 30h291l-252 -1192q-35 -166 -105 -234t-229 -69zM1035 1493q48 1 73 -25t25 -72t-33 -79t-82 -33t-74 26q-24 26 -24 72t33 78q34 33 82 33zM446 1493q97 1 97 -97q0 -46 -33 -79t-81 -33t-74 26q-25 26 -25 72
t34 78q34 33 82 33zM272 -16q-96 0 -139 26t-43 88q0 31 60 308l145 690h-94l8 30h274l-151 -766q-56 -276 -56 -294q-1 -40 48 -39q88 0 127 178l41 192h36l-41 -192q-27 -123 -73 -172t-142 -49z" />
    <glyph glyph-name="Jcircumflex" unicode="&#x134;" horiz-adv-x="897" 
d="M805 1561l-254 -115l-12 16l266 189h24l172 -189l-20 -16q-57 37 -172 115h-4zM278 -16q-287 0 -286 221h-4l-45 -221h-41l125 585h206l-75 -348q-14 -61 -15 -98q0 -109 115 -109t143 144l250 1183h-127l8 31h451l-8 -31h-103l-217 -1032q-35 -157 -135 -241t-242 -84z
" />
    <glyph glyph-name="jcircumflex" unicode="&#x135;" horiz-adv-x="577" 
d="M430 1366l-240 -147l-12 16l252 235h25l153 -235l-18 -16l-156 147h-4zM-88 -369h-64l7 31h24q70 0 107 37t53 123l256 1274h-94l6 30h291l-252 -1192q-35 -166 -106 -234t-228 -69z" />
    <glyph glyph-name="Kcommaaccent" unicode="&#x136;" horiz-adv-x="1110" 
d="M569 -174q0 -98 -73 -155q-74 -56 -187 -56l6 25q90 0 147 44q56 44 60 119h-4q-25 -51 -71 -51t-66 22q-21 22 -21 60t32 65t77 27t73 -27q27 -28 27 -73zM575 121q0 31 31 176l35 160q25 111 25 153q0 125 -154 125h-63l-148 -704h111l-6 -31h-435l6 31h103l276 1310
h-102l8 31h438l-6 -31h-116l-121 -575h37l450 575h-121l8 31h295l-8 -31h-114l-455 -575h29q293 0 292 -217q0 -39 -14 -111l-47 -227q-27 -117 -25 -137q0 -47 52 -47q72 0 98 118l53 248h41l-53 -248q-21 -96 -65 -129t-132 -32q-203 0 -203 137z" />
    <glyph glyph-name="kcommaaccent" unicode="&#x137;" horiz-adv-x="1052" 
d="M561 -174q0 -98 -74 -154t-186 -57l6 25q90 0 147 44q56 44 60 119h-4q-25 -51 -71 -51t-66 22q-21 22 -21 60t32 65t77 27t73 -27q27 -28 27 -73zM765 -16q-87 0 -130 22t-43 79q0 56 35 200l24 106q35 162 35 174q0 51 -34 78t-91 27h-37l-205 -670h-241l293 1464h-95
l7 31h290l-309 -1464h29l223 739q62 203 124 288t164 85t147 -35q46 -35 46 -94q0 -31 -12 -82q-27 -106 -87 -150t-222 -75l-76 -15l-2 -4h12q258 0 258 -139q0 -49 -32 -195l-21 -94q-35 -162 -35 -194q0 -39 39 -39q74 0 105 141l45 213h37l-45 -213q-23 -100 -66 -142
t-130 -42zM760 1077q-59 0 -108 -70q-48 -71 -97 -237l-23 -76l103 29q77 20 109 57q32 38 54 130t21 112q0 55 -59 55z" />
    <glyph glyph-name="kgreenlandic" unicode="&#x138;" horiz-adv-x="1052" 
d="M765 -16q-87 0 -130 22t-43 79q0 56 35 200l24 106q35 162 35 174q0 51 -34 78t-91 27h-37l-205 -670h-241l217 1096h-94l6 30h291l-234 -1095h29l223 739q62 203 124 288t164 85t147 -35q46 -35 46 -94q0 -31 -12 -82q-27 -106 -87 -150t-222 -75l-76 -15l-2 -4h12
q258 0 258 -139q0 -49 -32 -195l-21 -94q-35 -162 -35 -194q0 -39 39 -39q74 0 105 141l45 213h37l-45 -213q-23 -100 -66 -142t-130 -42zM760 1077q-59 0 -108 -70q-48 -71 -97 -237l-23 -76l103 29q77 20 109 57q32 38 54 130t21 112q0 55 -59 55z" />
    <glyph glyph-name="Lacute" unicode="&#x139;" horiz-adv-x="909" 
d="M676 1544l-408 -82l-10 19l393 170zM793 426l-91 -426h-753l6 31h102l277 1310h-103l9 31h465l-9 -31h-141l-268 -1269h391l74 354h41z" />
    <glyph glyph-name="lacute" unicode="&#x13a;" horiz-adv-x="606" 
d="M266 -16q-182 0 -182 101q0 50 53 298l228 1081h-95l9 31h274l-229 -1137q-55 -270 -56 -288q0 -43 47 -43q88 0 129 178l43 192h37l-43 -192q-29 -127 -73 -174q-46 -47 -142 -47zM672 1741l-353 -150l-12 17l320 231z" />
    <glyph glyph-name="Lcommaaccent" unicode="&#x13b;" horiz-adv-x="909" 
d="M477 -174q0 -98 -74 -154t-186 -57l6 25q90 0 147 44q56 44 60 119h-4q-25 -51 -71 -51t-66 22q-21 22 -21 60t32 65t77 27t73 -27q27 -28 27 -73zM793 426l-91 -426h-753l6 31h102l277 1310h-103l9 31h465l-9 -31h-141l-268 -1269h391l74 354h41z" />
    <glyph glyph-name="lcommaaccent" unicode="&#x13c;" horiz-adv-x="606" 
d="M204 -248q-86 0 -87 82q0 38 31 65q32 27 77 27t73 -28t28 -72q0 -98 -74 -154t-186 -57l6 25q90 0 146 44t61 119h-5q-24 -51 -70 -51zM266 -16q-182 0 -182 101q0 50 53 298l228 1081h-95l9 31h274l-229 -1137q-55 -270 -56 -288q0 -43 47 -43q88 0 129 178l43 192h37
l-43 -192q-29 -127 -73 -174q-46 -47 -142 -47z" />
    <glyph glyph-name="Lcaron" unicode="&#x13d;" horiz-adv-x="925" 
d="M952 1290q0 -88 -72 -147t-175 -60l6 25q86 0 137 45t53 119h-4q-16 -51 -74 -51q-76 0 -75 73q0 39 30 67q31 28 76 28q46 0 72 -28t26 -71zM793 426l-91 -426h-753l6 31h102l277 1310h-103l9 31h465l-9 -31h-141l-268 -1269h391l74 354h41z" />
    <glyph glyph-name="lcaron" unicode="&#x13e;" horiz-adv-x="610" 
d="M838 1413q0 -88 -72 -147t-176 -60l6 25q86 0 137 45t53 119h-4q-16 -51 -73 -52q-76 0 -76 74q0 39 31 67q32 28 76 28t71 -28t27 -71zM266 -16q-182 0 -182 101q0 50 53 298l228 1081h-95l9 31h274l-229 -1137q-55 -270 -56 -288q0 -43 47 -43q88 0 129 178l43 192h37
l-43 -192q-29 -127 -73 -174q-46 -47 -142 -47z" />
    <glyph glyph-name="Ldot" unicode="&#x13f;" horiz-adv-x="909" 
d="M793 426l-91 -426h-753l6 31h102l277 1310h-103l9 31h465l-9 -31h-141l-268 -1269h391l74 354h41zM649 731q55 -1 88 -31t33 -83t-42 -95t-97 -41q-55 0 -86 30t-31 86t40 95t95 39z" />
    <glyph glyph-name="ldot" unicode="&#x140;" horiz-adv-x="743" 
d="M635 731q55 -1 88 -31t33 -83t-42 -95t-98 -41q-56 0 -86 30t-30 86t40 95t95 39zM266 -16q-182 0 -182 101q0 50 53 298l228 1081h-95l9 31h274l-229 -1137q-55 -270 -56 -288q0 -43 47 -43q88 0 129 178l43 192h37l-43 -192q-29 -127 -73 -174q-46 -47 -142 -47z" />
    <glyph glyph-name="Lslash" unicode="&#x141;" horiz-adv-x="911" 
d="M0 414l10 49l152 63l172 815h-103l9 31h465l-9 -31h-141l-152 -712l297 127l-10 -49l-297 -125l-106 -510h391l74 354h41l-91 -426h-753l6 31h102l95 446z" />
    <glyph glyph-name="lslash" unicode="&#x142;" horiz-adv-x="612" 
d="M266 -16q-182 0 -182 101q0 50 53 298l31 145l-164 -69l8 43l164 69l189 893h-95l9 31h274l-168 -836l176 76l-8 -43l-178 -76l-51 -258q-55 -274 -56 -288q0 -43 47 -43q88 0 129 178l43 192h37l-43 -192q-29 -127 -73 -174q-46 -47 -142 -47z" />
    <glyph glyph-name="Nacute" unicode="&#x143;" horiz-adv-x="1101" 
d="M954 1544l-407 -82l-10 19l393 170zM1157 1341h-92l-285 -1341h-291l-106 1341h-29l-276 -1310h117l-9 -31h-260l8 31h95l276 1310h-94l6 31h387l107 -1341h28l277 1310h-117l6 31h260z" />
    <glyph glyph-name="nacute" unicode="&#x144;" horiz-adv-x="1085" 
d="M763 -16q-171 0 -171 95q0 50 65 343l84 383q35 156 35 214t-54 58t-97 -84t-97 -258l-223 -735h-244l218 1096h-95l9 30h288l-233 -1095h28l213 704q71 240 131 324t164 84q168 0 168 -148q0 -29 -39 -239l-67 -348q-66 -342 -66 -345q0 -37 37 -36q70 0 101 141l45 213
h36l-45 -213q-24 -100 -64 -142t-127 -42zM860 1372l-352 -149l-12 16l319 231z" />
    <glyph glyph-name="Ncommaaccent" unicode="&#x145;" horiz-adv-x="1101" 
d="M512 -174q0 -98 -74 -154t-186 -57l6 25q90 0 146 44t61 119h-4q-25 -51 -71 -51t-66 22t-20 60t31 65q32 27 77 27q44 0 72 -28t28 -72zM1157 1341h-92l-285 -1341h-291l-106 1341h-29l-276 -1310h117l-9 -31h-260l8 31h95l276 1310h-94l6 31h387l107 -1341h28l277 1310
h-117l6 31h260z" />
    <glyph glyph-name="ncommaaccent" unicode="&#x146;" horiz-adv-x="1085" 
d="M553 -174q0 -98 -74 -154t-186 -57l6 25q90 0 146 44t61 119h-4q-25 -51 -71 -51t-66 22q-21 22 -21 60t32 65t77 27t73 -28t27 -72zM763 -16q-171 0 -171 95q0 50 65 343l84 383q35 156 35 214t-54 58t-97 -84t-97 -258l-223 -735h-244l218 1096h-95l9 30h288
l-233 -1095h28l213 704q71 240 131 324t164 84q168 0 168 -148q0 -29 -39 -239l-67 -348q-66 -342 -66 -345q0 -37 37 -36q70 0 101 141l45 213h36l-45 -213q-24 -100 -64 -142t-127 -42z" />
    <glyph glyph-name="Ncaron" unicode="&#x147;" horiz-adv-x="1101" 
d="M991 1642q-159 -115 -268 -188h-25l-170 188l21 17q115 -78 172 -115h4l254 115zM1157 1341h-92l-285 -1341h-291l-106 1341h-29l-276 -1310h117l-9 -31h-260l8 31h95l276 1310h-94l6 31h387l107 -1341h28l277 1310h-117l6 31h260z" />
    <glyph glyph-name="ncaron" unicode="&#x148;" horiz-adv-x="1085" 
d="M633 1323l237 147l13 -16l-252 -235h-25l-153 235l20 16l156 -147h4zM763 -16q-171 0 -171 95q0 50 65 343l84 383q35 156 35 214t-54 58t-97 -84t-97 -258l-223 -735h-244l218 1096h-95l9 30h288l-233 -1095h28l213 704q71 240 131 324t164 84q168 0 168 -148
q0 -29 -39 -239l-67 -348q-66 -342 -66 -345q0 -37 37 -36q70 0 101 141l45 213h36l-45 -213q-24 -100 -64 -142t-127 -42z" />
    <glyph glyph-name="napostrophe" unicode="&#x149;" horiz-adv-x="1085" 
d="M408 1323q-86 -1 -86 81q0 38 32 66t76 27q44 1 72 -27t28 -73q0 -98 -73 -155q-74 -56 -187 -56l6 24q90 0 147 44q56 44 60 120h-4q-25 -51 -71 -51zM763 -16q-171 0 -171 95q0 50 65 343l84 383q35 156 35 214t-54 58t-97 -84t-97 -258l-223 -735h-244l218 1096h-95
l9 30h288l-233 -1095h28l213 704q71 240 131 324t164 84q168 0 168 -148q0 -29 -39 -239l-67 -348q-66 -342 -66 -345q0 -37 37 -36q70 0 101 141l45 213h36l-45 -213q-24 -100 -64 -142t-127 -42z" />
    <glyph glyph-name="Omacron" unicode="&#x14c;" horiz-adv-x="1081" 
d="M965 1561l-13 -54h-481l12 54h482zM672 1358q-182 0 -226 -225l-159 -836q-20 -111 -21 -147q0 -135 142 -136q182 1 225 226l160 831q18 109 20 152q0 135 -141 135zM659 1389q169 0 265 -78t96 -228q0 -66 -14 -125l-127 -596q-80 -379 -457 -378q-170 0 -265 76
t-96 229q0 70 13 123l127 596q80 381 458 381z" />
    <glyph glyph-name="omacron" unicode="&#x14d;" horiz-adv-x="960" 
d="M568 1143q326 0 327 -262q0 -53 -12 -111l-97 -448q-35 -166 -138 -252t-263 -86q-319 0 -319 262q0 49 12 110l94 447q70 340 396 340zM574 1112q-78 0 -121 -52t-62 -145l-127 -688q-14 -86 -14 -94q0 -59 28 -89t95 -30q157 0 194 195l123 661q16 82 16 132t-26 80
q-28 30 -106 30zM852 1335l-10 -53h-449l10 53h449z" />
    <glyph glyph-name="Obreve" unicode="&#x14e;" horiz-adv-x="1081" 
d="M543 1640q0 -116 172 -116t217 131l24 2q-53 -199 -256 -199q-92 0 -138 45t-46 121q0 20 2 33l25 -2v-15zM672 1358q-182 0 -226 -225l-159 -836q-20 -111 -21 -147q0 -135 142 -136q182 1 225 226l160 831q18 109 20 152q0 135 -141 135zM659 1389q169 0 265 -78
t96 -228q0 -66 -14 -125l-127 -596q-80 -379 -457 -378q-170 0 -265 76t-96 229q0 70 13 123l127 596q80 381 458 381z" />
    <glyph glyph-name="obreve" unicode="&#x14f;" horiz-adv-x="960" 
d="M568 1143q326 0 327 -262q0 -53 -12 -111l-97 -448q-35 -166 -138 -252t-263 -86q-319 0 -319 262q0 49 12 110l94 447q70 340 396 340zM574 1112q-78 0 -121 -52t-62 -145l-127 -688q-14 -86 -14 -94q0 -59 28 -89t95 -30q157 0 194 195l123 661q16 82 16 132t-26 80
q-28 30 -106 30zM471 1427q0 -114 168 -114t207 141h24q-47 -211 -249 -211q-176 0 -177 176q0 20 5 35h24q-2 -6 -2 -27z" />
    <glyph glyph-name="Ohungarumlaut" unicode="&#x150;" horiz-adv-x="1081" 
d="M1100 1552l-359 -110l-10 18l336 191zM811 1552l-358 -110l-11 18l336 191zM672 1358q-182 0 -226 -225l-159 -836q-20 -111 -21 -147q0 -135 142 -136q182 1 225 226l160 831q18 109 20 152q0 135 -141 135zM659 1389q169 0 265 -78t96 -228q0 -66 -14 -125l-127 -596
q-80 -379 -457 -378q-170 0 -265 76t-96 229q0 70 13 123l127 596q80 381 458 381z" />
    <glyph glyph-name="ohungarumlaut" unicode="&#x151;" horiz-adv-x="960" 
d="M568 1143q326 0 327 -262q0 -53 -12 -111l-97 -448q-35 -166 -138 -252t-263 -86q-319 0 -319 262q0 49 12 110l94 447q70 340 396 340zM574 1112q-78 0 -121 -52t-62 -145l-127 -688q-14 -86 -14 -94q0 -59 28 -89t95 -30q157 0 194 195l123 661q16 82 16 132t-26 80
q-28 30 -106 30zM715 1380l-307 -157l-13 16l279 231zM969 1380l-307 -157l-13 16l279 231z" />
    <glyph glyph-name="OE" unicode="&#x152;" horiz-adv-x="1482" 
d="M428 -16q-174 0 -268 81t-94 238q0 45 14 109l127 596q82 381 455 381q160 0 225 -89h4l16 72h592l-69 -328h-41l55 265h-365l-123 -572h267l41 193h41l-93 -441h-41l43 193h-268l-131 -619h420l70 322h41l-82 -385h-648l13 66h-4q-72 -82 -197 -82zM831 1219
q0 139 -147 139q-188 0 -231 -225l-168 -885q-10 -61 -11 -92q0 -141 148 -142q100 0 147 58t70 168l178 868q14 72 14 111z" />
    <glyph glyph-name="oe" unicode="&#x153;" horiz-adv-x="1470" 
d="M1082 1143q322 0 321 -244q0 -55 -17 -119q-41 -160 -131 -228t-251 -112l-183 -49l-18 -100q-17 -89 -17 -143t32 -89t110 -34q139 -1 217 73t110 221l19 82h41l-19 -79q-41 -176 -130 -257t-246 -81q-197 0 -252 120h-4q-84 -121 -271 -120q-153 0 -239 68t-86 200
q0 47 12 104l96 447q72 340 408 340q195 0 250 -115h4q86 115 244 115zM723 989q0 123 -129 123q-164 0 -201 -197l-121 -657q-16 -94 -16 -123q0 -121 127 -121q164 0 201 195l98 541q41 213 41 239zM1108 1112q-156 0 -188 -182l-93 -502l117 31q110 29 162 79t72 162
l32 189q12 82 13 108q0 115 -115 115z" />
    <glyph glyph-name="Racute" unicode="&#x154;" horiz-adv-x="1159" 
d="M913 1544l-407 -82l-10 19l393 170zM696 553q0 133 -157 133h-103l-139 -655h115l-6 -31h-439l6 31h103l276 1310h-102l8 31h430q309 0 309 -248q-6 -74 -10 -98l-12 -61q-51 -244 -307 -256v-4q238 -10 237 -201q0 -31 -14 -107l-45 -209q-23 -98 -23 -116q0 -45 41 -45
q67 -1 92 110l52 240h41l-52 -240q-20 -92 -64 -123t-128 -30q-190 0 -191 125q0 37 21 127l37 170q2 12 13 68t11 79zM559 717q150 0 182 160l47 221q16 76 17 110q0 133 -141 133h-91l-131 -624h117z" />
    <glyph glyph-name="racute" unicode="&#x155;" horiz-adv-x="919" 
d="M737 1035q0 42 -38 42q-39 1 -77 -71t-98 -271l-225 -735h-242l217 1096h-94l8 30h289l-233 -1095h28l213 704q99 331 180 382q41 26 109 26t105 -35t37 -87t-25 -196l-31 -172h-201l41 181q37 159 37 201zM788 1372l-352 -149l-12 16l319 231z" />
    <glyph glyph-name="Rcommaaccent" unicode="&#x156;" horiz-adv-x="1159" 
d="M559 -174q0 -98 -74 -154t-186 -57l6 25q90 0 147 44q56 44 60 119h-4q-25 -51 -71 -51t-66 22q-21 22 -21 60t32 65t77 27t73 -28t27 -72zM696 553q0 133 -157 133h-103l-139 -655h115l-6 -31h-439l6 31h103l276 1310h-102l8 31h430q309 0 309 -248q-6 -74 -10 -98
l-12 -61q-51 -244 -307 -256v-4q238 -10 237 -201q0 -31 -14 -107l-45 -209q-23 -98 -23 -116q0 -45 41 -45q67 -1 92 110l52 240h41l-52 -240q-20 -92 -64 -123t-128 -30q-190 0 -191 125q0 37 21 127l37 170q2 12 13 68t11 79zM559 717q150 0 182 160l47 221q16 76 17 110
q0 133 -141 133h-91l-131 -624h117z" />
    <glyph glyph-name="rcommaaccent" unicode="&#x157;" horiz-adv-x="919" 
d="M126 -248q-87 0 -87 82q0 38 32 65q33 27 77 27t72 -28t28 -72q0 -98 -74 -154t-186 -57l6 25q90 0 146 44t61 119h-4q-25 -51 -71 -51zM737 1035q0 42 -38 42q-39 1 -77 -71t-98 -271l-225 -735h-242l217 1096h-94l8 30h289l-233 -1095h28l213 704q99 331 180 382
q41 26 109 26t105 -35t37 -87t-25 -196l-31 -172h-201l41 181q37 159 37 201z" />
    <glyph glyph-name="Rcaron" unicode="&#x158;" horiz-adv-x="1159" 
d="M938 1642q-16 -11 -268 -188h-25l-170 188l21 17q115 -78 172 -115h4l254 115zM696 553q0 133 -157 133h-103l-139 -655h115l-6 -31h-439l6 31h103l276 1310h-102l8 31h430q309 0 309 -248q-6 -74 -10 -98l-12 -61q-51 -244 -307 -256v-4q238 -10 237 -201
q0 -31 -14 -107l-45 -209q-23 -98 -23 -116q0 -45 41 -45q67 -1 92 110l52 240h41l-52 -240q-20 -92 -64 -123t-128 -30q-190 0 -191 125q0 37 21 127l37 170q2 12 13 68t11 79zM559 717q150 0 182 160l47 221q16 76 17 110q0 133 -141 133h-91l-131 -624h117z" />
    <glyph glyph-name="rcaron" unicode="&#x159;" horiz-adv-x="919" 
d="M737 1035q0 42 -38 42q-39 1 -77 -71t-98 -271l-225 -735h-242l217 1096h-94l8 30h289l-233 -1095h28l213 704q99 331 180 382q41 26 109 26t105 -35t37 -87t-25 -196l-31 -172h-201l41 181q37 159 37 201zM586 1323l237 147l13 -16l-252 -235h-25l-153 235l20 16
l156 -147h4z" />
    <glyph glyph-name="Sacute" unicode="&#x15a;" horiz-adv-x="1050" 
d="M922 1544l-408 -82l-10 19l393 170zM258 137q0 -123 141 -123q100 0 151 49q50 49 71 148l16 74q8 31 8 71q0 90 -76 154l-211 178q-123 102 -122 246q0 41 12 92l14 66q66 297 374 297t325 -240h4l51 240h39l-103 -482h-215l35 160q31 135 31 181t-29 78t-106 32
q-170 0 -207 -184l-12 -60q-8 -45 -9 -61q0 -82 78 -148l213 -184q131 -115 131 -266q0 -45 -14 -117l-8 -39q-66 -315 -398 -315t-346 256h-4l-55 -256h-37l106 497h220l-37 -172q-31 -133 -31 -172z" />
    <glyph glyph-name="sacute" unicode="&#x15b;" horiz-adv-x="843" 
d="M543 1112q-141 0 -170 -145l-13 -60q-6 -25 -6 -47q0 -61 66 -121l186 -164q102 -88 103 -210q0 -35 -11 -86l-8 -37q-57 -258 -344 -258q-254 0 -285 196h-4l-41 -196h-36l79 378h183l-17 -77q-31 -139 -30 -164q0 -106 124 -107q143 0 183 160l12 53q8 33 8 68
q-2 68 -67 127l-179 156q-96 86 -96 192q0 27 10 88l7 33q47 252 327 252q233 0 260 -182h4l39 182h39l-78 -363h-176l19 86q25 113 24 146q0 100 -112 100zM795 1372l-353 -149l-12 16l320 231z" />
    <glyph glyph-name="Scircumflex" unicode="&#x15c;" horiz-adv-x="1050" 
d="M711 1561l-254 -115l-13 16l267 189h24l172 -189l-20 -16q-57 37 -172 115h-4zM258 137q0 -123 141 -123q100 0 151 49q50 49 71 148l16 74q8 31 8 71q0 90 -76 154l-211 178q-123 102 -122 246q0 41 12 92l14 66q66 297 374 297t325 -240h4l51 240h39l-103 -482h-215
l35 160q31 135 31 181t-29 78t-106 32q-170 0 -207 -184l-12 -60q-8 -45 -9 -61q0 -82 78 -148l213 -184q131 -115 131 -266q0 -45 -14 -117l-8 -39q-66 -315 -398 -315t-346 256h-4l-55 -256h-37l106 497h220l-37 -172q-31 -133 -31 -172z" />
    <glyph glyph-name="scircumflex" unicode="&#x15d;" horiz-adv-x="843" 
d="M543 1112q-141 0 -170 -145l-13 -60q-6 -25 -6 -47q0 -61 66 -121l186 -164q102 -88 103 -210q0 -35 -11 -86l-8 -37q-57 -258 -344 -258q-254 0 -285 196h-4l-41 -196h-36l79 378h183l-17 -77q-31 -139 -30 -164q0 -106 124 -107q143 0 183 160l12 53q8 33 8 68
q-2 68 -67 127l-179 156q-96 86 -96 192q0 27 10 88l7 33q47 252 327 252q233 0 260 -182h4l39 182h39l-78 -363h-176l19 86q25 113 24 146q0 100 -112 100zM582 1366l-240 -147l-12 16l252 235h24l154 -235l-19 -16l-155 147h-4z" />
    <glyph glyph-name="Scedilla" unicode="&#x15e;" horiz-adv-x="1050" 
d="M258 137q0 -123 141 -123q100 0 151 49q50 49 71 148l16 74q8 31 8 71q0 90 -76 154l-211 178q-123 102 -122 246q0 41 12 92l14 66q66 297 374 297t325 -240h4l51 240h39l-103 -482h-215l35 160q31 135 31 181t-29 78t-106 32q-170 0 -207 -184l-12 -60q-8 -45 -9 -61
q0 -82 78 -148l213 -184q131 -115 131 -266q0 -45 -14 -117l-8 -39q-66 -315 -408 -315q-49 0 -90 5l-27 -120h4q47 55 125 55q117 0 117 -102q0 -20 -10 -62q-31 -145 -169 -145t-138 106q0 27 8 54h31q-12 -29 -13 -56q0 -80 86 -79q76 0 97 108l8 47q4 29 4 41
q0 53 -55 53t-103 -67h-37l38 173q-201 43 -212 245h-4l-55 -256h-37l106 497h220l-37 -172q-31 -133 -31 -172z" />
    <glyph glyph-name="scedilla" unicode="&#x15f;" horiz-adv-x="843" 
d="M170 -279q0 27 8 54h31q-12 -29 -12 -56q0 -80 86 -79q76 0 96 108l8 47q4 29 4 41q0 53 -55 53t-103 -67h-36l38 174q-150 36 -174 184h-4l-41 -196h-36l79 378h183l-17 -77q-31 -139 -30 -164q0 -106 124 -107q143 0 183 160l12 53q8 33 8 68q-2 68 -67 127l-179 156
q-96 86 -96 192q0 27 10 88l7 33q47 252 327 252q233 0 260 -182h4l39 182h39l-78 -363h-176l19 86q25 113 24 146q0 100 -112 100q-141 0 -170 -145l-13 -60q-6 -25 -6 -47q0 -61 66 -121l186 -164q102 -88 103 -210q0 -35 -11 -86l-8 -37q-57 -258 -344 -258q-42 0 -78 5
l-26 -120h4q47 55 125 55q117 0 116 -102q0 -20 -10 -62q-31 -145 -169 -145t-138 106z" />
    <glyph glyph-name="Scaron" unicode="&#x160;" horiz-adv-x="1050" 
d="M950 1642q-159 -115 -268 -188h-25l-170 188l21 17q115 -78 172 -115h4l254 115zM258 137q0 -123 141 -123q100 0 151 49q50 49 71 148l16 74q8 31 8 71q0 90 -76 154l-211 178q-123 102 -122 246q0 41 12 92l14 66q66 297 374 297t325 -240h4l51 240h39l-103 -482h-215
l35 160q31 135 31 181t-29 78t-106 32q-170 0 -207 -184l-12 -60q-8 -45 -9 -61q0 -82 78 -148l213 -184q131 -115 131 -266q0 -45 -14 -117l-8 -39q-66 -315 -398 -315t-346 256h-4l-55 -256h-37l106 497h220l-37 -172q-31 -133 -31 -172z" />
    <glyph glyph-name="scaron" unicode="&#x161;" horiz-adv-x="843" 
d="M543 1112q-141 0 -170 -145l-13 -60q-6 -25 -6 -47q0 -61 66 -121l186 -164q102 -88 103 -210q0 -35 -11 -86l-8 -37q-57 -258 -344 -258q-254 0 -285 196h-4l-41 -196h-36l79 378h183l-17 -77q-31 -139 -30 -164q0 -106 124 -107q143 0 183 160l12 53q8 33 8 68
q-2 68 -67 127l-179 156q-96 86 -96 192q0 27 10 88l7 33q47 252 327 252q233 0 260 -182h4l39 182h39l-78 -363h-176l19 86q25 113 24 146q0 100 -112 100zM573 1323l238 147l12 -16l-252 -235h-24l-154 235l21 16l155 -147h4z" />
    <glyph glyph-name="Tcommaaccent" unicode="&#x162;" horiz-adv-x="917" 
d="M281 -248q-86 0 -86 82q0 38 31 65q32 27 77 27t73 -27q27 -28 27 -73q0 -98 -73 -155q-74 -56 -187 -56l7 25q90 0 146 44t60 119h-4q-25 -51 -71 -51zM997 1372l-86 -395h-41l70 323h-233l-269 -1269h117l-6 -31h-455l6 31h117l268 1269h-241l-70 -323h-41l84 395h780z
" />
    <glyph glyph-name="tcommaaccent" unicode="&#x163;" horiz-adv-x="686" 
d="M270 -174q0 -98 -73 -155q-74 -56 -187 -56l6 25q90 0 147 44q56 44 60 119h-4q-25 -51 -71 -51t-66 22t-20 60t31 65q32 27 77 27t73 -27q27 -28 27 -73zM281 94q0 -35 16 -52q17 -17 71 -17q113 0 158 211l47 215h37l-47 -215q-33 -150 -91 -201t-174 -51t-162 28
q-44 30 -44 88t17 127l182 860h-94l10 39h69q145 0 207 222h41l-45 -222h260l-8 -39h-260l-147 -743q-43 -215 -43 -250z" />
    <glyph glyph-name="Tcaron" unicode="&#x164;" horiz-adv-x="917" 
d="M891 1642q-16 -11 -268 -188h-25l-170 188l21 17q115 -78 172 -115h4l254 115zM997 1372l-86 -395h-41l70 323h-233l-269 -1269h117l-6 -31h-455l6 31h117l268 1269h-241l-70 -323h-41l84 395h780z" />
    <glyph glyph-name="tcaron" unicode="&#x165;" horiz-adv-x="698" 
d="M954 1413q0 -88 -72 -147t-175 -60l6 25q86 0 137 45t53 119h-4q-16 -51 -74 -52q-76 0 -75 74q0 39 30 67q31 28 76 28t72 -28q26 -28 26 -71zM281 94q0 -35 16 -52q17 -17 71 -17q113 0 158 211l47 215h37l-47 -215q-33 -150 -91 -201t-174 -51t-162 28q-44 30 -44 88
t17 127l182 860h-94l10 39h69q145 0 207 222h41l-45 -222h260l-8 -39h-260l-147 -743q-43 -215 -43 -250z" />
    <glyph glyph-name="Tbar" unicode="&#x166;" horiz-adv-x="917" 
d="M997 1372l-86 -395h-41l70 323h-233l-99 -464h207l-8 -43h-209l-160 -762h117l-6 -31h-455l6 31h117l160 762h-217l8 43h219l98 464h-241l-70 -323h-41l84 395h780z" />
    <glyph glyph-name="tbar" unicode="&#x167;" horiz-adv-x="686" 
d="M281 94q0 -35 16 -52q17 -17 71 -17q113 0 158 211l47 215h37l-47 -215q-33 -150 -91 -201t-174 -51t-162 28q-44 30 -44 88t17 127l104 498h-104l8 43h106l68 319h-94l10 39h69q145 0 207 222h41l-45 -222h260l-8 -39h-260l-63 -319h200l-10 -43h-199l-75 -381
q-43 -215 -43 -250z" />
    <glyph glyph-name="Utilde" unicode="&#x168;" horiz-adv-x="1007" 
d="M588 1567q-66 0 -90 -64l-11 -24l-24 6l12 33q19 51 61 83q42 31 96 31t103 -33l56 -34q31 -23 67 -23q63 0 88 64l10 24l27 -6l-12 -33q-45 -115 -160 -114q-53 0 -102 32l-54 35q-35 23 -67 23zM94 274q0 63 23 164l192 903h-102l6 31h438l-6 -31h-115l-217 -1017
q-27 -127 -24 -156q0 -154 166 -154q125 0 188 70t92 205l226 1052h-138l6 31h281l-8 -31h-90l-226 -1052q-36 -164 -112 -235q-76 -70 -236 -70t-252 72t-92 218z" />
    <glyph glyph-name="utilde" unicode="&#x169;" horiz-adv-x="1046" 
d="M765 -16q-87 0 -130 22t-43 71q0 48 28 170t39 175l142 674h-29l-211 -709q-70 -235 -130 -319t-163 -84q-166 0 -166 145q0 31 43 246l142 721h-92l6 30h288l-163 -772q-45 -211 -45 -235q0 -70 52 -70t94 82t95 256l223 739h244l-143 -718q-64 -310 -64 -346t35 -35
q72 0 103 141l45 213h36l-45 -213q-24 -100 -64 -142t-127 -42zM909 1411l-10 -33q-16 -51 -56 -83q-40 -31 -93 -31t-97 30l-53 37q-33 20 -68 21q-63 0 -81 -60l-9 -26l-24 6l10 33q16 51 55 83t92 32t99 -34l53 -36q31 -20 59 -21q70 0 91 62l8 26z" />
    <glyph glyph-name="Umacron" unicode="&#x16a;" horiz-adv-x="1007" 
d="M946 1561l-12 -54h-481l12 54h481zM94 274q0 63 23 164l192 903h-102l6 31h438l-6 -31h-115l-217 -1017q-27 -127 -24 -156q0 -154 166 -154q125 0 188 70t92 205l226 1052h-138l6 31h281l-8 -31h-90l-226 -1052q-36 -164 -112 -235q-76 -70 -236 -70t-252 72t-92 218z
" />
    <glyph glyph-name="umacron" unicode="&#x16b;" horiz-adv-x="1046" 
d="M765 -16q-87 0 -130 22t-43 71q0 48 28 170t39 175l142 674h-29l-211 -709q-70 -235 -130 -319t-163 -84q-166 0 -166 145q0 31 43 246l142 721h-92l6 30h288l-163 -772q-45 -211 -45 -235q0 -70 52 -70t94 82t95 256l223 739h244l-143 -718q-64 -310 -64 -346t35 -35
q72 0 103 141l45 213h36l-45 -213q-24 -100 -64 -142t-127 -42zM872 1335l-10 -53h-448l10 53h448z" />
    <glyph glyph-name="Ubreve" unicode="&#x16c;" horiz-adv-x="1007" 
d="M710 1524q172 0 218 131l24 2q-53 -199 -256 -199q-92 0 -138 45t-46 121q0 20 2 33l25 -2v-15q-1 -116 171 -116zM94 274q0 63 23 164l192 903h-102l6 31h438l-6 -31h-115l-217 -1017q-27 -127 -24 -156q0 -154 166 -154q125 0 188 70t92 205l226 1052h-138l6 31h281
l-8 -31h-90l-226 -1052q-36 -164 -112 -235q-76 -70 -236 -70t-252 72t-92 218z" />
    <glyph glyph-name="ubreve" unicode="&#x16d;" horiz-adv-x="1046" 
d="M765 -16q-87 0 -130 22t-43 71q0 48 28 170t39 175l142 674h-29l-211 -709q-70 -235 -130 -319t-163 -84q-166 0 -166 145q0 31 43 246l142 721h-92l6 30h288l-163 -772q-45 -211 -45 -235q0 -70 52 -70t94 82t95 256l223 739h244l-143 -718q-64 -310 -64 -346t35 -35
q72 0 103 141l45 213h36l-45 -213q-24 -100 -64 -142t-127 -42zM467 1427q0 -114 168 -114t207 141h24q-47 -211 -250 -211q-176 0 -176 176q0 20 4 35h25q-2 -6 -2 -27z" />
    <glyph glyph-name="Uring" unicode="&#x16e;" horiz-adv-x="1007" 
d="M728 1755q66 0 106 -38q40 -39 40 -105t-47 -112t-112 -46t-106 39q-40 39 -40 105t47 111q46 46 112 46zM807 1669q0 66 -68 66q-43 1 -59 -19t-25 -67l-14 -74q-4 -29 -4 -33q0 -68 65 -67q43 0 60 19q16 20 26 69l15 73q4 29 4 33zM94 274q0 63 23 164l192 903h-102
l6 31h438l-6 -31h-115l-217 -1017q-27 -127 -24 -156q0 -154 166 -154q125 0 188 70t92 205l226 1052h-138l6 31h281l-8 -31h-90l-226 -1052q-36 -164 -112 -235q-76 -70 -236 -70t-252 72t-92 218z" />
    <glyph glyph-name="uring" unicode="&#x16f;" horiz-adv-x="1046" 
d="M765 -16q-87 0 -130 22t-43 71q0 48 28 170t39 175l142 674h-29l-211 -709q-70 -235 -130 -319t-163 -84q-166 0 -166 145q0 31 43 246l142 721h-92l6 30h288l-163 -772q-45 -211 -45 -235q0 -70 52 -70t94 82t95 256l223 739h244l-143 -718q-64 -310 -64 -346t35 -35
q72 0 103 141l45 213h36l-45 -213q-24 -100 -64 -142t-127 -42zM803 1388q0 -66 -47 -113q-46 -46 -112 -46t-106 39q-40 38 -40 104t47 112t113 46t105 -38q40 -38 40 -104zM735 1444q0 66 -67 65q-44 0 -60 -19t-24 -67l-13 -73q-4 -29 -4 -33q0 -68 66 -68q43 1 59 21
t25 67l14 74q4 29 4 33z" />
    <glyph glyph-name="Uhungarumlaut" unicode="&#x170;" horiz-adv-x="1007" 
d="M1098 1552l-359 -110l-10 18l336 191zM809 1552l-358 -110l-11 18l336 191zM94 274q0 63 23 164l192 903h-102l6 31h438l-6 -31h-115l-217 -1017q-27 -127 -24 -156q0 -154 166 -154q125 0 188 70t92 205l226 1052h-138l6 31h281l-8 -31h-90l-226 -1052
q-36 -164 -112 -235q-76 -70 -236 -70t-252 72t-92 218z" />
    <glyph glyph-name="uhungarumlaut" unicode="&#x171;" horiz-adv-x="1046" 
d="M765 -16q-87 0 -130 22t-43 71q0 48 28 170t39 175l142 674h-29l-211 -709q-70 -235 -130 -319t-163 -84q-166 0 -166 145q0 31 43 246l142 721h-92l6 30h288l-163 -772q-45 -211 -45 -235q0 -70 52 -70t94 82t95 256l223 739h244l-143 -718q-64 -310 -64 -346t35 -35
q72 0 103 141l45 213h36l-45 -213q-24 -100 -64 -142t-127 -42zM741 1380l-307 -157l-12 16l278 231zM995 1380l-307 -157l-12 16l278 231z" />
    <glyph glyph-name="Uogonek" unicode="&#x172;" horiz-adv-x="1007" 
d="M332 -274q0 -90 110 -91h13l-4 -20h-19q-86 0 -148 30t-62 83q-1 96 83 154q45 32 65 42t70 37l50 24q-22 -2 -46 -1q-166 0 -258 72t-92 218q0 63 23 164l192 903h-102l6 31h438l-6 -31h-115l-217 -1017q-27 -127 -24 -156q0 -154 166 -154q125 0 188 70t92 205
l226 1052h-138l6 31h281l-8 -31h-90l-226 -1052q-35 -164 -111 -235q-42 -39 -107 -56l-56 -29q-180 -96 -180 -243z" />
    <glyph glyph-name="uogonek" unicode="&#x173;" horiz-adv-x="1046" 
d="M715 -385q-86 0 -149 30q-62 30 -62 83t19 88t65 67t135 78l45 23q-90 0 -133 22t-43 71q0 48 28 170t39 175l142 674h-29l-211 -709q-70 -235 -130 -319t-163 -84q-166 0 -166 145q0 31 43 246l142 721h-92l6 30h288l-163 -772q-45 -211 -45 -235q0 -70 52 -70t94 82
t95 256l223 739h244l-143 -718q-64 -310 -64 -346t35 -35q72 0 103 141l45 213h36l-45 -213q-22 -100 -52 -130t-58 -42l-51 -27q-180 -96 -181 -243q0 -90 111 -91h12l-4 -20h-18z" />
    <glyph glyph-name="Wcircumflex" unicode="&#x174;" horiz-adv-x="1386" 
d="M946 1561l-254 -115l-12 16l266 189h25l172 -189l-21 -16q-57 37 -172 115h-4zM1528 1372l-6 -31h-90l-478 -1341h-280l80 872h-4l-318 -872h-278l131 1341h-90l6 31h391l-6 -31h-84l-137 -1310h28l377 1042l23 268h-80l6 31h418l-9 -31h-118l-125 -1310h28l463 1310
h-119l7 31h264z" />
    <glyph glyph-name="wcircumflex" unicode="&#x175;" horiz-adv-x="1370" 
d="M797 1366l-240 -147l-12 16l252 235h24l154 -235l-19 -16l-155 147h-4zM678 305q0 94 20 248l74 543h-29l-235 -1096h-232q-88 37 -126 124t-37 179q0 92 20 250l74 543h-98l6 30h295l-84 -548q-25 -162 -25 -240q0 -240 156 -307h16l229 1095h273l-84 -548
q-25 -162 -25 -240q0 -240 154 -307h16l187 563q45 139 45 201q0 135 -174 135l45 237q88 0 150 -59t63 -180q0 -76 -24 -153t-58 -181l-199 -594h-229q-88 37 -126 124t-38 181z" />
    <glyph glyph-name="Ycircumflex" unicode="&#x176;" horiz-adv-x="833" 
d="M643 1561l-254 -115l-12 16l266 189h25l172 -189l-21 -16q-57 37 -172 115h-4zM995 1372l-6 -31h-90l-377 -784l-110 -526h102l-6 -31h-426l6 31h102l111 526l-53 784h-90l6 31h422l-6 -31h-107l37 -698h4l330 698h-107l6 31h252z" />
    <glyph glyph-name="ycircumflex" unicode="&#x177;" horiz-adv-x="882" 
d="M578 1366l-240 -147l-12 16l252 235h24l154 -235l-19 -16l-155 147h-4zM332 362q0 -268 157 -331h17l227 563q47 120 47 192t-56 117t-153 47l31 217q115 0 192 -63q76 -63 76 -182t-86 -328l-307 -750q-55 -133 -112 -181t-183 -48q-258 0 -258 207q0 53 17 125l14 61
h190l-12 -51q-33 -131 -33 -191t28 -88t98 -26q70 0 117 46q48 46 87 148l57 154h-184q-166 96 -166 342q0 88 21 236l71 518h-98l4 30h297l-80 -548q-20 -133 -20 -216z" />
    <glyph glyph-name="Ydieresis" unicode="&#x178;" horiz-adv-x="833" 
d="M795 1647q82 0 82 -78q0 -39 -28 -66t-67 -27q-82 1 -82 74q0 43 28 70t67 27zM454 1647q83 0 83 -78q0 -39 -28 -66t-67 -27q-82 1 -82 74q0 43 28 70t66 27zM995 1372l-6 -31h-90l-377 -784l-110 -526h102l-6 -31h-426l6 31h102l111 526l-53 784h-90l6 31h422l-6 -31
h-107l37 -698h4l330 698h-107l6 31h252z" />
    <glyph glyph-name="Zacute" unicode="&#x179;" horiz-adv-x="802" 
d="M836 1544l-408 -82l-10 19l393 170zM662 434l-93 -434h-641l2 18l658 1285h-307l-64 -308h-41l80 377h592l-4 -18l-658 -1284h357l78 364h41z" />
    <glyph glyph-name="zacute" unicode="&#x17a;" horiz-adv-x="727" 
d="M627 455l-97 -455h-583l2 14l645 918h-377l-51 -248h-37l92 442h563l-2 -14l-649 -922h399l58 265h37zM737 1372l-352 -149l-12 16l319 231z" />
    <glyph glyph-name="Zdotaccent" unicode="&#x17b;" horiz-adv-x="802" 
d="M561 1470q-43 0 -65 26t-23 64q0 38 30 69q30 30 72 30q43 0 67 -23q24 -24 24 -66t-31 -71t-74 -29zM662 434l-93 -434h-641l2 18l658 1285h-307l-64 -308h-41l80 377h592l-4 -18l-658 -1284h357l78 364h41z" />
    <glyph glyph-name="zdotaccent" unicode="&#x17c;" horiz-adv-x="727" 
d="M627 455l-97 -455h-583l2 14l645 918h-377l-51 -248h-37l92 442h563l-2 -14l-649 -922h399l58 265h37zM604 1364q0 -45 -32 -75q-32 -29 -76 -29t-68 28q-25 28 -25 67q0 41 31 71t76 30q94 0 94 -92z" />
    <glyph glyph-name="Zcaron" unicode="&#x17d;" horiz-adv-x="802" 
d="M815 1642q-159 -115 -268 -188h-25l-170 188l21 17q115 -78 172 -115h4l254 115zM662 434l-93 -434h-641l2 18l658 1285h-307l-64 -308h-41l80 377h592l-4 -18l-658 -1284h357l78 364h41z" />
    <glyph glyph-name="zcaron" unicode="&#x17e;" horiz-adv-x="727" 
d="M627 455l-97 -455h-583l2 14l645 918h-377l-51 -248h-37l92 442h563l-2 -14l-649 -922h399l58 265h37zM489 1323l238 147l12 -16l-252 -235h-24l-154 235l21 16l155 -147h4z" />
    <glyph glyph-name="florin" unicode="&#x192;" horiz-adv-x="903" 
d="M678 1313q0 45 -49 45q-41 0 -61 -22t-27 -64l-41 -195q-16 -73 -16 -107t10 -81l47 -225h252l-7 -31h-239l49 -223q27 -118 28 -172t-16 -129l-22 -109q-51 -242 -295 -242q-90 0 -143 37q-52 37 -56 135h-4l-39 -172h-37l90 418h181l-64 -299q-6 -31 -6 -47
q0 -41 49 -41q70 0 88 86l45 209q13 66 13 96t-11 80l-82 373h-192l6 31h180l-16 75q-29 123 -28 177t16 120l24 111q27 121 97 181q71 60 200 61q188 0 197 -172h4l37 172h37l-89 -418h-180l56 268q14 72 14 74z" />
    <glyph glyph-name="Scommaaccent" unicode="&#x218;" horiz-adv-x="1050" 
d="M481 -174q0 -98 -73 -155q-74 -56 -187 -56l6 25q90 0 147 44q56 44 60 119h-4q-25 -51 -71 -51t-66 22q-21 22 -21 60t32 65t77 27t73 -27q27 -28 27 -73zM258 137q0 -123 141 -123q100 0 151 49q50 49 71 148l16 74q8 31 8 71q0 90 -76 154l-211 178q-123 102 -122 246
q0 41 12 92l14 66q66 297 374 297t325 -240h4l51 240h39l-103 -482h-215l35 160q31 135 31 181t-29 78t-106 32q-170 0 -207 -184l-12 -60q-8 -45 -9 -61q0 -82 78 -148l213 -184q131 -115 131 -266q0 -45 -14 -117l-8 -39q-66 -315 -398 -315t-346 256h-4l-55 -256h-37
l106 497h220l-37 -172q-31 -133 -31 -172z" />
    <glyph glyph-name="scommaaccent" unicode="&#x219;" horiz-adv-x="843" 
d="M391 -174q0 -98 -74 -154t-186 -57l6 25q90 0 147 44q56 44 60 119h-4q-25 -51 -71 -51t-66 22q-21 22 -21 60t32 65t77 27t73 -27q27 -28 27 -73zM543 1112q-141 0 -170 -145l-13 -60q-6 -25 -6 -47q0 -61 66 -121l186 -164q102 -88 103 -210q0 -35 -11 -86l-8 -37
q-57 -258 -344 -258q-254 0 -285 196h-4l-41 -196h-36l79 378h183l-17 -77q-31 -139 -30 -164q0 -106 124 -107q143 0 183 160l12 53q8 33 8 68q-2 68 -67 127l-179 156q-96 86 -96 192q0 27 10 88l7 33q47 252 327 252q233 0 260 -182h4l39 182h39l-78 -363h-176l19 86
q25 113 24 146q0 100 -112 100z" />
    <glyph glyph-name="dotlessj" unicode="&#x237;" horiz-adv-x="577" 
d="M-88 -369h-64l7 31h24q70 0 107 37t53 123l256 1274h-94l6 30h291l-252 -1192q-35 -166 -106 -234t-228 -69z" />
    <glyph glyph-name="circumflex" unicode="&#x2c6;" horiz-adv-x="960" 
d="M659 1366l-239 -147l-12 16l251 235h25l154 -235l-19 -16l-155 147h-5z" />
    <glyph glyph-name="caron" unicode="&#x2c7;" horiz-adv-x="960" 
d="M633 1323l237 147l13 -16l-252 -235h-25l-153 235l20 16l156 -147h4z" />
    <glyph glyph-name="breve" unicode="&#x2d8;" horiz-adv-x="960" 
d="M481 1427q0 -114 168 -114t207 141h25q-47 -211 -250 -211q-176 0 -176 176q0 20 4 35h24q-2 -6 -2 -27z" />
    <glyph glyph-name="dotaccent" unicode="&#x2d9;" horiz-adv-x="960" 
d="M664 1456q94 0 94 -92q0 -45 -32 -75q-32 -29 -76 -29t-68 28t-25 67q0 41 31 71t76 30z" />
    <glyph glyph-name="ring" unicode="&#x2da;" horiz-adv-x="960" 
d="M817 1388q0 -66 -47 -113q-46 -46 -112 -46t-106 39q-40 38 -40 104t47 112t113 46t105 -38q40 -38 40 -104zM582 1317q0 -68 65 -68q43 1 59 21t25 67l14 74q4 29 5 33q0 66 -68 65q-43 0 -59 -19t-25 -67l-12 -73q-4 -29 -4 -33z" />
    <glyph glyph-name="ogonek" unicode="&#x2db;" horiz-adv-x="960" 
d="M264 -274q0 -90 111 -91h12l-4 -20h-18q-86 0 -149 30q-62 30 -62 83t19 88t65 67t135 78l80 39h51l-60 -31q-180 -96 -180 -243z" />
    <glyph glyph-name="tilde" unicode="&#x2dc;" horiz-adv-x="960" 
d="M889 1411l-10 -33q-17 -51 -57 -83q-40 -31 -93 -31t-96 30l-53 37q-33 20 -68 21q-63 0 -82 -60l-8 -26l-25 6l11 33q16 51 55 83t92 32t98 -34l54 -36q31 -20 59 -21q70 0 90 62l8 26z" />
    <glyph glyph-name="hungarumlaut" unicode="&#x2dd;" horiz-adv-x="960" 
d="M733 1380l-307 -157l-12 16l278 231zM987 1380l-307 -157l-12 16l278 231z" />
    <glyph glyph-name="pi" unicode="&#x3c0;" horiz-adv-x="997" 
d="M803 31l-6 -31h-371l6 31h80l221 1042h-254l-219 -1042h80l-6 -31h-371l6 31h94l224 1065h-94l8 30h833l-6 -30h-94l-225 -1065h94z" />
    <glyph glyph-name="Wgrave" unicode="&#x1e80;" horiz-adv-x="1386" 
d="M1075 1462l-407 82l24 107l393 -170zM1528 1372l-6 -31h-90l-478 -1341h-280l80 872h-4l-318 -872h-278l131 1341h-90l6 31h391l-6 -31h-84l-137 -1310h28l377 1042l23 268h-80l6 31h418l-9 -31h-118l-125 -1310h28l463 1310h-119l7 31h264z" />
    <glyph glyph-name="wgrave" unicode="&#x1e81;" horiz-adv-x="1370" 
d="M930 1223l-352 149l45 98l319 -231zM678 305q0 94 20 248l74 543h-29l-235 -1096h-232q-88 37 -126 124t-37 179q0 92 20 250l74 543h-98l6 30h295l-84 -548q-25 -162 -25 -240q0 -240 156 -307h16l229 1095h273l-84 -548q-25 -162 -25 -240q0 -240 154 -307h16l187 563
q45 139 45 201q0 135 -174 135l45 237q88 0 150 -59t63 -180q0 -76 -24 -153t-58 -181l-199 -594h-229q-88 37 -126 124t-38 181z" />
    <glyph glyph-name="Wacute" unicode="&#x1e82;" horiz-adv-x="1386" 
d="M1133 1544l-408 -82l-10 19l393 170zM1528 1372l-6 -31h-90l-478 -1341h-280l80 872h-4l-318 -872h-278l131 1341h-90l6 31h391l-6 -31h-84l-137 -1310h28l377 1042l23 268h-80l6 31h418l-9 -31h-118l-125 -1310h28l463 1310h-119l7 31h264z" />
    <glyph glyph-name="wacute" unicode="&#x1e83;" horiz-adv-x="1370" 
d="M997 1372l-352 -149l-12 16l319 231zM678 305q0 94 20 248l74 543h-29l-235 -1096h-232q-88 37 -126 124t-37 179q0 92 20 250l74 543h-98l6 30h295l-84 -548q-25 -162 -25 -240q0 -240 156 -307h16l229 1095h273l-84 -548q-25 -162 -25 -240q0 -240 154 -307h16l187 563
q45 139 45 201q0 135 -174 135l45 237q88 0 150 -59t63 -180q0 -76 -24 -153t-58 -181l-199 -594h-229q-88 37 -126 124t-38 181z" />
    <glyph glyph-name="Wdieresis" unicode="&#x1e84;" horiz-adv-x="1386" 
d="M1096 1647q82 0 82 -78q0 -39 -28 -66t-67 -27q-82 1 -82 74q0 43 28 70t67 27zM755 1647q83 0 83 -78q0 -39 -28 -66t-67 -27q-83 1 -81 74q0 43 27 70q28 27 66 27zM1528 1372l-6 -31h-90l-478 -1341h-280l80 872h-4l-318 -872h-278l131 1341h-90l6 31h391l-6 -31h-84
l-137 -1310h28l377 1042l23 268h-80l6 31h418l-9 -31h-118l-125 -1310h28l463 1310h-119l7 31h264z" />
    <glyph glyph-name="wdieresis" unicode="&#x1e85;" horiz-adv-x="1370" 
d="M926 1278q-86 0 -84 80q0 40 28 68q28 26 72 26q80 0 80 -76q0 -42 -28 -70t-68 -28zM638 1278q-86 0 -86 80q0 40 30 68q28 26 71 26q80 0 80 -76q1 -42 -27 -70t-68 -28zM678 305q0 94 20 248l74 543h-29l-235 -1096h-232q-88 37 -126 124t-37 179q0 92 20 250l74 543
h-98l6 30h295l-84 -548q-25 -162 -25 -240q0 -240 156 -307h16l229 1095h273l-84 -548q-25 -162 -25 -240q0 -240 154 -307h16l187 563q45 139 45 201q0 135 -174 135l45 237q88 0 150 -59t63 -180q0 -76 -24 -153t-58 -181l-199 -594h-229q-88 37 -126 124t-38 181z" />
    <glyph glyph-name="endash" unicode="&#x2013;" horiz-adv-x="585" 
d="M545 649l-10 -51h-494l10 51h494z" />
    <glyph glyph-name="emdash" unicode="&#x2014;" horiz-adv-x="1155" 
d="M1114 649l-10 -51h-1063l10 51h1063z" />
    <glyph glyph-name="quoteleft" unicode="&#x2018;" horiz-adv-x="561" 
d="M266 1188q0 113 78 200t205 87l-2 -31q-97 -2 -155 -66t-70 -164h4q25 59 88 60q38 0 64 -26t26 -70t-36 -80q-36 -35 -87 -35t-83 37t-32 88z" />
    <glyph glyph-name="quoteright" unicode="&#x2019;" horiz-adv-x="561" 
d="M459 1333q0 -113 -78 -199t-205 -87l2 30q96 1 154 65t69 165h-4q-20 -59 -88 -60q-39 0 -63 26q-24 27 -25 71q0 44 36 79t87 35t83 -37t32 -88z" />
    <glyph glyph-name="quotesinglbase" unicode="&#x201a;" horiz-adv-x="561" 
d="M295 82q0 -113 -78 -200t-205 -87l2 31q96 2 154 65q57 63 70 164h-5q-20 -59 -88 -59q-39 0 -63 26t-25 70q0 44 36 80q36 35 87 35t83 -37t32 -88z" />
    <glyph glyph-name="quotedblleft" unicode="&#x201c;" horiz-adv-x="874" 
d="M266 1188q0 113 78 200t205 87l-2 -31q-97 -2 -155 -66t-70 -164h4q25 59 88 60q38 0 64 -26t26 -70t-36 -80q-36 -35 -87 -35t-83 37t-32 88zM578 1188q0 113 77 200q78 87 207 87l-4 -31q-96 -2 -153 -66t-70 -164h4q20 59 88 60q39 0 64 -26t25 -70t-37 -80
q-36 -35 -87 -35t-83 37q-31 37 -31 88z" />
    <glyph glyph-name="quotedblright" unicode="&#x201d;" horiz-adv-x="874" 
d="M772 1333q0 -113 -78 -199t-207 -87l2 30q97 1 155 65t71 165h-4q-20 -59 -88 -60q-39 0 -64 26q-25 27 -25 71t36 79t87 35t83 -37t32 -88zM459 1333q0 -113 -78 -199t-205 -87l2 30q96 1 154 65t69 165h-4q-20 -59 -88 -60q-39 0 -63 26q-24 27 -25 71q0 44 36 79
t87 35t83 -37t32 -88z" />
    <glyph glyph-name="quotedblbase" unicode="&#x201e;" horiz-adv-x="874" 
d="M608 82q0 -113 -78 -200t-206 -87l2 31q98 2 155 65t70 164h-4q-20 -59 -88 -59q-39 0 -64 26t-25 70t37 80q36 35 87 35q50 0 82 -37t32 -88zM295 82q0 -113 -78 -200t-205 -87l2 31q96 2 154 65q57 63 70 164h-5q-20 -59 -88 -59q-39 0 -63 26t-25 70q0 44 36 80
q36 35 87 35t83 -37t32 -88z" />
    <glyph glyph-name="dagger" unicode="&#x2020;" horiz-adv-x="931" 
d="M606 1069h-28l-29 -135l78 -164q-82 -111 -150 -298t-106 -374l-72 -340h-39l72 340q47 233 51 465q0 119 -21 207l148 164l29 135h-29q-82 0 -131 -15t-113 -63l-30 -155h-35l104 499h35l-31 -151q61 -46 99 -62t110 -16h29l8 37q8 41 8 133t-31 188h-110l6 31h440
l-6 -31h-112q-113 -119 -156 -321l-8 -37h28q78 0 132 15t110 63l33 151h35l-107 -499h-35l33 155q-100 78 -209 78z" />
    <glyph glyph-name="daggerdbl" unicode="&#x2021;" horiz-adv-x="946" 
d="M516 1069q-86 0 -132 -12t-108 -58l-34 -163h-35l106 499h35l-33 -153q55 -44 95 -60t114 -16h29l8 37q10 47 10 144t-28 177h-113l6 31h436l-6 -31h-112q-106 -113 -154 -321l-8 -37h29q80 0 133 14t108 62l33 153h35l-107 -499h-35l35 163q-90 70 -211 70h-28l-23 -106
q-10 -57 -10 -141t33 -189q-72 -94 -109 -165t-53 -161l-23 -106h29q86 0 133 12t109 55l32 164h35l-104 -500h-35l33 154q-61 47 -99 62t-112 16h-29l-6 -37q-12 -57 -12 -143t30 -179h111l-6 -30h-436l8 30h110q50 49 96 143t60 179l6 37h-28q-78 0 -131 -16t-109 -62
l-33 -154h-35l105 500h35l-33 -164q88 -68 209 -67h28l23 106q14 90 14 172t-37 154q127 160 162 330l23 106h-29z" />
    <glyph glyph-name="bullet" unicode="&#x2022;" horiz-adv-x="624" 
d="M147 616q-1 68 51 119t125 51t113 -38t41 -110q0 -73 -54 -125t-126 -52t-111 43q-39 44 -39 112z" />
    <glyph glyph-name="ellipsis" unicode="&#x2026;" horiz-adv-x="1409" 
d="M1086 211q52 1 80 -27t28 -79t-39 -87t-90 -34q-51 0 -78 30t-27 78q0 47 37 83t89 36zM684 211q51 1 81 -27t30 -79t-39 -87t-91 -34q-52 0 -78 30t-26 77q0 48 36 84t87 36zM283 211q51 1 81 -27t29 -79q0 -51 -39 -87t-91 -34q-52 0 -78 30q-25 30 -25 77q0 48 36 84
t87 36z" />
    <glyph glyph-name="perthousand" unicode="&#x2030;" horiz-adv-x="1994" 
d="M1718 649q0 82 -84 82q-111 0 -133 -129l-69 -420q-14 -72 -15 -96q0 -80 82 -80q108 0 133 131l78 461q8 37 8 51zM1282 164q0 31 18 119l52 235q51 236 275 236t224 -179q0 -18 -20 -131l-49 -225q-47 -236 -283 -235q-102 0 -160 46q-57 46 -57 134zM494 1276
q-109 0 -132 -129l-69 -420q-14 -72 -14 -94q0 -82 81 -82q112 0 132 131l79 461l7 51q0 82 -84 82zM360 528q-102 0 -159 46t-58 135q0 37 19 118l51 236q47 236 283 235q215 0 215 -178q-1 -35 -19 -131l-49 -225q-47 -236 -283 -236zM942 1372h47l-512 -1372h-47z
M1122 649q0 82 -84 82q-113 0 -133 -129l-69 -420q-14 -72 -15 -96q0 -80 82 -80q108 0 133 131l78 461q8 37 8 51zM686 164q0 31 19 119l51 235q51 236 275 236t224 -179q0 -18 -20 -131l-49 -225q-47 -236 -283 -235q-102 0 -160 46q-57 46 -57 134z" />
    <glyph glyph-name="guilsinglleft" unicode="&#x2039;" horiz-adv-x="610" 
d="M336 199h-31q-41 326 -178 465v4q252 156 358 383h31q-74 -231 -258 -398v-4q78 -141 78 -450z" />
    <glyph glyph-name="guilsinglright" unicode="&#x203a;" horiz-adv-x="610" 
d="M274 1051h31q41 -326 178 -465v-4q-252 -156 -358 -383h-31q74 231 258 397v4q-78 142 -78 451z" />
    <glyph glyph-name="fraction" unicode="&#x2044;" horiz-adv-x="645" 
d="M664 1372h49l-731 -1372h-50z" />
    <glyph glyph-name="zero.superior" unicode="&#x2070;" horiz-adv-x="696" 
d="M271 588q-241 0 -240 188q0 25 20 117l78 364q51 233 294 233t243 -187q-1 -13 -21 -119l-80 -365q-53 -231 -294 -231zM514 1386q0 80 -78 80q-106 0 -133 -137l-106 -538q-16 -82 -17 -101q0 -78 80 -78q106 1 133 136l107 546q14 68 14 92z" />
    <glyph glyph-name="four.superior" unicode="&#x2074;" horiz-adv-x="686" 
d="M592 1014l-68 -312h-32l28 125h-88l-45 -204h76l-6 -25h-314l4 25h84l48 204h-295l2 13l391 641h194l-127 -600h86l29 133h33zM53 881h238l133 575h-21z" />
    <glyph glyph-name="five.superior" unicode="&#x2075;" horiz-adv-x="681" 
d="M373 1161q217 0 217 -164q0 -31 -15 -98l-18 -86q-49 -225 -303 -225q-104 0 -163 43q-58 43 -58 125q0 16 8 57l16 84h162l-35 -162q-8 -37 -8 -51q0 -72 74 -72q106 0 133 136l45 219q8 41 8 63q0 98 -96 98q-72 0 -126 -52t-64 -95h-44l109 500h442l-59 -275h-33
l31 137h-373l-55 -262h4q76 80 201 80z" />
    <glyph glyph-name="six.superior" unicode="&#x2076;" horiz-adv-x="704" 
d="M268 588q-115 0 -177 47t-62 139q0 33 10 74l90 409q52 234 297 234q205 0 205 -162q0 -43 -8 -78l-11 -45h-157l18 90q2 12 10 49t9 54q0 68 -66 67q-106 0 -133 -135l-51 -276h4q66 70 155 69q182 0 183 -143q-1 -29 -11 -80l-20 -90q-53 -223 -285 -223zM434 1006
q0 74 -72 73q-55 0 -93 -39t-48 -92l-39 -209q-4 -25 -4 -45q0 -82 80 -82q53 0 87 37t44 94l35 187q10 57 10 76z" />
    <glyph glyph-name="seven.superior" unicode="&#x2077;" horiz-adv-x="524" 
d="M635 1479l-4 -13l-424 -843h84l-4 -25h-332l4 25h78l418 573l69 137h-387l-37 -172h-32l67 318h500z" />
    <glyph glyph-name="eight.superior" unicode="&#x2078;" horiz-adv-x="702" 
d="M426 1491q227 0 227 -176q0 -31 -8 -64l-4 -22q-27 -152 -195 -168v-4q135 -31 136 -148q0 -29 -7 -65l-8 -41q-45 -215 -293 -215t-249 182q0 18 12 76l6 28q35 164 219 185v4q-121 29 -121 135q0 29 6 62l7 32q18 96 88 148t184 51zM350 1049q-115 0 -135 -125
l-25 -150q-10 -66 -10 -80q0 -82 80 -82q112 0 135 127l25 152l10 78q0 80 -80 80zM510 1389q0 78 -72 77q-100 0 -123 -118l-24 -138q-10 -61 -10 -63q0 -74 75 -74q103 0 123 115l23 131q8 45 8 70z" />
    <glyph glyph-name="nine.superior" unicode="&#x2079;" horiz-adv-x="696" 
d="M426 1491q115 0 177 -48t63 -140q0 -35 -13 -89l-84 -389q-25 -111 -103 -174t-198 -63q-219 0 -219 160q0 45 10 92l9 43h163l-16 -78q-23 -109 -22 -127q0 -66 77 -66q45 0 82 40t49 100l56 280h-4q-66 -70 -161 -70t-136 38t-41 112q0 35 10 80l18 76q54 223 283 223z
M522 1384q0 82 -86 82q-98 0 -129 -155l-31 -154q-10 -51 -10 -76q0 -74 70 -73q51 0 90 39t51 94l37 188q8 49 8 55z" />
    <glyph glyph-name="plus.superior" unicode="&#x207a;" horiz-adv-x="495" 
d="M451 977h-183v-182h-41v182h-182v41h182v182h41v-182h183v-41z" />
    <glyph glyph-name="parenleft.superior" unicode="&#x207d;" horiz-adv-x="522" 
d="M213 659q0 -133 123 -167l-6 -29q-213 57 -213 348q0 149 44 285t92 224t130 148t182 64l-4 -29q-164 -4 -221 -252l-109 -465q-18 -78 -18 -127z" />
    <glyph glyph-name="parenright.superior" unicode="&#x207e;" horiz-adv-x="522" 
d="M309 1333q0 135 -123 170l7 29q213 -59 213 -350q0 -169 -90 -414q-46 -125 -140 -213t-219 -92l4 26q162 4 221 252l109 467q18 78 18 125z" />
    <glyph glyph-name="n.superior" unicode="&#x207f;" horiz-adv-x="770" 
d="M559 649q0 -27 21 -26q45 0 63 90l29 133h33l-29 -133q-16 -72 -45 -99t-90 -26q-127 0 -127 76q0 18 26 143l68 305q27 121 27 150q0 28 -30 28t-60 -53t-76 -201l-142 -438h-188l135 700h-72l7 25h221l-150 -700h21l133 413q57 178 97 238t122 59q113 0 113 -94
q0 -11 -25 -154l-57 -305q-25 -127 -25 -131z" />
    <glyph glyph-name="zero.inferior" unicode="&#x2080;" horiz-adv-x="696" 
d="M271 -256q-241 0 -240 188q0 25 20 117l78 365q51 233 294 233t243 -188q-1 -10 -21 -119l-80 -365q-53 -231 -294 -231zM514 543q0 80 -78 80q-106 0 -133 -138l-106 -538q-16 -82 -17 -101q0 -78 80 -77q106 0 133 135l107 547q14 68 14 92z" />
    <glyph glyph-name="one.inferior" unicode="&#x2081;" horiz-adv-x="450" 
d="M182 518q123 0 150 133h53l-188 -872h75l-4 -25h-305l4 25h82l141 715h-79l6 24h65z" />
    <glyph glyph-name="two.inferior" unicode="&#x2082;" horiz-adv-x="735" 
d="M530 551q0 72 -77 72q-90 0 -115 -119l-43 -201h-156l31 150q38 195 270 195t232 -179q0 -56 -15 -104q-23 -86 -75 -132q-53 -45 -172 -94l-150 -61q-84 -35 -124 -65t-52 -81l-8 -34h456l35 159h33l-65 -303h-529l35 158q14 61 51 105t121 100l160 102q57 37 87 79
t44 108l16 79q10 45 10 66z" />
    <glyph glyph-name="three.inferior" unicode="&#x2083;" horiz-adv-x="686" 
d="M571 76q0 -33 -10 -70l-8 -33q-31 -121 -103 -175t-202 -54q-223 0 -223 174q0 31 6 66l16 75h164l-25 -108q-20 -82 -20 -107q0 -76 76 -75q113 0 141 143l27 141q8 53 8 72q0 90 -99 90h-83l6 25h84q117 0 141 133l16 90q12 66 13 88q0 72 -72 72q-96 0 -123 -138
l-27 -129h-139l21 103q37 188 260 188t223 -174q0 -27 -10 -74l-4 -22q-13 -74 -59 -106t-138 -42v-4q143 -33 143 -149z" />
    <glyph glyph-name="four.inferior" unicode="&#x2084;" horiz-adv-x="686" 
d="M592 170l-68 -311h-32l28 125h-88l-45 -205h76l-6 -25h-314l4 25h84l48 205h-295l2 12l391 641h194l-127 -600h86l29 133h33zM53 37h238l133 575h-21z" />
    <glyph glyph-name="five.inferior" unicode="&#x2085;" horiz-adv-x="681" 
d="M590 154q0 -31 -15 -99l-18 -86q-49 -225 -303 -225q-104 0 -163 43q-58 43 -58 125q0 16 8 57l16 84h162l-35 -162q-8 -37 -8 -51q0 -72 74 -71q106 0 133 135l45 219q8 41 8 63q0 98 -96 99q-72 -1 -126 -53t-64 -95h-44l109 500h442l-59 -275h-33l31 138h-373
l-55 -262h4q76 80 201 79q217 0 217 -163z" />
    <glyph glyph-name="six.inferior" unicode="&#x2086;" horiz-adv-x="704" 
d="M268 -256q-115 0 -177 47t-62 139q0 33 10 74l90 410q52 233 297 233q205 0 205 -162q0 -43 -8 -77l-11 -46h-157l18 91q2 12 10 48t9 54q0 68 -66 68q-106 0 -133 -136l-51 -276h4q66 70 155 70q182 0 183 -144q-1 -29 -11 -80l-20 -90q-53 -223 -285 -223zM434 162
q0 74 -72 74q-55 0 -93 -39t-48 -93l-39 -208q-4 -25 -4 -46q0 -82 80 -81q53 0 87 37t44 94l35 186q10 55 10 76z" />
    <glyph glyph-name="seven.inferior" unicode="&#x2087;" horiz-adv-x="524" 
d="M635 635l-428 -856h84l-4 -25h-332l4 25h78l418 573l69 137h-387l-37 -172h-32l67 318h500z" />
    <glyph glyph-name="eight.inferior" unicode="&#x2088;" horiz-adv-x="702" 
d="M426 647q227 0 227 -176q0 -31 -8 -63l-4 -23q-27 -152 -195 -168v-4q135 -31 136 -147q0 -29 -7 -66l-8 -41q-45 -215 -293 -215t-249 182q0 18 12 76l6 29q35 164 219 184v4q-121 29 -121 135q0 29 6 62l7 33q18 96 88 147t184 51zM350 205q-115 0 -135 -125l-25 -150
q-10 -66 -10 -80q0 -82 80 -81q112 0 135 127l25 151l10 78q0 80 -80 80zM510 545q0 78 -72 78q-100 0 -123 -119l-24 -137q-10 -61 -10 -64q0 -74 75 -74q103 0 123 115l23 131q8 45 8 70z" />
    <glyph glyph-name="nine.inferior" unicode="&#x2089;" horiz-adv-x="696" 
d="M426 647q115 0 177 -48t63 -140q0 -35 -13 -88l-84 -389q-25 -111 -103 -175q-79 -63 -198 -63q-219 0 -219 160q0 45 10 92l9 43h163l-16 -78q-23 -109 -22 -127q0 -66 77 -65q45 0 82 40t49 99l56 280h-4q-66 -70 -161 -70t-136 39q-41 38 -41 111q0 35 10 80l18 76
q54 223 283 223zM522 541q0 82 -86 82q-98 0 -129 -156l-31 -154q-10 -51 -10 -75q0 -74 70 -74q51 0 90 39t51 94l37 188q8 49 8 56z" />
    <glyph glyph-name="parenleft.inferior" unicode="&#x208d;" horiz-adv-x="522" 
d="M213 -184q0 -133 123 -168l-6 -29q-213 57 -213 348q0 148 44 285t92 224q48 88 130 148t182 64l-4 -29q-164 -4 -221 -251l-109 -465q-18 -78 -18 -127z" />
    <glyph glyph-name="parenright.inferior" unicode="&#x208e;" horiz-adv-x="522" 
d="M309 489q0 135 -123 170l7 29q213 -59 213 -350q0 -167 -90 -414q-46 -125 -140 -213t-219 -92l4 27q162 4 221 252l109 467q18 78 18 124z" />
    <glyph glyph-name="Euro" unicode="&#x20ac;" horiz-adv-x="1091" 
d="M506 -16q-170 0 -259 82t-89 208q0 39 14 121l37 189h-121l6 34h125l21 103h-123l6 35h125l61 288q72 344 414 345q264 0 295 -207h4l45 207h37l-103 -484h-200l47 221q18 92 18 121q0 111 -121 111q-168 0 -206 -205l-76 -397h334l-6 -35h-334l-21 -103h332l-8 -34h-330
l-61 -326q-28 -143 31 -197q40 -37 135 -36q252 0 317 301l25 112h41l-25 -112q-39 -178 -128 -260t-259 -82z" />
    <glyph glyph-name="uni2113" unicode="&#x2113;" horiz-adv-x="815" 
d="M645 1470q-61 0 -88 -32t-41 -101l-156 -764q115 37 181 143t125 304l59 205q29 106 31 145q0 100 -111 100zM330 25q64 0 99 43q36 43 56 143l56 256h37l-52 -236q-33 -147 -86 -197q-54 -50 -166 -50t-154 28t-42 103q0 35 14 106l64 293h-105l8 35h103l153 721
q29 133 95 187t186 54q203 0 203 -147q0 -47 -27 -143l-59 -205q-63 -215 -143 -329t-218 -152l-69 -347q-16 -86 -17 -100q0 -63 64 -63z" />
    <glyph glyph-name="numero" unicode="&#x2116;" horiz-adv-x="1671" 
d="M885 1372h258l-8 -31h-95l-282 -1341h-279l-76 1341h-28l-277 -1310h117l-6 -31h-258l6 31h94l277 1310h-95l9 31h370l70 -1341h35l276 1310h-116zM1262 524q-230 0 -230 189q0 41 10 86l50 229q51 238 280 238t230 -189q-1 -36 -9 -71l-51 -246q-50 -236 -280 -236z
M1462 1171q0 68 -82 68q-104 0 -127 -125l-61 -338q-23 -131 -23 -141q0 -84 82 -84q102 0 127 125l68 364q16 102 16 131zM1040 436h357l-8 -35h-357z" />
    <glyph glyph-name="trademark" unicode="&#x2122;" horiz-adv-x="1566" 
d="M1430 647l-5 -26h-284l4 26h74l176 821h-17l-295 -847h-186l64 847h-17l-174 -821h74l-4 -26h-185l4 26h70l174 821h-67l4 27h334l-5 -27h-73l-66 -821h17l286 821h-69l4 27h342l-4 -27h-68l-174 -821h66zM786 1495l-55 -264h-33l45 213h-159l-168 -797h82l-4 -26h-310
l4 26h84l168 797h-155l-45 -213h-33l55 264h524z" />
    <glyph glyph-name="Omega" unicode="&#x2126;" horiz-adv-x="1099" 
d="M678 1358q-109 0 -157 -58t-68 -167l-101 -576q0 -51 23 -76t84 -39l-94 -442h-347l95 451h41l-50 -232h256l46 207q-250 41 -250 287q0 55 20 153l29 133q41 188 157 289q116 100 298 100t275 -75q93 -76 93 -221q0 -54 -18 -140l-31 -147q-35 -164 -130 -265t-253 -114
l-45 -207h240l49 232h39l-95 -451h-331l94 442q82 16 121 62t53 129l82 452q10 55 16 136q0 137 -141 137z" />
    <glyph glyph-name="estimated" unicode="&#x212e;" horiz-adv-x="1548" 
d="M379 795h786v426q-137 125 -393 125t-393 -121v-430zM1341 610h60q0 -305 -161 -466q-161 -160 -462 -160t-466 148t-165 446v180q0 305 158 468t460 163t461 -150t158 -446v-45h-1005v-605q141 -117 393 -116q569 -1 569 583z" />
    <glyph glyph-name="partialdiff" unicode="&#x2202;" horiz-adv-x="1040" 
d="M397 -16q-332 0 -331 288q0 66 12 119l24 107q33 145 104 212t208 66q211 0 264 -133h4l63 299q37 168 37 240q0 158 -106 228t-332 71l6 30q600 -6 600 -489q1 -116 -24 -225l-103 -475q-72 -338 -426 -338zM508 713q-82 0 -124 -46t-58 -137l-52 -272q-16 -92 -16 -108
q0 -68 29 -102t104 -34q174 0 211 197l29 160q29 164 28 172q0 170 -151 170z" />
    <glyph glyph-name="Delta" unicode="&#x2206;" horiz-adv-x="808" 
d="M354 1341l-348 -1288h498l-121 1288h-29zM731 0h-778v18l362 1354h279l137 -1354v-18z" />
    <glyph glyph-name="product" unicode="&#x220f;" horiz-adv-x="1107" 
d="M270 1372h912l-6 -31h-103l-332 -1679h103l-6 -31h-408l6 31h84l326 1649h-266l-324 -1649h88l-8 -31h-410l8 31h101l332 1679h-103z" />
    <glyph glyph-name="summation" unicode="&#x2211;" horiz-adv-x="1013" 
d="M582 1300v-2l120 -720l-509 -723v-5h499l72 332h41l-117 -551h-803l6 31h103l514 733l-158 946h-102l6 31h772l-70 -328h-41l56 256h-389z" />
    <glyph glyph-name="minus" unicode="&#x2212;" horiz-adv-x="643" 
d="M578 645v-43h-512v43h512z" />
    <glyph glyph-name="radical" unicode="&#x221a;" horiz-adv-x="929" 
d="M111 614v31h258l90 -745h28l248 1550h47l-256 -1573h-231l-98 737h-86z" />
    <glyph glyph-name="infinity" unicode="&#x221e;" horiz-adv-x="1032" 
d="M885 668v-70q0 -88 -48 -134t-124 -46t-152 51l-96 66l-80 -70q-53 -47 -108 -47t-93 37q-37 37 -37 94v69q1 88 49 134t122 47q74 0 151 -51l98 -66l80 70q55 47 109 47t91 -37q38 -37 38 -94zM842 672q0 36 -25 62t-61 26t-88 -45l-64 -56l60 -38q57 -37 91 -36
q35 1 61 25t26 62zM280 631q-40 0 -66 -25q-24 -26 -24 -62t25 -62q57 -59 147 20l64 55l-57 41q-49 33 -89 33z" />
    <glyph glyph-name="integral" unicode="&#x222b;" horiz-adv-x="1126" 
d="M979 1167v-200h-180v317q0 74 -62 74q-70 0 -69 -86v-1233q0 -281 -277 -281q-244 0 -244 219v216h181v-332q0 -72 61 -72q70 0 70 86v1231q0 283 276 283q244 -1 244 -222z" />
    <glyph glyph-name="approxequal" unicode="&#x2248;" horiz-adv-x="645" 
d="M205 549q-78 0 -139 -62v43q61 61 141 62q43 0 119 -31t116 -31q75 1 138 64v-43q-57 -63 -140 -64q-40 0 -116 31t-119 31zM205 715q-78 0 -139 -62v43q61 61 141 62q43 0 119 -31t116 -31q75 1 138 64v-43q-57 -63 -140 -64q-40 0 -116 31t-119 31z" />
    <glyph glyph-name="notequal" unicode="&#x2260;" horiz-adv-x="645" 
d="M580 727v-43h-209q-4 -8 -49 -121h258v-43h-275l-88 -215h-49l88 215h-190v43h208l48 121h-256v43h274l88 215h47l-88 -215h193z" />
    <glyph glyph-name="lessequal" unicode="&#x2264;" horiz-adv-x="632" 
d="M565 358v-43h-512v43h512zM121 623q61 -20 446 -140v-45l-514 162v47l514 162v-45l-446 -137v-4z" />
    <glyph glyph-name="greaterequal" unicode="&#x2265;" horiz-adv-x="632" 
d="M512 623v4l-446 137v45l514 -162v-47l-514 -162v45zM66 315v43h514v-43h-514z" />
    <glyph glyph-name="lozenge" unicode="&#x25ca;" horiz-adv-x="661" 
d="M338 94l207 531l-207 528h-16l-205 -528l205 -531h16zM285 1180h90l225 -555l-225 -557h-90l-224 557z" />
    <glyph glyph-name="commaaccent" unicode="&#xf6c3;" horiz-adv-x="1081" 
d="M467 -174q0 -98 -74 -154t-186 -57l6 25q90 0 146 44t61 119h-4q-25 -51 -71 -51t-66 22q-21 22 -21 60t32 65t77 27t73 -28t27 -72z" />
    <glyph glyph-name="grave.case" horiz-adv-x="1081" 
d="M891 1462l-408 82l25 107l393 -170z" />
    <glyph glyph-name="dieresis.case" horiz-adv-x="1081" 
d="M904 1647q82 0 81 -78q0 -39 -28 -66q-29 -27 -67 -27t-60 20q-22 19 -22 58t29 66t67 27zM562 1647q82 0 83 -78q0 -39 -28 -66q-29 -27 -67 -27t-60 20q-22 19 -22 58t29 66q27 27 65 27z" />
    <glyph glyph-name="macron.case" horiz-adv-x="1081" 
d="M971 1561l-13 -54h-481l12 54h482z" />
    <glyph glyph-name="acute.case" horiz-adv-x="1081" 
d="M932 1544l-408 -82l-10 19l393 170z" />
    <glyph glyph-name="circumflex.case" horiz-adv-x="1081" 
d="M735 1561l-254 -115l-12 16l266 189h25l172 -189l-21 -16q-57 37 -172 115h-4z" />
    <glyph glyph-name="caron.case" horiz-adv-x="1081" 
d="M979 1642q-16 -11 -268 -188h-25l-170 188l21 17q115 -78 172 -115h4l254 115z" />
    <glyph glyph-name="breve.case" horiz-adv-x="1081" 
d="M555 1640q0 -116 172 -116t217 131l25 2q-53 -199 -256 -199q-92 0 -139 45q-46 45 -46 121q0 20 2 33l25 -2v-15z" />
    <glyph glyph-name="dotaccent.case" horiz-adv-x="1081" 
d="M717 1470q-43 0 -66 26t-23 64t30 69q30 30 72 30t67 -23q25 -24 25 -66t-32 -71q-30 -29 -73 -29z" />
    <glyph glyph-name="ring.case" horiz-adv-x="1081" 
d="M889 1612q0 -66 -47 -112q-46 -46 -112 -46t-106 39t-40 105t47 111q47 46 113 46t105 -38q40 -39 40 -105zM821 1669q0 66 -67 66q-44 1 -60 -19t-24 -67l-15 -74q-4 -29 -4 -33q0 -68 66 -67q43 -1 59 19t27 69l14 73q4 29 4 33z" />
    <glyph glyph-name="tilde.case" horiz-adv-x="1081" 
d="M590 1567q-66 0 -90 -64l-11 -24l-24 6l12 33q19 51 61 83q42 31 96 31t103 -33l56 -34q31 -23 67 -23q63 0 88 64l10 24l27 -6l-12 -33q-45 -115 -160 -114q-53 0 -102 32l-54 35q-35 23 -67 23z" />
    <glyph glyph-name="hungarumlaut.case" horiz-adv-x="1081" 
d="M1098 1552l-359 -110l-10 18l336 191zM809 1552l-358 -110l-11 18l336 191z" />
    <glyph glyph-name="caron.salt" horiz-adv-x="1081" 
d="M793 1413q0 -88 -72 -147t-176 -60l6 25q86 0 137 45t53 119h-4q-16 -51 -73 -52q-76 0 -76 74q0 39 30 67q31 28 76 28t72 -28t27 -71z" />
    <glyph glyph-name="commaaccent.salt" horiz-adv-x="1081" 
d="M729 1573q88 1 88 -81q0 -38 -32 -66q-33 -28 -77 -28t-72 28t-28 73q0 99 74 155t186 56l-6 -27q-92 0 -148 -43t-59 -120h4q23 53 70 53z" />
    <glyph glyph-name="zeroslash" horiz-adv-x="1024" 
d="M632 1358q-84 0 -132 -54t-68 -159l-131 -692l438 553l23 116q31 151 -16 203q-30 33 -114 33zM248 130q0 -50 30 -84q30 -32 114 -32q156 0 200 211l131 693l-438 -551l-23 -119q-14 -68 -14 -118zM395 -16q-164 0 -254 72t-90 218q0 57 12 115l138 641q73 356 421 358
q174 0 262 -72q89 -73 89 -214q-1 -45 -15 -121l-135 -641q-78 -356 -428 -356z" />
    <glyph glyph-name="zeroslash.osf" horiz-adv-x="978" 
d="M246 156q0 -72 28 -107t103 -35q172 0 213 211l98 545l-409 -426l-23 -117q-10 -55 -10 -71zM735 1047q0 127 -131 127q-174 0 -213 -213l-102 -547l413 428l23 116q10 51 10 89zM395 -16q-164 0 -254 72t-90 212q0 61 31 193l84 389q76 354 418 354q164 0 254 -72
t90 -212q-1 -43 -15 -119l-98 -465q-74 -352 -420 -352z" />
    <glyph glyph-name="zero.osf" horiz-adv-x="978" 
d="M395 -16q-164 0 -254 72t-90 212q0 61 31 193l84 389q76 354 418 354q164 0 254 -72t90 -212q-1 -43 -15 -119l-98 -465q-74 -352 -420 -352zM735 1047q0 127 -131 127q-174 0 -213 -213l-133 -723q-12 -57 -12 -97q0 -127 131 -127q95 0 145 56t68 155l133 731
q12 66 12 91z" />
    <glyph glyph-name="one.osf" horiz-adv-x="641" 
d="M279 1044q96 0 153 37t80 131h43l-252 -1181h119l-6 -31h-432l6 31h119l196 983h-119l7 30h86z" />
    <glyph glyph-name="two.osf" horiz-adv-x="995" 
d="M594 1174q-94 0 -132 -56t-65 -172l-53 -250h-201q25 142 51 226t72 154t117 100q72 29 182 28q162 0 255 -66t93 -198l-16 -113q-35 -143 -107 -210t-229 -105q-303 -76 -389 -118t-100 -142l-13 -53h682l50 231h36l-90 -430h-757l59 274q23 94 91 146q97 72 359 190
q103 48 143 104t66 179l15 68q12 70 14 98q0 115 -133 115z" />
    <glyph glyph-name="three.osf" horiz-adv-x="991" 
d="M825 352q0 -37 -10 -94l-10 -49q-39 -180 -145 -264t-285 -84q-330 0 -330 272q0 45 14 113l21 96h211l-55 -252q-12 -61 -13 -82q0 -121 133 -121q104 1 154 57t70 165l34 202q10 66 11 103q0 150 -160 149h-109l6 31h109q190 0 229 213l27 151q12 78 12 118t-26 69
q-27 29 -97 29q-152 0 -190 -177l-49 -233h-178l34 158q63 283 361 282q328 0 328 -260q-1 -32 -13 -106l-4 -25q-37 -219 -305 -231l-2 -4q227 -29 227 -226z" />
    <glyph glyph-name="four.osf" horiz-adv-x="1028" 
d="M891 520l-98 -471h-37l39 189h-142l-78 -361h-204l80 361h-447l4 18l584 932h262l-186 -873h143l43 205h37zM100 315h369l186 842h-28z" />
    <glyph glyph-name="five.osf" horiz-adv-x="987" 
d="M541 719q303 0 303 -252q0 -49 -13 -105l-32 -159q-72 -342 -410 -342t-338 258q0 53 15 108l18 76h207l-43 -213q-10 -51 -10 -84q0 -115 122 -115q172 0 215 213l62 324q8 39 8 90q0 156 -158 156q-117 0 -201 -82t-98 -150h-30l157 746h627l-82 -389h-37l43 192h-555
l-92 -428h4q129 156 318 156z" />
    <glyph glyph-name="six.osf" horiz-adv-x="1001" 
d="M612 1327q295 0 295 -244q0 -41 -10 -96l-16 -74h-205l45 207q8 31 8 70q0 106 -111 106q-182 0 -219 -213l-77 -444h4q98 133 258 133q252 0 252 -219q0 -41 -15 -121l-22 -110q-33 -166 -139 -252t-269 -86q-164 0 -253 72t-89 212q0 55 12 113l125 592q36 172 146 263
t280 91zM641 593q-1 52 -27 84t-102 32q-76 1 -138 -61t-77 -144l-47 -277q-10 -51 -10 -75q0 -137 133 -138q174 0 211 205l49 279q8 43 8 95z" />
    <glyph glyph-name="seven.osf" horiz-adv-x="737" 
d="M827 1188l-4 -19l-641 -1292h-207l594 887l111 221h-567l-58 -258h-37l99 461h710z" />
    <glyph glyph-name="eight.osf" horiz-adv-x="1011" 
d="M614 1327q328 0 328 -260q0 -53 -8 -94l-8 -35q-29 -125 -101 -184t-200 -70v-4q217 -35 217 -221q0 -39 -11 -94l-12 -58q-37 -168 -138 -246t-280 -77q-356 0 -356 272q0 47 12 102l13 54q57 260 336 268v4q-92 16 -142 66t-51 161q0 27 8 72l8 43q57 301 385 301z
M651 541q0 129 -137 129q-184 0 -219 -203l-37 -217q-14 -76 -14 -122t30 -80t109 -34q182 0 217 203l43 254q8 57 8 70zM762 1176q0 121 -127 120q-164 0 -199 -188l-37 -193q-12 -61 -12 -108t29 -77t98 -30q164 1 199 185l41 225q8 53 8 66z" />
    <glyph glyph-name="nine.osf" 
d="M608 1204q164 0 252 -72t88 -212q0 -53 -12 -115l-123 -578q-39 -180 -151 -273t-272 -93q-323 0 -322 245q0 47 12 103l16 78h211l-43 -199q-14 -61 -14 -92q0 -104 121 -105q182 0 223 218l86 458h-4q-45 -65 -121 -101t-147 -36q-129 0 -187 54q-57 54 -57 159
q0 63 14 129l21 92q73 340 409 340zM764 1042q0 131 -133 132q-176 0 -213 -207l-43 -240q-16 -86 -17 -115q0 -119 121 -118q78 0 144 59q65 59 79 137l52 275q10 61 10 77z" />
    <glyph glyph-name="dollar.osf" horiz-adv-x="983" 
d="M389 901q0 -82 68 -127l84 389q-111 -35 -138 -168l-8 -41q-6 -30 -6 -53zM608 315q0 82 -67 131l-90 -419q104 33 137 170l12 53q8 32 8 65zM612 1174q-20 0 -34 -3l-89 -417l70 -47l98 462q-25 5 -45 5zM370 14q28 0 42 2l96 453l-70 47l-106 -500q10 -2 38 -2z
M803 397q0 -45 -12 -100l-7 -29q-57 -272 -342 -284l-34 -164h-37l35 164q-53 0 -78 4l-37 -168h-37l37 176q-182 39 -203 213h-4l-47 -225h-37l82 385h188l-37 -174q-6 -33 -6 -64q0 -84 70 -106l109 514l-84 57q-113 78 -113 215q0 49 10 90l8 33q33 133 110 199t212 71
l35 164h37l-35 -164q41 0 78 -6l36 170h37l-37 -176q160 -41 179 -201h4l45 213h37l-78 -368h-182l34 168q8 41 9 59q0 70 -56 96l-100 -475l96 -63q115 -76 115 -224z" />
    <glyph glyph-name="cent.osf" horiz-adv-x="944" 
d="M281 279q0 -113 88 -136l178 895q-143 -14 -172 -190l-86 -500q-8 -49 -8 -69zM682 936q0 98 -98 104l-178 -903h20q131 0 200 68t99 203l16 73h41l-16 -71q-37 -160 -119 -237t-233 -77h-17l-47 -235h-37l47 237q-128 10 -200 77t-72 187q0 47 12 107l62 276
q37 170 134 247t257 79l39 195h37l-39 -197q86 -8 148 -53t81 -127h4l39 182h37l-92 -434h-178l43 219q10 51 10 80z" />
    <glyph glyph-name="sterling.osf" horiz-adv-x="1036" 
d="M690 1296q-143 0 -172 -168l-63 -393h301l-6 -35h-301l-33 -176q-27 -145 -113 -216t-221 -89v-4h682l51 238h37l-94 -453h-783l43 219q64 15 104 63t50 99l61 319h-108l6 35h109l53 283q59 309 371 309q244 0 268 -194h4l43 194h37l-96 -446h-195l31 145q29 154 30 178
q0 92 -96 92z" />
    <glyph glyph-name="Euro.osf" horiz-adv-x="1050" 
d="M514 -16q-164 0 -258 74t-94 216q0 45 14 117l19 86h-107l6 35h109l20 102h-106l6 35h108l45 213q72 342 410 342q260 0 291 -203h4l45 203h37l-98 -463h-197l39 187q23 117 22 135q0 111 -120 111q-168 0 -207 -205l-60 -320h314l-6 -35h-314l-18 -102h309l-8 -35h-307
l-41 -221q-8 -49 -9 -74q0 -82 37 -120t136 -37q135 1 209 77t106 222l20 94h41l-22 -99q-41 -171 -126 -253t-249 -82z" />
    <glyph glyph-name="yen.osf" horiz-adv-x="913" 
d="M713 262l-8 -35h-205l-43 -196h98l-6 -31h-402l7 31h98l43 196h-205l8 35h205l21 103h-205l8 34h205l12 66l-68 692h-86l7 31h403l-6 -31h-105l43 -622h5l313 622h-102l6 31h241l-8 -31h-84l-354 -692l-12 -66h204l-8 -34h-205l-20 -103h205z" />
    <glyph glyph-name="florin.osf" horiz-adv-x="886" 
d="M260 878q0 53 16 126l21 86q29 121 95 179q67 58 194 58q197 0 198 -172h4l35 172h37l-86 -418h-180l53 258q16 74 17 82q0 47 -52 47q-68 0 -86 -86l-32 -151q-18 -88 -18 -126t9 -85l52 -234h247l-6 -30h-233l43 -195q26 -121 26 -174t-14 -125l-20 -94
q-53 -238 -291 -238q-197 0 -199 172h-4l-37 -172h-37l90 418h181l-54 -256q-16 -70 -16 -88q0 -43 47 -43q70 0 88 86l35 166q24 128 8 205l-76 338h-200l6 30h186l-18 84q-29 127 -29 180z" />
    <glyph glyph-name="numero.osf" horiz-adv-x="1589" 
d="M1300 1081q102 0 160 -46t60 -138q-7 -64 -9 -72l-51 -237q-49 -232 -275 -232t-227 185q0 37 9 71l51 236q51 233 282 233zM1382 977q0 78 -79 78q-106 0 -129 -125l-54 -299q-26 -137 -26 -172t16 -55t64 -21q104 0 129 125l67 377q12 74 12 92zM967 276h356l-8 -34
h-357zM815 1188h254l-8 -31h-94l-244 -1157h-270l-93 1157h-28l-238 -1126h117l-6 -31h-254l6 31h94l238 1126h-94l8 31h362l92 -1157h29l238 1126h-117z" />
    <glyph glyph-name="currency.osf" horiz-adv-x="1107" 
d="M254 644q0 118 76 200q-12 10 -59 56q-46 46 -54 56l33 33l115 -115q81 62 189 62t187 -62l115 115q4 -4 21 -18l14 -15l-113 -112q74 -84 74 -200t-59 -193l98 -101l-35 -35l-98 97q-82 -76 -203 -76t-209 76l-96 -97l-33 35l96 99q-59 77 -59 195zM805 639
q0 115 -70 185q-71 70 -183 69q-112 0 -182 -72q-70 -71 -69 -185q0 -114 70 -186q69 -72 183 -71t182 73t69 187z" />
    <glyph glyph-name="numbersign.osf" horiz-adv-x="983" 
d="M436 797l-96 -291h233l97 291h-234zM616 506h166l-57 -178h-166l-106 -328h-43l106 328h-233l-105 -328h-43l105 328h-166l57 178h166l96 291h-166l58 178h166l69 213h43l-69 -213h233l68 213h43l-68 -213h166l-57 -178h-166z" />
    <glyph glyph-name="percent.osf" horiz-adv-x="1380" 
d="M682 150q0 35 8 69l39 182q53 250 303 250q203 0 203 -166q0 -36 -8 -69l-39 -183q-53 -250 -301 -249q-205 0 -205 166zM922 1188h43l-473 -1188h-43zM348 446q-205 0 -205 166q0 35 9 70l38 182q53 250 304 250q203 0 202 -166q0 -36 -8 -69l-39 -183
q-53 -250 -301 -250zM1108 553q0 76 -82 76q-104 0 -133 -129l-76 -359q-8 -45 -8 -57q0 -78 82 -78q102 0 131 129l78 359q8 37 8 59zM569 1016q0 76 -82 76q-104 0 -133 -129l-75 -359q-8 -45 -9 -57q0 -78 82 -78q102 0 131 129l78 358q8 37 8 60z" />
    <glyph glyph-name="perthousand.osf" horiz-adv-x="1968" 
d="M1270 150q0 35 8 69l39 182q53 250 303 250q203 0 203 -166q0 -36 -8 -69l-39 -183q-53 -250 -301 -249q-205 0 -205 166zM1696 553q0 76 -82 76q-102 0 -131 -129l-78 -359q-8 -45 -8 -57q0 -78 82 -78q104 0 133 129l76 359q8 37 8 59zM682 150q0 35 8 69l39 182
q53 250 303 250q203 0 203 -166q0 -36 -8 -69l-39 -183q-53 -250 -301 -249q-205 0 -205 166zM922 1188h43l-473 -1188h-43zM348 446q-205 0 -205 166q0 35 9 70l38 182q53 250 304 250q203 0 202 -166q0 -36 -8 -69l-39 -183q-53 -250 -301 -250zM1108 553q0 76 -82 76
q-104 0 -133 -129l-76 -359q-8 -45 -8 -57q0 -78 82 -78q102 0 131 129l78 359q8 37 8 59zM569 1016q0 76 -82 76q-104 0 -133 -129l-75 -359q-8 -45 -9 -57q0 -78 82 -78q102 0 131 129l78 358q8 37 8 60z" />
    <glyph glyph-name="published" horiz-adv-x="1648" 
d="M1501 694q0 -315 -189 -513q-188 -197 -490 -197t-488 196t-186 514t182 506q184 188 492 188t494 -189q186 -190 185 -505zM1458 694q0 300 -173 480t-465 180t-461 -176t-169 -482t172 -491q172 -187 459 -187t462 188t175 488zM1116 899v-166q0 -223 -229 -223h-129
v-234h100v-26h-321v26h77v822h-75v26h335q242 0 242 -225zM956 655v320q0 123 -108 123h-90v-561h96q102 -1 102 118z" />
    <glyph glyph-name="comma.superior" horiz-adv-x="405" 
d="M119 596q-68 0 -70 66q0 38 26 64q27 26 65 26t62 -27t23 -66q-1 -85 -67 -149t-154 -64v29q63 0 109 40q45 40 57 101h-4q-18 -20 -47 -20z" />
    <glyph glyph-name="hyphen.superior" horiz-adv-x="583" 
d="M465 1061l-6 -70h-348l4 70h350z" />
    <glyph glyph-name="period.superior" horiz-adv-x="448" 
d="M236 678q0 -43 -28 -67t-69 -23q-78 0 -78 71q0 43 27 68t68 25q80 0 80 -74z" />
    <glyph glyph-name="slash.superior" horiz-adv-x="206" 
d="M211 1540h45l-293 -1085h-45z" />
    <glyph glyph-name="a.superior" horiz-adv-x="763" 
d="M422 668q0 33 33 188l96 453h-23l-133 -424q-55 -177 -97 -237t-122 -60q-123 0 -123 96q0 39 23 156l43 231q25 131 77 197t158 65q59 0 138 -43l26 78h180l-106 -559q-27 -141 -27 -164t21 -22q45 0 63 90l29 133h33l-29 -133q-16 -72 -44 -99t-89 -26q-127 0 -127 80z
M184 668q0 -38 35 -39q59 0 141 256l121 381q-39 26 -85 26t-70 -32t-37 -95l-68 -293q-37 -166 -37 -204z" />
    <glyph glyph-name="b.superior" horiz-adv-x="706" 
d="M541 1333q123 0 123 -98q0 -29 -25 -156l-45 -231q-27 -129 -80 -195t-156 -65q-63 0 -133 30q-71 30 -107 31q-36 0 -57 -51h-34l184 938h-72l4 25h224l-187 -891l21 -11l118 377q57 178 97 238t125 59zM498 1290q-32 0 -66 -55q-33 -55 -78 -199l-123 -389
q39 -20 85 -20t70 33t38 94l70 293q36 155 36 199t-32 44z" />
    <glyph glyph-name="c.superior" horiz-adv-x="591" 
d="M467 1243q0 66 -64 66q-96 0 -118 -123l-68 -355q-20 -111 -20 -131q0 -82 96 -82q154 0 190 173l15 67h34l-14 -67q-45 -203 -248 -203q-104 0 -162 43t-59 129q0 41 27 155l45 207q20 100 91 156t159 55q172 0 198 -119h4l27 119h33l-66 -305h-143l37 168q6 29 6 47z
" />
    <glyph glyph-name="d.superior" horiz-adv-x="768" 
d="M569 642q0 -20 19 -19q47 0 65 90l29 133h33l-29 -133q-16 -72 -45 -99t-90 -26q-125 0 -125 80q0 35 33 188l80 391l-21 10l-117 -372q-55 -177 -97 -237t-122 -60q-123 0 -123 96q0 39 23 156l43 231q25 133 76 198t145 65t199 -58l53 260h-84l4 25h221l-141 -752
q-29 -147 -29 -167zM190 668q0 -38 33 -39q64 0 144 256l120 387q-45 22 -89 22t-66 -32t-37 -95l-68 -295q-37 -166 -37 -204z" />
    <glyph glyph-name="e.superior" horiz-adv-x="655" 
d="M393 1333q221 0 221 -159q0 -27 -10 -74l-6 -23q-29 -96 -86 -133t-170 -65l-115 -29l-10 -45q-14 -63 -14 -103t20 -62t78 -22q170 0 207 187l10 53h35l-10 -53q-41 -217 -265 -217t-225 172q0 35 8 67l66 297q45 209 266 209zM475 1237q0 72 -67 72q-92 0 -115 -117
l-62 -311l68 16q63 14 99 49t48 107l23 131q6 49 6 53z" />
    <glyph glyph-name="f.superior" horiz-adv-x="417" 
d="M463 1518q0 27 -25 26q-37 0 -49 -53l-37 -168h178l-4 -29h-178l-190 -907h104l-4 -25h-311l4 25h72l178 907h-74l4 29h74l16 80q33 168 209 168q147 0 148 -103q-1 -24 -7 -49l-6 -30h-129l15 65q12 53 12 64z" />
    <glyph glyph-name="g.superior" horiz-adv-x="681" 
d="M242 352q-121 0 -170 40t-49 122q0 29 14 96l4 21h154l-17 -62q-20 -74 -20 -118q0 -74 80 -74q55 0 93 36t50 95l170 801h-23l-108 -320q-62 -176 -102 -236t-119 -61q-125 0 -125 101q0 35 22 151l23 127q23 131 76 197t159 65q55 0 135 -43l29 78h180l-151 -799
q-41 -217 -305 -217zM205 782q0 -48 33 -49q34 0 66 53t83 203l94 277q-39 26 -86 26t-71 -32t-39 -95l-45 -192q-35 -143 -35 -191z" />
    <glyph glyph-name="h.superior" horiz-adv-x="757" 
d="M498 1290q-33 0 -66 -55t-78 -199l-139 -438h-188l184 938h-72l4 25h224l-199 -938h20l131 413q55 176 97 236t123 61q113 0 112 -94q0 -10 -24 -154l-58 -305q-25 -127 -24 -131q0 -27 20 -26q45 0 64 90l28 133h33l-28 -133q-16 -72 -46 -99t-90 -26q-127 0 -127 76
q0 18 27 143l68 305q29 131 28 150q1 28 -24 28z" />
    <glyph glyph-name="i.superior" horiz-adv-x="436" 
d="M377 1495q0 -37 -26 -59q-25 -22 -61 -23q-36 1 -56 19t-21 51q0 33 26 55t64 23q74 0 74 -66zM53 666q0 31 41 217l90 415h-71l4 25h209l-103 -532q-25 -127 -24 -138q0 -31 24 -30q57 0 82 104l29 127h33l-29 -129q-16 -76 -51 -107t-109 -30q-125 0 -125 78z" />
    <glyph glyph-name="j.superior" horiz-adv-x="409" 
d="M-35 362h-39l6 25h25q41 0 63 23t33 75l158 813h-66l7 25h215l-158 -754q-43 -207 -244 -207zM410 1495q0 -37 -26 -59t-62 -23q-36 1 -56 19t-20 51t26 55t64 23q74 0 74 -66z" />
    <glyph glyph-name="k.superior" horiz-adv-x="739" 
d="M416 664q0 18 22 122l25 107q8 35 8 59q0 66 -70 66h-24l-133 -420h-187l183 938h-72l4 25h223l-196 -938h20l146 460q47 150 90 200t110 50q127 0 127 -94q0 -29 -13 -75q-20 -71 -86 -94q-24 -7 -97 -23l-43 -11v-4h16q139 0 139 -102q0 -29 -8 -76l-14 -76
q-25 -127 -25 -133q0 -23 21 -22q45 0 63 90l29 133h33l-29 -133q-16 -72 -45 -99t-90 -26q-127 0 -127 76zM559 1260q0 31 -31 30q-63 0 -129 -207l-12 -39l64 17q45 13 60 29t31 78t17 92z" />
    <glyph glyph-name="l.superior" horiz-adv-x="440" 
d="M385 1561l-154 -781q-23 -117 -22 -129q0 -29 27 -28q63 0 86 104l26 127h33l-27 -129q-16 -76 -52 -107t-109 -30q-129 0 -130 80q0 35 46 235l135 633h-72l4 25h209z" />
    <glyph glyph-name="m.superior" horiz-adv-x="1126" 
d="M547 1333q111 0 110 -94q0 -25 -26 -154l-92 -462h20l129 413q53 174 94 236t121 61q113 0 113 -94q0 -14 -25 -154l-57 -305q-25 -127 -25 -131q0 -27 21 -26q45 0 63 90l29 133h33l-29 -133q-16 -72 -45 -99t-90 -26q-127 0 -127 76q0 18 27 143l67 305q29 131 29 150
q0 29 -27 28q-57 0 -137 -254l-139 -438h-187l103 514q29 139 28 150q0 29 -24 28q-29 0 -59 -54t-76 -200l-142 -438h-188l135 700h-72l4 25h224l-150 -700h21l133 413q57 178 96 238t117 59z" />
    <glyph glyph-name="o.superior" horiz-adv-x="661" 
d="M272 588q-226 0 -227 172q0 41 8 74l62 280q47 219 274 219t227 -172q0 -27 -12 -80l-59 -276q-47 -217 -273 -217zM471 1235q0 74 -72 74q-96 0 -120 -131l-84 -441q-6 -33 -7 -51q0 -74 72 -74q96 0 121 127l80 418q10 47 10 78z" />
    <glyph glyph-name="p.superior" horiz-adv-x="759" 
d="M565 1333q123 0 123 -98q0 -39 -22 -156l-48 -231q-27 -133 -77 -197q-51 -63 -147 -63t-195 57l-54 -258h105l-4 -25h-312l5 25h71l176 911h-71l6 25h221l-137 -651l22 -13l119 377q57 178 97 238t122 59zM557 1250q0 40 -34 40q-35 0 -65 -54t-77 -200l-125 -389
q41 -20 86 -20t69 33t38 94l71 293q37 163 37 203z" />
    <glyph glyph-name="q.superior" horiz-adv-x="700" 
d="M162 588q-123 0 -123 96q0 25 24 156l46 231q25 131 76 197q52 66 159 65q63 0 133 -34t98 -33q48 0 66 57h35l-184 -936h71l-4 -25h-326l5 25h104l180 858l-20 10l-119 -370q-57 -177 -98 -237t-123 -60zM205 629q33 1 65 57t78 199l123 383q-106 59 -155 -6
q-24 -33 -37 -95l-70 -295q-39 -158 -38 -200t34 -43z" />
    <glyph glyph-name="r.superior" horiz-adv-x="647" 
d="M551 1333q109 0 108 -90q0 -51 -24 -162l-14 -65h-142l27 117q24 111 24 135t-22 22q-61 0 -141 -254l-140 -438h-186l133 700h-72l4 25h224l-148 -700h21l129 413q53 176 95 236t124 61z" />
    <glyph glyph-name="s.superior" horiz-adv-x="606" 
d="M262 1153q0 -41 43 -74l131 -106q74 -59 74 -137q0 -29 -10 -74q-41 -174 -248 -174q-164 0 -195 121h-4l-24 -121h-33l51 246h141l-22 -101q-8 -37 -8 -55q0 -66 75 -66q45 0 79 34t44 83l6 31q2 10 3 26q0 47 -41 78l-127 101q-70 53 -70 127q0 23 10 73
q41 168 236 168q154 0 180 -110h4l25 110h32l-51 -235h-137l10 53q16 88 17 96q0 61 -68 62q-90 0 -113 -101l-6 -24q-4 -29 -4 -31z" />
    <glyph glyph-name="t.superior" horiz-adv-x="489" 
d="M198 588q-150 0 -149 79q0 36 35 199l90 428h-72l7 29h59q53 0 83 36t48 105h45l-27 -141h160l-4 -29h-162l-80 -417q-35 -186 -34 -213q0 -41 45 -41q86 0 112 125l29 143h33l-29 -141q-18 -96 -61 -129q-44 -33 -128 -33z" />
    <glyph glyph-name="u.superior" horiz-adv-x="747" 
d="M403 664q0 33 21 120l111 514h-21l-125 -397q-59 -189 -99 -251t-124 -62q-113 0 -113 92q0 33 25 156l86 462h-72l4 25h223l-110 -516q-27 -129 -27 -148q0 -31 25 -30q33 0 63 53t84 219l135 422h187l-103 -543q-25 -127 -24 -135q0 -23 18 -22q47 0 66 90l29 133h32
l-28 -133q-16 -72 -44 -99t-92 -26q-127 0 -127 76z" />
    <glyph glyph-name="v.superior" horiz-adv-x="608" 
d="M537 1102q0 106 -152 106l25 144q80 0 141 -39t61 -112t-71 -222l-187 -381h-186q-106 57 -107 201q0 59 21 166l59 333h-63l4 25h209l-68 -356q-23 -121 -22 -164q0 -139 106 -180h17l174 356q39 78 39 123z" />
    <glyph glyph-name="w.superior" horiz-adv-x="966" 
d="M207 803q0 -135 110 -180h17l149 700h205l-57 -356q-19 -115 -19 -168t28 -103t83 -73h16l129 356q33 86 35 131q0 90 -121 90l27 152q66 0 112 -39t46 -105t-56 -229l-141 -381h-186q-113 61 -113 203q0 68 16 166l54 331h-21l-158 -700h-186q-111 59 -110 203
q0 68 16 166l51 331h-65l4 25h209l-56 -356q-18 -115 -18 -164z" />
    <glyph glyph-name="x.superior" horiz-adv-x="577" 
d="M535 1186q-33 0 -56 -20t-45 -76l-53 -132l47 -335h66l-5 -25h-213l-38 328h-5l-81 -209q-35 -90 -73 -119t-91 -29h-33l41 170h55q66 0 107 92l65 154l-43 313h-65l6 25h211l35 -305h4l71 182q35 90 69 121t87 31h29l-37 -166h-55z" />
    <glyph glyph-name="y.superior" horiz-adv-x="649" 
d="M580 1102q0 106 -154 106l20 144q82 0 144 -40t63 -114q0 -74 -65 -219l-217 -481q-39 -86 -80 -117t-131 -31q-180 0 -180 133q0 43 8 76l10 41h160l-8 -39q-18 -88 -19 -115q0 -68 66 -67q82 0 133 119l43 100h-144q-113 57 -112 215q0 53 14 154l49 331h-65l4 25h211
l-56 -356q-20 -119 -18 -154q0 -150 115 -192h14l160 358q35 80 35 123z" />
    <glyph glyph-name="z.superior" horiz-adv-x="518" 
d="M-29 598l2 10l430 580h-247l-33 -154h-33l62 289h399l-2 -12l-432 -578h262l35 160h32l-63 -295h-412z" />
    <glyph glyph-name="plus.inferior" horiz-adv-x="495" 
d="M451 133h-183v-182h-41v182h-182v41h182v182h41v-182h183v-41z" />
    <glyph glyph-name="comma.inferior" horiz-adv-x="405" 
d="M4 -397v28q63 0 109 40q45 40 57 102h-4q-18 -21 -48 -21t-49 18t-19 52t25 60q27 26 65 26t62 -27t23 -65q0 -86 -66 -150q-67 -63 -155 -63z" />
    <glyph glyph-name="hyphen.inferior" horiz-adv-x="583" 
d="M465 217l-6 -70h-348l4 70h350z" />
    <glyph glyph-name="period.inferior" horiz-adv-x="448" 
d="M236 -166q0 -42 -28 -66t-69 -24q-78 0 -78 72q0 44 27 68t68 24q80 0 80 -74z" />
    <glyph glyph-name="slash.inferior" horiz-adv-x="206" 
d="M211 696h45l-293 -1085h-45z" />
    <glyph glyph-name="parenleft.numerator" horiz-adv-x="522" 
d="M213 508q0 -133 123 -168l-6 -29q-213 57 -213 348q0 150 44 286t92 223q48 88 130 148t182 64l-4 -28q-164 -4 -221 -252l-109 -465q-18 -78 -18 -127z" />
    <glyph glyph-name="parenright.numerator" horiz-adv-x="522" 
d="M309 1182q0 135 -123 170l7 28q213 -59 213 -350q0 -167 -90 -414q-46 -125 -140 -213t-219 -92l4 27q162 4 221 252l109 467q18 78 18 125z" />
    <glyph glyph-name="plus.numerator" horiz-adv-x="495" 
d="M451 825h-183v-182h-41v182h-182v41h182v183h41v-183h183v-41z" />
    <glyph glyph-name="comma.numerator" horiz-adv-x="405" 
d="M4 295v29q63 0 109 40q45 40 57 101h-4q-18 -21 -48 -21t-49 18t-19 52t25 60q27 26 65 26t62 -27t23 -65q0 -86 -66 -150q-67 -63 -155 -63z" />
    <glyph glyph-name="hyphen.numerator" horiz-adv-x="583" 
d="M465 909l-6 -69h-348l4 69h350z" />
    <glyph glyph-name="period.numerator" horiz-adv-x="448" 
d="M236 526q0 -42 -28 -66t-69 -24q-78 0 -78 72q0 44 27 68t68 24q80 0 80 -74z" />
    <glyph glyph-name="slash.numerator" horiz-adv-x="206" 
d="M211 1389h45l-293 -1086h-45z" />
    <glyph glyph-name="zero.numerator" horiz-adv-x="696" 
d="M423 1339q243 0 243 -188q-1 -13 -21 -119l-80 -364q-53 -232 -294 -232t-240 189q0 25 20 116l78 365q51 233 294 233zM514 1235q0 80 -78 80q-106 0 -133 -137l-106 -539q-16 -82 -17 -100q0 -78 80 -78q106 0 133 135l107 547q14 68 14 92z" />
    <glyph glyph-name="one.numerator" horiz-adv-x="450" 
d="M182 1210q123 0 150 133h53l-188 -872h75l-4 -25h-305l4 25h82l141 715h-79l6 24h65z" />
    <glyph glyph-name="two.numerator" horiz-adv-x="735" 
d="M530 1243q0 72 -77 72q-90 0 -115 -119l-43 -201h-156l31 150q38 195 270 195t232 -179q0 -56 -15 -104q-23 -86 -75 -131t-172 -95l-150 -61q-84 -34 -124 -64t-52 -81l-8 -35h456l35 160h33l-65 -304h-529l35 158q14 62 51 106t121 99l160 102q57 37 87 79t44 108
l16 80q10 45 10 65z" />
    <glyph glyph-name="three.numerator" horiz-adv-x="686" 
d="M571 768q0 -33 -10 -70l-8 -32q-31 -121 -102 -176q-72 -54 -203 -54q-223 0 -223 174q0 33 6 66l16 76h164l-25 -109q-20 -82 -20 -106q0 -76 76 -76q113 0 141 143l27 141q8 53 8 72q0 90 -99 90h-83l6 25h84q117 0 141 133l16 90q12 66 13 88q0 72 -72 72
q-96 0 -123 -137l-27 -129h-139l21 102q37 188 260 188t223 -174q0 -27 -10 -73l-4 -23q-13 -73 -59 -105t-138 -42v-4q143 -33 143 -150z" />
    <glyph glyph-name="four.numerator" horiz-adv-x="686" 
d="M592 862l-68 -311h-32l28 125h-88l-45 -205h76l-6 -25h-314l4 25h84l48 205h-295l2 12l391 641h194l-127 -600h86l29 133h33zM53 729h238l133 576h-21z" />
    <glyph glyph-name="five.numerator" horiz-adv-x="681" 
d="M373 1010q217 0 217 -164q0 -31 -15 -98l-18 -86q-49 -225 -303 -226q-104 0 -163 43q-58 43 -58 125q0 16 8 58l16 83h162l-35 -161q-8 -37 -8 -52q0 -72 74 -71q106 0 133 135l45 219q8 41 8 64q0 98 -96 98q-72 0 -126 -52t-64 -96h-44l109 500h442l-59 -274h-33
l31 137h-373l-55 -262h4q76 80 201 80z" />
    <glyph glyph-name="six.numerator" horiz-adv-x="704" 
d="M264 436q-236 0 -235 187q0 33 10 73l90 410q52 233 297 233q205 0 205 -161q0 -43 -8 -78l-11 -45h-157l18 90q2 12 10 49t9 53q0 68 -66 68q-106 0 -133 -135l-51 -277h4q66 70 155 70q182 0 183 -144q-1 -28 -11 -79l-20 -91q-53 -223 -289 -223zM434 854q0 74 -72 74
q-55 0 -93 -39t-48 -92l-39 -209q-4 -25 -4 -45q0 -82 80 -82q53 0 87 37t44 94l35 186q10 57 10 76z" />
    <glyph glyph-name="seven.numerator" horiz-adv-x="524" 
d="M635 1327l-428 -856h84l-4 -25h-332l4 25h78l418 573l69 138h-387l-37 -172h-32l67 317h500z" />
    <glyph glyph-name="eight.numerator" horiz-adv-x="702" 
d="M426 1339q227 0 227 -176q0 -31 -8 -63l-4 -23q-27 -152 -195 -168v-4q135 -31 136 -147q0 -29 -7 -66l-8 -41q-45 -215 -293 -215t-249 182q0 18 12 76l6 29q35 164 219 184v4q-121 29 -121 136q0 29 6 61l7 33q18 96 88 147t184 51zM350 897q-115 0 -135 -125l-25 -149
q-10 -66 -10 -80q0 -82 80 -82q112 0 135 127l25 151l10 78q0 80 -80 80zM510 1237q0 78 -72 78q-100 0 -123 -119l-24 -137q-10 -61 -10 -64q0 -74 75 -73q103 -1 123 114l23 131q8 45 8 70z" />
    <glyph glyph-name="nine.numerator" horiz-adv-x="696" 
d="M426 1339q115 0 177 -48t63 -140q0 -35 -13 -88l-84 -389q-25 -111 -103 -174t-198 -64q-219 0 -219 160q0 45 10 92l9 43h163l-16 -78q-23 -109 -22 -127q0 -66 77 -65q45 0 82 40t49 99l56 281h-4q-66 -70 -161 -70t-136 38t-41 112q0 35 10 79l18 76q54 223 283 223z
M522 1233q0 82 -86 82q-98 0 -129 -156l-31 -153q-10 -51 -10 -76q0 -74 70 -74q51 0 90 39t51 94l37 189q8 49 8 55z" />
    <glyph glyph-name="parenleft.denominator" horiz-adv-x="522" 
d="M213 61q0 -133 123 -167l-6 -29q-213 57 -213 348q0 149 44 285t92 224t130 148t182 64l-4 -29q-164 -4 -221 -252l-109 -465q-18 -78 -18 -127z" />
    <glyph glyph-name="parenright.denominator" horiz-adv-x="522" 
d="M309 735q0 135 -123 170l7 29q213 -59 213 -350q0 -169 -90 -414q-46 -125 -140 -213t-219 -92l4 26q162 4 221 252l109 467q18 78 18 125z" />
    <glyph glyph-name="plus.denominator" horiz-adv-x="495" 
d="M451 379h-183v-182h-41v182h-182v41h182v182h41v-182h183v-41z" />
    <glyph glyph-name="comma.denominator" horiz-adv-x="405" 
d="M4 -152v29q63 0 109 40q45 40 57 101h-4q-18 -20 -48 -20t-49 17t-19 52t25 61q27 26 65 26t62 -27t23 -66q-1 -85 -67 -149t-154 -64z" />
    <glyph glyph-name="hyphen.denominator" horiz-adv-x="583" 
d="M465 463l-6 -70h-348l4 70h350z" />
    <glyph glyph-name="period.denominator" horiz-adv-x="448" 
d="M236 80q0 -43 -28 -67t-69 -23q-78 0 -78 71q0 43 27 68t68 25q80 0 80 -74z" />
    <glyph glyph-name="slash.denominator" horiz-adv-x="206" 
d="M211 942h45l-293 -1085h-45z" />
    <glyph glyph-name="zero.denominator" horiz-adv-x="696" 
d="M271 -10q-241 0 -240 188q0 25 20 117l78 364q51 233 294 233t243 -187q-1 -10 -21 -119l-80 -365q-53 -231 -294 -231zM514 788q0 80 -78 80q-106 0 -133 -137l-106 -538q-16 -82 -17 -101q0 -78 80 -78q106 1 133 136l107 546q14 68 14 92z" />
    <glyph glyph-name="one.denominator" horiz-adv-x="450" 
d="M182 764q123 0 150 133h53l-188 -872h75l-4 -25h-305l4 25h82l141 714h-79l6 25h65z" />
    <glyph glyph-name="two.denominator" horiz-adv-x="735" 
d="M530 797q0 72 -77 71q-90 0 -115 -118l-43 -201h-156l31 149q38 195 270 195t232 -178q0 -55 -19 -123t-71 -113t-172 -94l-150 -61q-84 -35 -124 -65t-52 -81l-8 -35h456l35 160h33l-65 -303h-529l35 158q14 61 51 105t121 99l160 103q57 37 87 79t44 107l16 80
q10 45 10 66z" />
    <glyph glyph-name="three.denominator" horiz-adv-x="686" 
d="M571 322q0 -33 -10 -70l-8 -33q-31 -121 -103 -175t-202 -54q-223 0 -223 174q0 33 6 65l16 76h164l-25 -108q-20 -82 -20 -107q0 -76 76 -76q113 0 141 144l27 141q8 53 8 72q0 90 -99 90h-83l6 24h84q117 0 141 133l16 91q12 66 13 88q0 72 -72 71q-96 0 -123 -137
l-27 -129h-139l21 103q37 188 260 188t223 -174q0 -27 -10 -74l-4 -22q-13 -74 -59 -106t-138 -42v-4q143 -33 143 -149z" />
    <glyph glyph-name="four.denominator" horiz-adv-x="686" 
d="M592 416l-68 -312h-32l28 125h-88l-45 -204h76l-6 -25h-314l4 25h84l48 204h-295l2 13l391 641h194l-127 -600h86l29 133h33zM53 283h238l133 575h-21z" />
    <glyph glyph-name="five.denominator" horiz-adv-x="681" 
d="M373 563q217 0 217 -164q0 -31 -15 -98l-18 -86q-49 -225 -303 -225q-104 0 -163 43q-58 43 -58 125q0 16 8 57l16 84h162l-35 -162q-8 -37 -8 -51q0 -72 74 -72q106 0 133 136l45 219q8 41 8 63q0 98 -96 98q-72 0 -126 -52t-64 -95h-44l109 500h442l-59 -275h-33
l31 137h-373l-55 -262h4q76 80 201 80z" />
    <glyph glyph-name="six.denominator" horiz-adv-x="704" 
d="M268 -10q-115 0 -177 47t-62 139q0 33 10 74l90 409q52 234 297 234q205 0 205 -162q0 -43 -8 -78l-11 -45h-157l18 90q2 12 10 49t9 54q0 68 -66 67q-106 0 -133 -135l-51 -276h4q66 70 155 69q182 0 183 -143q-1 -29 -11 -80l-20 -90q-53 -223 -285 -223zM434 408
q0 74 -72 73q-55 0 -93 -39t-48 -92l-39 -209q-4 -25 -4 -45q0 -82 80 -82q53 0 87 37t44 94l35 187q10 57 10 76z" />
    <glyph glyph-name="seven.denominator" horiz-adv-x="524" 
d="M635 881l-4 -13l-424 -843h84l-4 -25h-332l4 25h78l418 573l69 137h-387l-37 -172h-32l67 318h500z" />
    <glyph glyph-name="eight.denominator" horiz-adv-x="702" 
d="M426 893q227 0 227 -176q0 -31 -8 -64l-4 -22q-27 -152 -195 -168v-4q135 -31 136 -148q0 -29 -7 -65l-8 -41q-45 -215 -293 -215t-249 182q0 18 12 76l6 28q35 164 219 185v4q-121 29 -121 135q0 29 6 62l7 32q18 96 88 148t184 51zM350 451q-115 0 -135 -125l-25 -150
q-10 -68 -10 -80q0 -82 80 -82q112 0 135 127l25 152l10 78q0 80 -80 80zM510 791q0 78 -72 77q-100 0 -123 -118l-24 -138q-10 -61 -10 -63q0 -74 75 -74q103 0 123 115l23 131q8 45 8 70z" />
    <glyph glyph-name="nine.denominator" horiz-adv-x="696" 
d="M426 893q115 0 177 -48t63 -140q0 -35 -13 -89l-84 -389q-25 -111 -103 -174t-198 -63q-219 0 -219 160q0 45 10 92l9 43h163l-16 -78q-23 -109 -22 -127q0 -66 77 -66q45 0 82 40t49 100l56 280h-4q-66 -70 -161 -70t-136 38t-41 112q0 35 10 80l18 76q54 223 283 223z
M522 786q0 82 -86 82q-98 0 -129 -155l-31 -154q-10 -51 -10 -76q0 -74 70 -73q51 0 90 39t51 94l37 188q8 49 8 55z" />
    <glyph glyph-name="zeroslash.tf" 
d="M620 1358q-84 0 -133 -54q-47 -55 -67 -159l-131 -692l438 553l23 116q31 151 -16 203q-30 33 -114 33zM236 130q0 -116 133 -116q95 0 143 56t68 155l131 693l-439 -551l-22 -119q-14 -68 -14 -118zM383 -16q-164 0 -254 72t-90 218q0 57 12 115l137 641q73 356 421 358
q173 0 262 -72q89 -73 90 -214q-1 -45 -15 -121l-135 -641q-78 -356 -428 -356z" />
    <glyph glyph-name="zero.tf" 
d="M385 -16q-166 0 -256 72t-90 216q0 55 18 140l131 618q76 358 424 358t349 -288q-1 -43 -15 -119l-135 -641q-74 -356 -426 -356zM764 1231q0 127 -131 127q-174 0 -213 -213l-172 -909q-12 -70 -12 -95q0 -127 131 -127q97 0 145 56t68 155l172 912q12 70 12 94z" />
    <glyph glyph-name="one.tf" 
d="M520 1188q98 0 154 50q55 50 84 159h49l-289 -1366h121l-6 -31h-440l6 31h123l225 1126h-123l8 31h88z" />
    <glyph glyph-name="two.tf" 
d="M670 1358q-84 0 -126 -46t-61 -138l-65 -318h-205l47 234q59 299 381 299q344 0 344 -275q0 -53 -14 -117l-10 -47q-27 -126 -105 -200t-254 -148l-227 -96q-133 -55 -189 -99t-75 -135l-15 -65h688l54 248h36l-96 -455h-766l49 242q23 106 73 164t194 157l229 156
q98 66 138 125t65 170l26 121q10 49 15 108q0 115 -131 115z" />
    <glyph glyph-name="three.tf" 
d="M846 502q0 -45 -12 -101l-15 -63q-41 -184 -149 -269t-295 -85q-324 0 -324 264q0 61 17 129l20 90h215l-35 -164q-29 -139 -28 -170q0 -119 127 -119q102 0 153 56t70 163l43 250q10 76 10 90q0 147 -160 148h-112l6 31h112q188 0 228 213l35 188q10 55 10 101
q0 104 -123 104q-152 0 -190 -176l-50 -236h-182l35 156q63 287 360 287q336 0 336 -265q0 -65 -12 -110l-8 -31q-29 -125 -102 -178t-214 -64l-2 -4q236 -37 236 -235z" />
    <glyph glyph-name="four.tf" 
d="M944 643l-102 -479h-37l43 196h-141l-72 -329h108l-6 -31h-444l6 31h127l76 329h-449l2 19l602 993h265l-201 -934h143l43 205h37zM147 438h371l203 903h-29z" />
    <glyph glyph-name="five.tf" 
d="M545 877q147 0 227 -65t80 -189q0 -49 -12 -105l-39 -186q-74 -348 -439 -348q-152 0 -234 66t-81 194q0 76 19 145l16 70h213l-33 -154q-35 -150 -33 -174q0 -117 125 -117q98 0 148 54t69 159l66 348q12 66 12 97q0 156 -157 155q-117 0 -203 -81t-101 -148h-38
l163 774h639l-84 -409h-37l43 208h-559l-100 -458h4q131 164 326 164z" />
    <glyph glyph-name="six.tf" 
d="M405 -16q-165 0 -255 72t-91 212q0 45 15 117l137 645q76 358 432 359q141 -1 218 -63t77 -183q0 -49 -16 -135l-13 -58h-209l31 140q27 115 27 161q0 106 -115 107q-178 0 -215 -213l-82 -461h4q98 133 258 133q258 0 258 -221q0 -51 -16 -123l-31 -145
q-37 -170 -143 -257t-271 -87zM668 633q0 121 -123 121q-91 0 -149 -60t-72 -145l-60 -332q-8 -49 -8 -72q0 -131 131 -131q176 0 213 205l45 258q23 135 23 156z" />
    <glyph glyph-name="seven.tf" 
d="M985 1372l-4 -18l-639 -1323h125l-6 -31h-447l6 31h113l594 903l111 231h-580l-57 -264h-37l102 471h719z" />
    <glyph glyph-name="eight.tf" 
d="M631 1389q153 0 239 -65t86 -198q0 -49 -10 -106l-8 -45q-45 -242 -313 -254v-4q223 -39 223 -236q0 -47 -10 -104l-15 -70q-68 -324 -426 -323q-164 0 -260 66t-96 206q0 55 12 113l13 59q57 279 350 289v4q-201 35 -201 217q0 45 14 111l11 49q59 291 391 291zM649 575
q0 129 -137 130q-186 0 -217 -203l-45 -283q-6 -39 -6 -74q0 -131 137 -131q184 0 217 203l37 236q14 86 14 122zM768 1239q0 119 -125 119q-164 0 -194 -189l-41 -239q-8 -45 -9 -76q0 -119 127 -119q166 1 197 185l33 200q12 66 12 119z" />
    <glyph glyph-name="nine.tf" 
d="M372 -16q-322 0 -323 249q0 47 12 103l23 102h215l-29 -131q-33 -152 -32 -184q0 -109 118 -109q180 0 224 219l90 476h-4q-49 -68 -121 -103t-144 -35q-133 -1 -192 55t-59 165q0 51 16 127l27 124q76 346 413 347q166 0 255 -73t89 -214q0 -56 -12 -117l-135 -631
q-39 -180 -155 -275t-276 -95zM762 1227q0 131 -133 131q-97 0 -145 -54t-66 -153l-62 -315q-8 -49 -8 -92t25 -76t101 -33t138 58q64 58 80 138l62 322q8 53 8 74z" />
    <glyph glyph-name="numbersign.tf" 
d="M432 911l-96 -319h229l97 319h-230zM608 592h172l-57 -195h-172l-117 -397h-43l117 397h-229l-117 -397h-43l117 397h-170l57 195h170l96 319h-172l57 195h172l78 266h43l-78 -266h230l78 266h43l-78 -266h172l-57 -195h-172z" />
    <glyph glyph-name="dollar.tf" 
d="M410 1010q0 -82 63 -131l88 407q-106 -33 -133 -168l-10 -49q-8 -45 -8 -59zM621 395q0 82 -68 135l-94 -444q111 35 141 180l12 60q3 12 9 69zM632 1296q-22 0 -34 -2l-92 -438l69 -51l103 487q-24 4 -46 4zM380 76q28 0 40 2l102 477l-69 49l-113 -526q12 -2 40 -2z
M238 201q0 -92 67 -115l115 543l-86 63q-109 80 -109 215q0 70 13 111l14 53q66 242 317 256l35 164h37l-35 -164q41 0 78 -6l37 170h37l-37 -176q166 -41 184 -205h4l45 217h37l-80 -371h-186l27 117q14 63 18 113q0 72 -57 96l-107 -500l103 -71q111 -80 110 -234
q0 -47 -12 -106l-10 -49q-53 -260 -346 -277l-35 -164h-37l35 164q-41 0 -80 6l-35 -170h-37l37 176q-184 41 -203 215h-4l-47 -227h-37l82 387h193l-25 -121q-20 -98 -20 -110z" />
    <glyph glyph-name="cent.tf" 
d="M285 432q0 -119 88 -139l184 919q-141 -14 -170 -190l-92 -514q-10 -62 -10 -76zM692 1108q0 100 -98 106l-186 -927h24q242 0 299 270l21 94h41l-21 -92q-35 -157 -119 -235t-233 -78h-21l-51 -262h-37l54 264q-131 12 -203 81t-72 189q0 47 12 105l64 292
q70 328 397 330l41 205h37l-41 -207q193 -18 229 -180h5l38 182h37l-96 -454h-178l51 256q6 35 6 61z" />
    <glyph glyph-name="sterling.tf" 
d="M797 1266q0 92 -97 92q-143 0 -172 -168l-73 -442h338l-7 -35h-337l-33 -183q-49 -276 -336 -307l-2 -4h690l55 254h37l-100 -473h-791l47 223q68 17 107 63t47 99l57 328h-106l6 35h106l56 317q27 156 128 240t261 84q244 0 268 -199h4l43 199h37l-98 -467h-199l27 120
q37 172 37 224z" />
    <glyph glyph-name="Euro.tf" 
d="M264 158q0 -60 40 -97t134 -36q252 0 318 301l24 112h41l-24 -112q-39 -178 -128 -260t-259 -82t-259 82t-90 208q0 39 15 121l37 189h-121l6 34h125l20 103h-123l7 35h125l61 288q72 344 414 345q264 0 295 -207h4l45 207h37l-103 -484h-200l47 221q18 92 18 121
q0 111 -121 111q-168 0 -207 -205l-75 -397h333l-6 -35h-334l-20 -103h332l-8 -34h-330l-62 -326q-8 -40 -8 -100z" />
    <glyph glyph-name="yen.tf" 
d="M657 324l-6 -35h-205l-55 -258h98l-6 -31h-405l6 31h98l56 258h-205l6 35h205l22 102h-205l7 35h204l23 102l-47 778h-86l6 31h399l-6 -31h-102l28 -702h5l325 702h-102l6 31h244l-7 -31h-86l-368 -778l-23 -102h205l-6 -35h-205l-22 -102h204z" />
    <glyph glyph-name="florin.tf" 
d="M463 180q0 30 -10 80l-82 373h-193l6 31h181l-17 75q-30 123 -28 177t16 120l24 111q27 121 98 181t199 61q188 0 197 -172h4l37 172h37l-88 -418h-180l55 268q14 72 14 74q0 45 -49 45q-41 0 -60 -22t-28 -64l-41 -195q-16 -73 -16 -107t10 -81l47 -225h252l-6 -31h-240
l49 -223q27 -118 28 -172t-15 -129l-23 -109q-51 -242 -295 -242q-90 0 -142 37t-57 135h-4l-39 -172h-36l90 418h180l-64 -299q-6 -31 -6 -47q0 -41 49 -41q71 0 89 86l45 209q12 66 12 96z" />
    <glyph glyph-name="zeroslash.tosf" 
d="M256 156q0 -72 28 -107t103 -35q172 0 213 211l98 545l-409 -426l-23 -117q-10 -55 -10 -71zM745 1047q0 127 -131 127q-174 0 -213 -213l-102 -547l414 428l22 116q10 51 10 89zM406 -16q-164 0 -254 72t-91 212q0 61 31 193l84 389q76 354 418 354q164 0 254 -72
t90 -212q0 -43 -14 -119l-99 -465q-74 -352 -419 -352z" />
    <glyph glyph-name="zero.tosf" 
d="M406 -16q-164 0 -254 72t-91 212q0 61 31 193l84 389q76 354 418 354q164 0 254 -72t90 -212q0 -43 -14 -119l-99 -465q-74 -352 -419 -352zM745 1047q0 127 -131 127q-174 0 -213 -213l-133 -723q-12 -57 -12 -97q0 -127 131 -127q95 0 145 56t68 155l133 731
q12 66 12 91z" />
    <glyph glyph-name="one.tosf" 
d="M508 1044q96 0 154 37q57 37 79 131h43l-252 -1181h119l-6 -31h-432l6 31h119l197 983h-119l6 30h86z" />
    <glyph glyph-name="two.tosf" 
d="M647 1174q-94 0 -132 -56t-64 -172l-54 -250h-200q25 142 51 226t70 154q46 70 118 100q72 29 182 28q162 0 255 -66t94 -198l-17 -113q-36 -143 -108 -210t-228 -105q-303 -76 -389 -118t-100 -142l-12 -53h682l49 231h37l-90 -430h-758l59 274q23 94 91 146
q95 70 360 190q102 48 142 104t67 179l14 68q12 70 14 98q0 115 -133 115z" />
    <glyph glyph-name="three.tosf" 
d="M391 -139q-330 0 -330 272q0 45 15 113l20 96h211l-55 -252q-12 -61 -12 -82q0 -121 133 -121q104 1 154 57t69 165l35 202q10 66 10 103q0 150 -160 149h-108l6 31h108q190 0 230 213l26 151q13 78 13 118t-27 69t-96 29q-152 0 -191 -177l-49 -233h-178l35 158
q63 283 360 282q328 0 328 -260q0 -32 -12 -106l-4 -25q-37 -219 -306 -231l-2 -4q227 -29 228 -226q0 -37 -11 -94l-10 -49q-39 -180 -144 -264t-286 -84z" />
    <glyph glyph-name="four.tosf" 
d="M942 520l-98 -471h-37l39 189h-141l-78 -361h-205l80 361h-447l4 18l584 932h262l-186 -873h143l43 205h37zM152 315h368l187 842h-29z" />
    <glyph glyph-name="five.tosf" 
d="M543 719q303 0 303 -252q0 -49 -12 -105l-33 -159q-72 -342 -410 -342t-338 258q0 53 15 108l18 76h207l-43 -213q-10 -51 -10 -84q0 -115 122 -115q172 0 216 213l61 324q8 39 8 90q0 156 -158 156q-117 0 -201 -82t-98 -150h-30l157 746h627l-82 -389h-37l43 192h-555
l-92 -428h4q129 156 318 156z" />
    <glyph glyph-name="six.tosf" 
d="M633 1327q295 0 295 -244q0 -41 -10 -96l-17 -74h-205l45 207q8 31 9 70q0 106 -111 106q-182 0 -219 -213l-78 -444h4q98 133 258 133q252 0 252 -219q0 -41 -14 -121l-23 -110q-33 -166 -138 -252t-269 -86t-253 72t-89 212q0 55 12 113l125 592q37 172 146 263
q110 91 280 91zM533 709q-77 1 -139 -61t-77 -144l-47 -277q-10 -51 -10 -75q0 -137 133 -138q174 0 211 205l49 279q25 129 -17 179q-26 32 -103 32z" />
    <glyph glyph-name="seven.tosf" 
d="M926 1188l-4 -19l-641 -1292h-207l594 887l110 221h-567l-57 -258h-37l98 461h711z" />
    <glyph glyph-name="eight.tosf" 
d="M621 1327q328 0 327 -260q0 -53 -8 -94l-8 -35q-29 -125 -101 -184t-200 -70v-4q217 -35 217 -221q0 -39 -10 -94l-13 -58q-37 -168 -138 -246t-279 -77q-356 0 -357 272q0 47 12 102l13 54q57 260 336 268v4q-92 16 -142 66t-51 161q0 27 8 72l9 43q57 301 385 301z
M657 541q0 129 -137 129q-184 0 -219 -203l-37 -217q-14 -76 -14 -122t31 -80t108 -34q184 0 217 203l43 254q8 57 8 70zM768 1176q0 121 -127 120q-164 0 -199 -188l-36 -193q-12 -61 -12 -108t28 -77q29 -30 98 -30q164 1 199 185l41 225q8 53 8 66z" />
    </font>
</defs>
</svg>
